<mxfile host="app.diagrams.net" agent="Mozilla/5.0 (X11; Linux x86_64) AppleWebKit/537.36 (KHTML, like Gecko) Chrome/131.0.0.0 Safari/537.36" version="26.0.2">
  <diagram name="PÃ¡gina-1" id="eGXeKf5tvGr_kJZ-Ue_N">
    <mxGraphModel dx="1434" dy="788" grid="1" gridSize="10" guides="1" tooltips="1" connect="1" arrows="1" fold="1" page="1" pageScale="1" pageWidth="827" pageHeight="1169" math="0" shadow="0">
      <root>
        <mxCell id="0" />
        <mxCell id="1" parent="0" />
        <mxCell id="DNTRqTkwEnmL52qoKm-J-4" value="" style="shape=image;verticalLabelPosition=bottom;labelBackgroundColor=default;verticalAlign=top;aspect=fixed;imageAspect=0;image=data:image/jpeg,/9j/4AAQSkZJRgABAQEBLAEsAAD/4S0QRXhpZgAASUkqAAgAAAAIAA4BAgAYAAAAbgAAABIBAwABAAAAAQAAABoBBQABAAAAhgAAABsBBQABAAAAjgAAACgBAwABAAAAAgAAADEBAgANAAAAlgAAADIBAgAUAAAApAAAAGmHBAABAAAAuAAAAPYAAABHZW5lcmF0ZWQgYnkgRlNJIFNlcnZlcgAsAQAAAQAAACwBAAABAAAAR0lNUCAyLjEwLjMwAAAyMDIyOjEwOjA5IDIzOjU2OjEwAAIAhpIHAB8AAADWAAAAAaADAAEAAAABAAAAAAAAAAAAAAAAAAAAR2VuZXJhdGVkIGJ5IEZTSSBTZXJ2ZXIACQD+AAQAAQAAAAEAAAAAAQQAAQAAAAABAAABAQQAAQAAAAABAAACAQMAAwAAAGgBAAADAQMAAQAAAAYAAAAGAQMAAQAAAAYAAAAVAQMAAQAAAAMAAAABAgQAAQAAAG4BAAACAgQAAQAAAJkrAAAAAAAACAAIAAgA/9j/4AAQSkZJRgABAQAAAQABAAD/2wBDAAgGBgcGBQgHBwcJCQgKDBQNDAsLDBkSEw8UHRofHh0aHBwgJC4nICIsIxwcKDcpLDAxNDQ0Hyc5PTgyPC4zNDL/2wBDAQkJCQwLDBgNDRgyIRwhMjIyMjIyMjIyMjIyMjIyMjIyMjIyMjIyMjIyMjIyMjIyMjIyMjIyMjIyMjIyMjIyMjL/wAARCAEAAQADASIAAhEBAxEB/8QAHwAAAQUBAQEBAQEAAAAAAAAAAAECAwQFBgcICQoL/8QAtRAAAgEDAwIEAwUFBAQAAAF9AQIDAAQRBRIhMUEGE1FhByJxFDKBkaEII0KxwRVS0fAkM2JyggkKFhcYGRolJicoKSo0NTY3ODk6Q0RFRkdISUpTVFVWV1hZWmNkZWZnaGlqc3R1dnd4eXqDhIWGh4iJipKTlJWWl5iZmqKjpKWmp6ipqrKztLW2t7i5usLDxMXGx8jJytLT1NXW19jZ2uHi4+Tl5ufo6erx8vP09fb3+Pn6/8QAHwEAAwEBAQEBAQEBAQAAAAAAAAECAwQFBgcICQoL/8QAtREAAgECBAQDBAcFBAQAAQJ3AAECAxEEBSExBhJBUQdhcRMiMoEIFEKRobHBCSMzUvAVYnLRChYkNOEl8RcYGRomJygpKjU2Nzg5OkNERUZHSElKU1RVVldYWVpjZGVmZ2hpanN0dXZ3eHl6goOEhYaHiImKkpOUlZaXmJmaoqOkpaanqKmqsrO0tba3uLm6wsPExcbHyMnK0tPU1dbX2Nna4uPk5ebn6Onq8vP09fb3+Pn6/9oADAMBAAIRAxEAPwDwzC+gpPkBBIGO+K6LxRbxvqERhsrGzVbVSUt5Nyty3P3Rz/8AW5rMNut2cRR28WyPJy3X9OtD7r/hhxSlpc9RtbWAQoRGD8o7VZ+yxH/lmv5UWi/uE/3RVgLXlHYRLaRDpEg/AVMsKqOAAKcBTxQBGLdAcEDHpinrbRj+EflUg5p/SgBgiUdFFO2L0wKUE1geJbbUpooptPmKtCdzRqcFv6HHoaS1Yzdkj/dPsA3Y4+tYlpr1raGOy1Iva3aoN/nAbWOOSGHGOtc1F411WAhZY4ZNvDZQg/oePyrQ+1WvjOwlheKKC/i5h+flvxx09avltuI7WN45UDRsrKehByDUmwegrxeC7vNOmZYZ5YHVsMFYjkeorp9L8c3UbrHfos0XeRRhh746Gm6b6Bc9B2DHSjYOtUbHWLTUIfMt5lZc4+n19K0VKnkHOazGMIHenBfYU7GRiqepXj2NtGY4w800qwxAnA3HufYAE/hQIssAB2pNyEgZBrKGn3Vw487U7jdjP7tUVR9AQePqTUjLLY3MUc5WaCY7FkC4ZH7Bu2D68c0egzTAFBXI6VDHmOXHY1aI4oTBkJQUwqParGKYVoEV2QUwrzU5WoyOaAIynPQUbRgcU/HFHHrQBnCDUgmDc22/18sj9M08G9TaJDBnvtBOT7ZIq+B7Uwx/MSD+dVzeQuUpNJeBCUgRjzgE4/rVfXWY+FtRLrtf7K5YA9DtrRUbDtzms/xEf+KZ1P8A69n/AJU4u7QmtDy/ZFqBmklurWAxQjaAuN554HPWqIuMkkrCPkx93/69Ntpgqy75NhK4GBnNbL6hZSP8+oyYW32giL+L06V6NnGa8/w/4fzOdz9y3Y9Ms+bWM/7IqdlytR2wAtYh/sipm6V5jOoRDnj0qQCokNTDikA5R3p3OaQHNP7UAQknNIRmptoNII+akpM5vW/CkWqbri2Ihusf8Bf6/wCNef3tneaTd+VcxPDKpypHf3B717WkYqG7020v0C3VtFMqnIEiBsfnWsJtaMlq543azW8l4r3/AJ0kTH5yj/P9eetXNZg0q28qXS7wyxtkPHKcOh+nBIP0ru77wHo92S0ayWzesLAD8iCK5nVfAF3awtJBOtyignBG1wPbqD+laqcW9ybM5mK6aNvMhlaNwPvI2CPxFbVl4o1LTDlbs3LsBlJDuVefXuceh7/ly5Bj449jgUb2B6/pWrgmRzWPUtL8f2VwRHfRm1cn733kP49q6OdIdWsUa3nQkMssMq/MAw5H1HY+xNeGCU/xDPuOKu2Op3tg/mWd28TA5wh6/UdDWUqPYpTPZrYXMoDyW5hcHDKWBGfYjqPyqHXxnTUG3LfaIcfXzFrldF+IOSkOqxgZ48+McfiP8K6PVb2KcaW0EySQy3G7cpyGwjEc/XFYuLi9S73L8QLSg9qungVDbAbMgVKahDYUhoNNNMQjYxUJHvUpFMbigBhpoGASBQz8ZHTvTEffyMjPYjFAEv8AKjnNC59sUkis2Npxg0ANkXv3rJ8RH/imtT4/5d3/AJGto9Kx/Ewx4a1LHe2f+VVH4kJ7HjXFBANFFeocZ7ba828f+6P5VK3SoLA7rKE9tg/lU5rymdo1V6YqQZx70i0/tSAUCngcYpoIAyacPWgBwp49aaKeKAHLUnao1p4NAC5JpSARg0mcVTv9TtdNtZLi5lCRoMn/AAHvQBlaz4R03V5RI6NDKTlpIsAn6561wWsaFo2nu6wa3BIytt8sgkgjqCVz/KpNX8V3GsyuJ55rexJIW2t+GYf7bH/649u9Z0GtwWIH2DS7eNx/y0mPmt+Zxj8K6IxmiW0yiNNv5IvPjsJxDjO/Y2PrmoRC4+YMAR0xWs/izW5C2b1lVs8BF4/SshtzHLHcW561subqRZdBQHDcjHpWnpmqy2FxExLPHG+/yi2Bnpn2NGn+HNX1NUa3tHMLnG9+F7c/Tmp9Q8L6tpUfmz2xeJR8zxncB/X86mTi9GNX3PWdKvrfULCO4tpAyMOeeQfQ+9Xc4rzHwDeyx609sjkwSxFmXtkY5/pXXXniNmuGttLs5b6UcF04jB926Vyyhyuxonc3s0x5EQfMwH1NYC2XiO+5ub2GyjP8EC7mx9TS/wDCI2r83N3eXDHqZJT/ACFSM3Q6OMqwP0NRyciueuvDsllEZdKvJoZV5CO5dG9iDUcPiQto0lxOm2eImN489HBxih+QWNsuqbhv5Azjvin2zeYAy5C+p71zfhWK51G7l1a9d/s5BjRM8P0z+HGPrXXcBAqgADpgUNWBgBxSHmjNITQIa3SszxIM+GNSPb7LJ/6Ca0X571m+Ij/xS2pf9e0n/oJqo/EhPY8XoopOe1eocZ7Vppzp9vk8+Wufyq5gGqOm5+wQk/8APNf5VcU15T3OxCng8U5aTGTR0pDH8U4VFk1IDQBIKeDUYIpaQx4wTSvIsaF3IAHc1QvtRttLtWnuZQiD8ya811/xVc6y5ijLQ2g6J3b6/wCFXGDkJux1uveM7a1tlXT5o55mOMA5AHqcV59qGq3mqSiS7mZ8HKp0Vfwqn35pwGew/GuiMFEhybG9aPL56U/IH1p5Pyj1q7kjHjRSMHdx6Yq9okVrPrVpFekC2ZzvycDoSB+JwKojlgueTXV6Rb+GdPdZr28N3OhztEbeWD9Mc/yqZSsikj06ML5ahAFUDAApzAMMHBrlH8eaTGo2rO+eypj+ZFLD490iQ/OLiLH9+PP8ia5OSXYu6M/VdB+weKIdQik8q0vJxHcKvyjnnHHYkAEf413MUccaKsaKigYAAwBWFqE1pr+iXAsbmOR9u5CpyUccqSOo5Aq7o+opqOlW9yp5dAWGeh7inJtrULGnkUx3AHWsLUbrWRcmOzggSLtK5LH/AL5GP51ntpWqXg3X2qzbO6w4Qfpz+tSOxc1nxBa2MZjVvNuGGEhTkk/0FcRodtL4g1YWjuVtmcz3Tp6HqB9elX5reKa6OlaJEpduJrg8kDvzXWaB4atdDjk8ks0kuPMZu+PT0HJq01FeYM1EhjtrZLeBFjhUbQoGMClHAxUjioxUAHNHsaXtTWG8EHIz6GmIYWH1rP8AEX/Iq6mf+naT+RrQSFUj2gnHueaz/EQH/CKaoPS2f+VVH4kJ7HiuaDQOe1GDXqHGezaaT/Z9vn/nkv8AIVdFUNPOLC1x08pOv0FXAfevKe52omU0vWog2DipAaQDgKGOwA4JyQOBUcs8VtC0s0ixxrjLMcAdqrf21pmf+Qja/wDf1f8AGiwF9TzVbVNSh0qxe5nPC9FHVj2AqtLr2lwxNJ9ut32jOEkDE/QA8157rWsXOuXoLBliBxFEO3/16qMG2DZU1jVbrWLszXDfKOEQdFH+e9ZuOa6a28IajcYMpit1PXe+T+QzWtbeD9Ktfn1C+aTHOARGv49/1Fbe0itCeVs4P7tTQ29xcAtDBLIAeSiE4/KvQGl8L6XDuggtZHT7u0ea+fYnP865jV9du9UOwAxW46RLxn6/4dKaqX2QctjC2Oeg496eEx1IqXypD2x+NN8iU/3fzq7k2AYAIGKXtyRmmeVLnAC8eh60eXIeq0aDBRlyQPyqTcSOgFMBYHkYx2rb0vwzqmpSK3kNBEefMlGAB7DqaTaW4IZ4d025v9S8mGeSKMjMzIxGVB6cetdc1jN4YkM9gJJLAnM1vksV/wBpc/qK3NK0i20izEEAyeruerGrUm3acgEVzTqNvyLSsV4NQtru1W5ilVoiM7s1y+p6xcavdf2ZpAyv/LSYdAK5jWdOni1K7is3JSIGWQBvlHPf3PpXbeD3sYfD1vMPLRnzvbPJIJ6/hRypLmHfWxp6Lo0GkWgijGXPLyEcsa1s4qtFe205IimR8dgamJqABm5plO5pDwKBDS2BzSZyAQevNDIGIzk/jQF2qBycepzTAQtWd4hP/FK6qP8Ap2f+VaBrM8QH/imdVH/Ts/8AKqh8SE9jxlcg9DS9cAda2YbxJfsSWhnE0MXl7FBbee554A/lWncWby6bFPJpxLSFSJGtC+75RuwRjvnPvXqHGdppoI020B/54p/6CKvKOaqWGfsNsCMHyk7Y7CrfbNeVLdnYh9KDjqaaB3qNmw1IaJ94HOao3Oiade5M1nDlurKu1vzHNWVcDin7zxg96Vx2OP1LwQ0cbS2EzSkcmJ8ZP0P9DWHpNqRrcQmjx5JLurjGNoJ5/SvUVeqmoafFfW8wVY0uHjMYlKZIB7fSrVR2swseXz39zPNI5nkAZidu84Ge1QmQu5Jbcx6knk1s3fhTVbQEiBZ1HeFs/pwf0rIkjeNykiMjjqrZBH4Gtk10JEzx3pynGBmmBMdBj6UvTu1AD8jHQU3Poabj/aP+fwoz7g/8B/8Ar0WC47oeR+Ipev0pnI6DP40mSTgj68inYVyRZDHIroxDqcgg4INdJpPjW6tJBHfsZ4Txux8y/wCNcx/wAj3C5pjMo7H34pOKe47ntENzHc26TQurxuMqynIIrG8Q6r/Z1piMb7iU7IkHUk1w+i+KJtJt5LYLIyOdyYXOD360i65JfXU+ovjzh+7gXtGMct9ay9k09dhqSK91cMkT2gOXZ9075yXb0+gqpFnasTOxjzwuTgH6U1kAfIY5J5yc08BQMdc8VslZaE3uPXfBJujdkb1U4/Wuo0PxbLbEQ35MkZPEncfWuSyWPOAw9O9JuK8Y/Kk4KS1C9j2iKZJ4lkjYMrDIIPankZrhvCGthX+wTOcHmLP6iu3VwwzkVztWdmUKelMNP74pp60AMNZPiRtvhzUj1zbOP0rWPWsrxKP+Ka1L/r3f+VVD4kJ7HkNveeZcKsssdvGQQzrGSB74HU11mv6jBe+DNDtEvUSW0LeY0iMAQ/K42g9hXDwPEkytPEZYxnKB9pPHrg11us2NrD4I0jUsSn7XIVMYcAIE3AYODnivVscdzu9MwNKsxkHECcjv8oq4CD0rO0xg2lWWOB5CdT/sitBDXky3Z2LYkBrD1Sx1mOV7nTL0yAnc1vKAf++SR09v1rbzTxQnYZwn/CWX1tI0V3ZIJVOGHK4/DmpV8Z5U7rNlPbEu4fyFdFrWgW2sRBm/dXKD5ZQO3ofUfy/OvPb/AE6506cxXMTI3Y9m9we9aJQl0Fdo6WPxnCD88M2PYA/1rRh8W6YwAacof9pG/wAK88Ix/h0oJ55/Wn7KIc7PU7fWbO6bbBcxSNjO1WGcfSrbQ2l6gW5gimXt5iBsfnXkiO0bqyOVdTkEcEV0OneLJoMJdrvX++vX8RUSpNaxKUk9zpLzwZp1xue1eS2c5wFO5c/Q/wCIrnrzwbqluSYVjuVzwY3wfxBx+ma6/TtYtr1A0MyuO+Oo+o7VqLIGHFSpyQcp5DcWl1aHFzbSw84/eIVz+dRKe2Tj617LkHqMjvVeXTrK4/11nbyf78Sn+YqvaiseRNgDsfrSbvfNeqSeHNIcgmxhBHTaMfyo/wCEf0oHjT7f/vgU/aoOU8qLY9B+tWrXSr/UHAt7eVlP8ZGF/PpXqUOm2VvnybWGPPXZGBn8qg1LULTS7Rp7mRUUcAd2PoKXtXskHKjhtZSHRtLi0kHzZZW82Yjt7D06VjQ2twl6bRIlEkhDLGGxtyMgZPtWpogXWtcm1G+OUV8heuD2H4Vb8aWX2XULe+gG1ZFA3DjDDofrjH5ValZ8nUTV1c52SKWNmDjDA4I9KjLlSAc1Ze5FxK0hwGf5nH+13P49arSrgjHpWifcliEnauOoNLu5zyRTT94gd+aYDtIzmqEWY32Sh1JVgQQVOOa7bwxr7ySiyunLsQTG5OSfY1wYbkHtVmGWRJEljYh0IKkdiKznG6Kiz2VTuXNIaytB1Qalp8cp4k+64HZh1/x/GtUnI4rnKGEVl+JR/wAU1qX/AF7P/I1q96zPEYH/AAjepf8AXtJ/6CaqPxIT2PFLV547pGt13TDO0bA+ePQg5ror+TVJvDFlA0MrW8Tgxr5PyqxMm/HHqBx2rno7Z2kiEjCBJclZZQQuBnnIB7jHFdZf3dnP8OtJ0wXsa3FvcSO+5X2lWaQAghT1wa9U4jtdHU/2PZZ4PkJkY/2RV8DFUNHwuj2IyDi3jGR3+UVoV5Ut2dq2FHNSLwKaPanqe1SMfVe9sLbULcw3USyJ2z1B9Qe1WBS0Aef6t4Ou7TdJZk3MP93+Mfh3/D8q5hkZGKkFWBwQeor2jGeKzNT0Kw1Vf38QEuMCVOGH49/xrSNS24rHlBHHXH4U7DAZ4Pt3rpNS8IX9lukt/wDSoR/cHzAfTv8Ahmue2bWKspBBwQeCK1UkxWFhme2YSwzNG46FeK6XTPFssJVLz5wf+Wijn8R/hXMsCQaYDtJHOPp0pOKluCbR63Y6nBeRb4pVde5U9PrWgrZ7140kksLb45MN2KsVOPqK2tP8W6lZALLieMcAPy2PqP61k6T6FcyPTM+9ITXKW3jewkYC4WSAnuRkfpz+lXbnxTpcNq0yXUcmBnap5P4Vm4y7DLmrarDplo88rYA6DuT6V5tfXFzr5n1C8YrbxfJCi9N57e/HJqxd6hJrcyyNKjTyv5dvbKc7M9WatnxFp39n+HbK3gQskb5dvwOSfxNaxXJ6sT1MXw3qdvpVwsF4pMLvuEgPQ+49K9A1PT4Nb0todykONyOOcHsa8pPzgg9MVraJ4hutGmCHMtt/FEW7eq+lVOF3zLcSfQzLqxnsLl7eZSkqHn/H6VEWDcHrXpbx6T4pst6lXP8AeHDoa5PWfCV5YMZLZWuLfrkD5l+o7041L6PcHHsc8xGUxkHHP+fpTmx0/EGm54wcUhPStSBFAwQaliCxk4PB5qMcH6122h6ZpVzpsVwtsryFdshck/MOvGeP/r1E5cq1KirlLwpfSW+qCEZMc45HoRyD/T8a9DB43etY9vBBb4EMSRqeyKBWpExKDnNczlzO5bViQkis3xBz4c1Lj/l1k/8AQTWljis7xAceHNS5/wCXWT/0E047ol7HmuviL+x9BchWUQEOqOA5PHUc4+vNOutKtoPA2n6tI0sguJ2hESsF2hWkIOcHPX0pmpTvFpeh5Ftc7Y3YRGI5HQYb5ufbAHTvVa71m+fRYNPby1topGlWDyVwjM8mcZGfbGeK9Y4z0nR8HRbEhTjyEwCc4+UVois3Q2LaHYk9TAmeMfwitMV5Ut2dq2HCnimCnj9KkBw600zIDgtj605cGmyQRyRlCMZ7jtSGSDFLismC8ayuDbXX3f4ZD3rRluoYbeSZ5F2RruY56CgbViYVTvdIsdSH+lW6O3Zxww/Ec0y11JHgt/tLRxXEq7jGD0z2q+GX+8KNmI5K68CQMc2l7JGO6yqH/LGP61g3fg/V7cnbAs6/3o3/AKHBr0wHPSlqlUaFY8dayvrQMZLS4VB97fGQB+JHFNEkTAEMfpk17HjJOQMdjmmG1tydxgjz67Rmr9r3QuU8dZ1yACSx4AHer2n6ULlxLfOtrZryxdgGb2A6/jXqFzp1ldweTcW0ckYO7aV6H1/U1yHiNNE0uL7JaWkIv5sIn+xu43En0pqd9EFhthp1tfi5vrSJUS1IjswOANuGJ/4ETj6Ctq/kh1DR96ndG6A1fsbGC10qO2gUBFQDjvx1rn/D+Ibq+0uX/lnISvH8JrGTuaR0ONvrJ7G9eFx7qfVT0NV8bgM9fWu48R6D51kJ4AWlh5wByV9Pw/xriscZFdEJcyuZyVmLb3M9pcLLA7RTLyGTv/n0rrdK8bHHlanGT6Sxr/Mf4flXI8HqKTb74PY+tNxUtyU2jX1yCwNybrT54pIJjkopwyH6dQP8+lYjpjJFOxjORxRnjuR9apKwN3GY711Pg6dElngaUBnAKoe+M5I/z/KuYHzKR6V0XhO1jkuZbh1JaHGw5wATnP14qanwu447nZ7MH2q5bv8ALjFUwSR1zU9v1Oa5Uast5rL8RD/imdTOf+XZ/wD0E1qA8Vl+JDjwzqPvbv8AyrSPxIzex5xLFLeWWhQ2d8v2j94n+uAMZJ4GASy8cdMfnV/U7yI+ArLR0vY21C1v5WmTzNvGX5ycA5yK9NsPC+hy3t8ZtGtPJifaga3X8xxz+dW7Lw54UvrdJ4dFsPLkAMZMCgsCoPT8a9U4zmdDQrolgD18hM85/hFaajHWiSKK2mkghRUijcoiKMAAHAApQRXlS3Z2LYOorK17UbnTbITW0SyNu2ncpIUYJzx9K1QawPFd6YtLe3SOQvNgblU4UZHU+/THvSW4zm5fFWrS/dmSP/cjH9c1Rl1XUpyS97cHPOPMIH5dKp9Pb8aXJI4NbWQglnlmYGWV5D23MTTUkePIVmAP3gGIz9aT6mlVQ2clehPpVCFDZYlicnqTT0LRsGjYqw7ocGosEdGBH0p6PuXBwcf7P/16AN6w8WajZYSRluYx2k4b/vr/ABzXSWXjLT7ghbjfbPx98ZX8x/XFee5Yjgj8OlN3Of7uKh00x3PYre6guYw8EqSoejIwIqbPNeMxzTQtvjkMb9mQkV0GkeINbe5W3F1HIm0sWnTIRQCckg5/M1Dp2GmdhruuRaPZGRhvlbiOMdWNcfqcH2bRpLrUEU6nfcICoPlj+I898fl8oHSrOkrca5rcd/f4eBdxt1AIXIIBbFXfHFmz2VtdKCVhYq2OwbHP5gD8aF7rSDcb4W8RLJEmn3jgTLwjsf8AWe31/nUmqqdP8RWl8vCzZhfr+FcKQMYPrWhNrl3JpxsrgmXaQY5T95cHue9U6et0Cl3PSFYuATyK5DxD4eeF3vbOMtEcmRB/D7gen8q6zR7iG90+ORHV8gZx2NaJUAYxkVjFuLKdmeOEUYz16Gu81fwjDdl57JhBMeSh+4x/p/niuNvtNvNOk2XUDICeG/hP0PSuiMkzNoplex5B7mmbevPIGee9TYphGOOvpV3ER9G3Dt2rrtAlvIbK2CWgkt2kwJFcAqCeSR3xz+VZ2neHJL+0F1JKYYT90qm8tzg8ZrrNK0j+y4ZIRcNNGX3KCuNtY1JJqxcUy2uc/SrFty5zUTRFRkVJbnBOPWsUWy5jjisrxN/yLWo/9e7/AMq1FPFZniX/AJFrUv8Ar3f+VaQ+JGb2On08B7nUNhZctguMHB5OPbv+f583eXcpt7C0g0+O9kht1uYGJ/dvIFAVVOOvftx6da6XTXnkv7pGW48oKNrPGwXOOiknB/Bce/WrFlo8dva2sM375rXaY3wV5CBc4z9fWvVOM5u5Zvtc5kwG8xifbk1Hk560/UeLy9YH+Nz+prXW1t8f6iL/AL4FeY43kzrvZIyBTSVYc4Oa2/IhH3YYx9FFJBFEYI8xoTtHVR6UezDmOXn0PTJw261iBbqVG0/mKyrnwZayc288kR9GAYD+R/WvQRDF/wA8o/8AvkU8RRf88k/75FPla6hzHlcngu+Ujy7iB19TlT/WkufCN/b2oMDieVuJI1wOPYmvRtS2RyRgALkHoMVU3r6ipc2nYpanm8fhfV5ZAhtSmf4ndcD8qhvvDuqaerSSWzNGoyXjO4Y/nXpL39pCN0tzCiju7gCqF14o0aFSrXaSZ7IC38uKanLsFkeWfakxxuNaVkmlXUK+fqb205OMPCWUfiD/AIUmsf2TeyvJZ28sUrHORhVP4c/0rNjsVGN0pH4VuuVrsRqmdxYeH/D7gFtUW4fuFlVQfwHP602+ktLqWPw/oShY5Tm5mj5AQdfm7ntn6DvXIJZqZFREZ3PAGCST9K9G8M6G2l2ZkmGLibBcZ+6OwrGVo63uWtRJF/s3VNPijwtuYGREA6EYJ/T+Vbk0MV3bNFKoeN1wQe4qpqlk1ykDq4RoZN+SM5G0gj9f0qzZsTAueo4rG5XQ8x1nS5tIvXgcExk5ik/vj/GsuVsgKOpNes6xp0Oo2ZjmXBXlG/unHWvLBbNFKzsCV3FVbHBwe1dFOVyJItx3s1nKrWMskSp93nk+pI6c46V1GmeNhgR6jFyODLEP5r/hXHfTrSEZwckH1ocU9xXPX7e5gu4RLbypJG3Qqc0ssKTxNHNGroeCrAEGvJ7S+ubCTzLeZ4m7leh+orrNO8bcBL+H/tpF/UVk6bWxSYuqeDkJMuntsJ/5Yucj8D2/GsrTvC93c3ZS6je3hT75I5Psvr9a7m11Czv03W06ScZIB5H1HUVORuGKOeS0CyIVjRECIAqqMAAcAVEbbY5ki4Y9Qehq0Ux0prK1ZlFVbhV+WUbCeOTxUohw+5T8ppk0McyMksYZSMEEdqfC3lJsLFgOhPYUwZLggVm+ISW8N6iCP+XaT/0E1phgRkVneIOfDuo/9e0n/oJq47oh7HjvmPjG4/nTS7H+I/nRTT1r1DjPWdKwvhm2K4wLUf8AoNdiG4rjdJUv4atkH3jagD/vmurEykZ2ttIz0rz1uzqeyLSHvTYuEUewqJbhQDw1CyYAHsKoRZBpwNQq4NSKeKAOL+I9zJb2Np5UjIzy4JU4OMGvOJJ5Zv8AWSyPj+8xNev+KNPF/Z+SVQsyMEZxnaexrio/BFwcZu4x9FNJSS0ZVjktpHbH4U4Ljnp7kV3cPge1VQZbmZ277AFB/nWhB4Y02A5FqHPrIS36Hik6iGonncME05xBDJIf9lSf5Vt2HhPU7tgZFFtH3Z+v5D/61d3HD9mULFGoUdlUCpzKEXJOKzdXsVymdpXh2x0vDxoZJ8YMr8n8PStUsqDkiojNkdcVES0h2jk1m3caQTy+cu1Oh71NbRGOMA0sUATk8mp8UJA2QXMe+IqDisLRdHh/sg2F2iSgOxI+pJ/OujIyKoyRtbS+cgyvcU7tAjj9Y8I3FoWmst08XXZj51/xrmyCCQRhgcEGvYY3WVAwqhqWg2GpgmaELJjAlThv/r/jWkZ9yWjy1V3DPejyj/D1rq7nwfNDdIYZFkgyN2/hgO/Tg1iXenXls7GS0mjQcgkbgB/vDitFJMViiryRMGBZWB4IOMfj2rqbO+8SWTKkttJcIeAHG4/99D+ZzXMc455FXLGPUL//AEO1llZNuTH5hC478Zx3pNJgj0OzvJriDfPatbvnBRiD+PFWlkDCuQtm8QaWyq8P2i3GBjcDgfXqP5VuQanDMgZv3L+jHj86xehRqFVNQtAD0pySg8dxTmbGORQIrqjDhj37VU17nw9qI/6dpP8A0E1oFqztdONA1Ef9O0n/AKCaqO6B7Hjnam96dTe9eocR65onGiWIP/PBP5Vrm4do41j5YqDgdqyNFH/EisP+uCfyFadrKFggZsfMgz+VecviZ1vZDyJAPmbB9BVxDIijPzcVXc5NWYjlBxzVMlFhWB71Mp5FV9tPXJcfSgZHqfCxE+pqmgFXNV5hix6nmqMeQKyluUtiYUp46UzJoL7RmpKHck0hjVh8wzSCQHpSeYM/SkA02ye4/GpI0AHy0iyqxxmnh17GgNR1OApARThTAAKGUMMEcUvSjr0oApFWt5QV5U8YqyGyuR6USx70waRI2Vdp6UrA3ccoJUFsZxzjmgouOgo2t6DFBz9KYjNutEsLvJmtYyx6sBtP5jmq1loNtpl21xblwWXYQzZAGQf6VskjpSE+1PUCswYHkH8KryQW8jZkhRm68qKvk9c03C46UrDuViw65wakjYsvNOOxuwpOBxQAZJPtVHW13aFqAA620n/oJq6ck1U1bnR70f8ATvJ/6CaqO6E9jxik70UnevUOI9d0cgaHYdP9QnH4CtARBrGId/LX+VZukZGh6f8A9cE/9BFa8f8AqY1xnCivPj8TOt7IbbMduxjkY4NaNsMxj6n+ZrNZMNkZWr1g5+zAP97LfzNMRcA4xSqp+lIvI7U9QTigCvqWfs8eOxrPUn8a0NQ4gTnq1UAOPSsp7lLYlBxS8HrTRThUjAADoKQrz0qvNf20Enls5aT/AJ5xqXb8hVaTWCihvsUoU9DI6Jn8C3tVKEmJySNNVX0FJsXPTFZEevbiMQxHLY+WcE9M9wB+tWYtWRmxLbTR4GSQBIB1/uknse1N0pLdCVSL6mgqENnNSAVHFNHMm+KRXU9CpyKkBzU2sUPC5pcY6Y6imhsGlLdMdetNATrHGevP4mgxxKQME5PqafnAbPU/rUQC+Yck1pZEjzDFtJwcdfvGkNvC6Z2nH+8ajaKFmOUQ565UGmvEpUBNqEd9oPHpRoGpILSFVBwcdB8xNBhh/u4/E1Q8h43c8sR93bCuOuTj680CJvODHBKqMEwjIOO3480WQtS79mQAgj6cnNNa3jA+5+tUvLl2EbzkkniAdeKWG0ZZjLI8bllwf3IBxjpn8qdkF2T/AGdWwVQCkNvz90fnQY03D5F+UYHyjihcIgRAFUcBVGAKmyHqMa3ABH9ao6rAF0i7POfJcdf9k1eeq2oKW0+5X1jYf+OmiyA8NoxzSUor0TkPXNKydE08/wDTun/oIrXgG+JSPpWVpGf7HsumBAg/8dFb0SKbaIAY+QZx645rzl8TOt7IgYE4yKs20Y+ygDjlv5mjyxnufxqeEYjAPqf5mrJBUbaBuqZUJ+8xpQB1wKkA54osBU1PH2ePH96s5elaOqcwJ/vf0rNU4NZT3LjsSVS1GZ90VrG7RmUMzMvB2rjIB7E5HP1q7moLm3FwgG7a68qwGcduh6j2pRaT1CSutCvaWSvbDzFKI3PlKcAfX1NOSzSA/MyKqg7EWPgdyc9f1qFBd2zszRt833mi+ZT74PI+gzUouy0W6RYfMzyGDLx/wIZ9K0fNfRkK3UcLcRRqjXLM6twzIOcZPPb/APUKlWyhkQMyANghWVdhUHrj0J59+arpdkndJFCM5OFJY9sdB9c/hQjXU6jdvI6bVTywB7lue3YUe93DQkjjaG5BViWDAO2R86k45Hr3z7e+K0TyMdjWWZpbaWIPGrZbaArfLHxx16+lSfb2kiEkcb4x3Krg46c578VLTlqUtDRzxSLIHYqCCR1ANZ7NNNGQigMejEFx+GeO/XPapreKdZkY42gnqcED0xz7UuUdzXkz5ZxgMBkZqqousLnymP8AExyP896syN+7LAEn0qvFOzj/AFTLnr7VYhzGcjAEQ6c5J+vajE+Tlo8dsKf8aYZZtgzASxHQMKVpHEZIiO8D7u4c/j0oAcfMCnLJnI5AI4/OhRIEG5lJ74UgfzprO+OIyeowSKh+0T7iDbEAE4O8c9f8B+dAEwV1AG/OB3HWqwlZYiWmPDDgrzyen5kcVKZJiqlYuc/MCe3tTBvyCbdAx6nOcdP/AK/5U0xEEksZfMl0YzH8pPyjnp3zj9OoqaQbMHzHyfpRAGWNVZSG7ktnJ78/n2FRNNclmH2Zdo6Yl5P6cUNhYYYgWXazY+9jjBqOeNo7aUmQ4ZTle3T86tLnGWQKT2FQ3nNnL/u0nJjSPDacBlQR64psRVwxLqpHZj1o81VBGe/Negch67pWRpFn/wBcE6f7orctZN9up+o/WsHTXA0qzyf+WCf+gitWxcNaDnnc3/oRrzo/EzsexojmpgMAYqmJAO9WIJg5f2YD9BVkE4PFSK1RZFGfSgCPUj/oqn0f+hrMU1e1JibFhnBzwfSseFpQRukQr3wDn/OazktS1sXQaUGogw9aXcM9agolzRuxzVdY9p5mkI+tM8pVGFYk5ydzHn8qdkItlwOTwPX0pGkTbywA+tUY4XUruEJUgq4AJ4x2J68+tWVWMNu2rk+1FkAv7ic8Ybo3B/EH+VTIqKSQq7vXv+JqPcO1PRuOTSAlBpQcc1CZVXkkfjTWuYx/EOaBmkSChUjgjpVCNYjCv+jqoRcBS4OMY44+lON7CUO2RS3pnFVjdxDfsijLjoGYDNa3IsXYwGXHlFAR2b/Ck82VQQsBIzxl+tUzfYUmNI2bpjdjip/tOWXaUKnGST0pDsTvJIP+WWf+Bf59qZ5sxfAjULu+8W7Z/wAKjM8jcBIjzx8//wBb/P8AOUHco3EZ9jQA5mfHCA/N6449aAzHIKkenT29/r+VAcY6j86YWHJLAUARrJcH79sF46iQHn8hSb5iHJhAI+6C/wB7/CiSRtg8tkLf7R4xTPNk4JVM4HQ/nQAjSzhWJgUY/wCmmT/KmykyWrcEbl6Gl3zM3SLbn+8c4/Lr1psrHymzgHHShgj/2QD/4Qx3aHR0cDovL25zLmFkb2JlLmNvbS94YXAvMS4wLwA8P3hwYWNrZXQgYmVnaW49Iu+7vyIgaWQ9Ilc1TTBNcENlaGlIenJlU3pOVGN6a2M5ZCI/PiA8eDp4bXBtZXRhIHhtbG5zOng9ImFkb2JlOm5zOm1ldGEvIiB4OnhtcHRrPSJYTVAgQ29yZSA0LjQuMC1FeGl2MiI+IDxyZGY6UkRGIHhtbG5zOnJkZj0iaHR0cDovL3d3dy53My5vcmcvMTk5OS8wMi8yMi1yZGYtc3ludGF4LW5zIyI+IDxyZGY6RGVzY3JpcHRpb24gcmRmOmFib3V0PSIiIHhtbG5zOnhtcE1NPSJodHRwOi8vbnMuYWRvYmUuY29tL3hhcC8xLjAvbW0vIiB4bWxuczpzdEV2dD0iaHR0cDovL25zLmFkb2JlLmNvbS94YXAvMS4wL3NUeXBlL1Jlc291cmNlRXZlbnQjIiB4bWxuczpkYz0iaHR0cDovL3B1cmwub3JnL2RjL2VsZW1lbnRzLzEuMS8iIHhtbG5zOkdJTVA9Imh0dHA6Ly93d3cuZ2ltcC5vcmcveG1wLyIgeG1sbnM6eG1wPSJodHRwOi8vbnMuYWRvYmUuY29tL3hhcC8xLjAvIiB4bXBNTTpEb2N1bWVudElEPSJnaW1wOmRvY2lkOmdpbXA6OWZiM2ZmMWQtNTAyMy00Njc1LWJmOGMtYzcyNGVmZWIyNTk4IiB4bXBNTTpJbnN0YW5jZUlEPSJ4bXAuaWlkOmFkYmJiYmU3LTU3MzktNGE5Yy1iMjNmLTk4NTY4NDA4MThhOSIgeG1wTU06T3JpZ2luYWxEb2N1bWVudElEPSJ4bXAuZGlkOjdiMDY5ZGFhLTFjMjAtNDkwZC05ZTMwLTY5Y2FhOTQ3ZDY2ZiIgZGM6Rm9ybWF0PSJpbWFnZS9qcGVnIiBHSU1QOkFQST0iMi4wIiBHSU1QOlBsYXRmb3JtPSJMaW51eCIgR0lNUDpUaW1lU3RhbXA9IjE2NjUzNzA1NzA2ODI4MzgiIEdJTVA6VmVyc2lvbj0iMi4xMC4zMCIgeG1wOkNyZWF0b3JUb29sPSJHSU1QIDIuMTAiPiA8eG1wTU06SGlzdG9yeT4gPHJkZjpTZXE+IDxyZGY6bGkgc3RFdnQ6YWN0aW9uPSJzYXZlZCIgc3RFdnQ6Y2hhbmdlZD0iLyIgc3RFdnQ6aW5zdGFuY2VJRD0ieG1wLmlpZDpiODEwYzU2ZC00YmQ5LTQ0MTQtODNjZS02ZWIyMjRlZTViZmIiIHN0RXZ0OnNvZnR3YXJlQWdlbnQ9IkdpbXAgMi4xMCAoTGludXgpIiBzdEV2dDp3aGVuPSIyMDIyLTEwLTA5VDIzOjU2OjEwLTAzOjAwIi8+IDwvcmRmOlNlcT4gPC94bXBNTTpIaXN0b3J5PiA8L3JkZjpEZXNjcmlwdGlvbj4gPC9yZGY6UkRGPiA8L3g6eG1wbWV0YT4gICAgICAgICAgICAgICAgICAgICAgICAgICAgICAgICAgICAgICAgICAgICAgICAgICAgICAgICAgICAgICAgICAgICAgICAgICAgICAgICAgICAgICAgICAgICAgICAgICAgICAgICAgICAgICAgICAgICAgICAgICAgICAgICAgICAgICAgICAgICAgICAgICAgICAgICAgICAgICAgICAgICAgICAgICAgICAgICAgICAgICAgICAgICAgICAgICAgICAgICAgICAgICAgICAgICAgICAgICAgICAgICAgICAgICAgICAgICAgICAgICAgICAgICAgICAgICAgICAgICAgICAgICAgICAgICAgICAgICAgICAgICAgICAgICAgICAgICAgICAgICAgICAgICAgICAgICAgICAgICAgICAgICAgICAgICAgICAgICAgICAgICAgICAgICAgICAgICAgICAgICAgICAgICAgICAgICAgICAgICAgICAgICAgICAgICAgICAgICAgICAgICAgICAgICAgICAgICAgICAgICAgICAgICAgICAgICAgICAgICAgICAgICAgICAgICAgICAgICAgICAgICAgICAgICAgICAgICAgICAgICAgICAgICAgICAgICAgICAgICAgICAgICAgICAgICAgICAgICAgICAgICAgICAgICAgICAgICAgICAgICAgICAgICAgICAgICAgICAgICAgICAgICAgICAgICAgICAgICAgICAgICAgICAgICAgICAgICAgICAgICAgICAgICAgICAgICAgICAgICAgICAgICAgICAgICAgICAgICAgICAgICAgICAgICAgICAgICAgICAgICAgICAgICAgICAgICAgICAgICAgICAgICAgICAgICAgICAgICAgICAgICAgICAgICAgICAgICAgICAgICAgICAgICAgICAgICAgICAgICAgICAgICAgICAgICAgICAgICAgICAgICAgICAgICAgICAgICAgICAgICAgICAgICAgICAgICAgICAgICAgICAgICAgICAgICAgICAgICAgICAgICAgICAgICAgICAgICAgICAgICAgICAgICAgICAgICAgICAgICAgICAgICAgICAgICAgICAgICAgICAgICAgICAgICAgICAgICAgICAgICAgICAgICAgICAgICAgICAgICAgICAgICAgICAgICAgICAgICAgICAgICAgICAgICAgICAgICAgICAgICAgICAgICAgICAgICAgICAgICAgICAgICAgICAgICAgICAgICAgICAgICAgICAgICAgICAgICAgICAgICAgICAgICAgICAgICAgICAgICAgICAgICAgICAgICAgICAgICAgICAgICAgICAgICAgICAgICAgICAgICAgICAgICAgICAgICAgICAgICAgICAgICAgICAgICAgICAgICAgICAgICAgICAgICAgICAgICAgICAgICAgICAgICAgICAgICAgICAgICAgICAgICAgICAgICAgICAgICAgICAgICAgICAgICAgICAgICAgICAgICAgICAgICAgICAgICAgICAgICAgICAgICAgICAgICAgICAgICAgICAgICAgICAgICAgICAgICAgICAgICAgICAgICAgICAgICAgICAgICAgICAgICAgICAgICAgICAgICAgICAgICAgICAgICAgICAgICAgICAgICAgICAgICAgICAgICAgICAgICAgICAgICAgICAgICAgICAgICAgICAgICAgICAgICAgICAgICAgICAgICAgICAgICAgICAgICAgICAgICAgICAgICAgICAgICAgICAgICAgICAgICAgICAgICAgICAgICAgICAgICAgICAgICAgICAgICAgICAgICAgICAgICAgICAgICAgICAgICAgICAgICAgICAgICAgICAgICAgICAgICAgICAgICAgICAgICAgICAgICAgICAgICAgICAgICAgICAgICAgICAgICAgICAgICAgICAgICAgICAgICAgICAgICAgICAgICAgICAgICAgICAgICAgICAgICAgICAgICAgICAgICAgICAgICAgICAgICAgICAgICAgICAgICAgICAgICAgICAgICAgICAgICAgICAgICAgICAgICAgICAgICAgICAgICAgICAgICAgICAgICAgICAgICAgICAgICAgICAgICAgICAgICAgICAgICAgICAgICAgICAgICAgICAgICAgICAgICAgICAgICAgICAgICAgICAgICAgICAgICAgICAgICAgICAgICAgICAgICAgICAgICAgICAgICAgICAgICAgICAgICAgICAgICAgICAgICAgICAgICAgICAgICAgICAgICAgICAgICAgICAgICAgICAgICAgICAgICAgICAgICAgICAgICAgICAgICAgICAgICAgICAgICAgICAgICAgICAgICAgICAgICAgICAgICAgICAgICAgICAgICAgICAgICAgICAgICAgICAgICAgICAgICAgICAgICAgICAgICAgICAgICAgICAgICAgICAgICAgICAgICAgICAgICAgICAgICAgICAgICAgICAgICAgICAgICAgICAgICAgICAgICAgICAgICAgICAgICAgICAgICAgICAgICA8P3hwYWNrZXQgZW5kPSJ3Ij8+/+ICsElDQ19QUk9GSUxFAAEBAAACoGxjbXMEMAAAbW50clJHQiBYWVogB+YACgAKAAIANwAlYWNzcEFQUEwAAAAAAAAAAAAAAAAAAAAAAAAAAAAAAAAAAPbWAAEAAAAA0y1sY21zAAAAAAAAAAAAAAAAAAAAAAAAAAAAAAAAAAAAAAAAAAAAAAAAAAAAAAAAAAAAAAANZGVzYwAAASAAAABAY3BydAAAAWAAAAA2d3RwdAAAAZgAAAAUY2hhZAAAAawAAAAsclhZWgAAAdgAAAAUYlhZWgAAAewAAAAUZ1hZWgAAAgAAAAAUclRSQwAAAhQAAAAgZ1RSQwAAAhQAAAAgYlRSQwAAAhQAAAAgY2hybQAAAjQAAAAkZG1uZAAAAlgAAAAkZG1kZAAAAnwAAAAkbWx1YwAAAAAAAAABAAAADGVuVVMAAAAkAAAAHABHAEkATQBQACAAYgB1AGkAbAB0AC0AaQBuACAAcwBSAEcAQm1sdWMAAAAAAAAAAQAAAAxlblVTAAAAGgAAABwAUAB1AGIAbABpAGMAIABEAG8AbQBhAGkAbgAAWFlaIAAAAAAAAPbWAAEAAAAA0y1zZjMyAAAAAAABDEIAAAXe///zJQAAB5MAAP2Q///7of///aIAAAPcAADAblhZWiAAAAAAAABvoAAAOPUAAAOQWFlaIAAAAAAAACSfAAAPhAAAtsRYWVogAAAAAAAAYpcAALeHAAAY2XBhcmEAAAAAAAMAAAACZmYAAPKnAAANWQAAE9AAAApbY2hybQAAAAAAAwAAAACj1wAAVHwAAEzNAACZmgAAJmcAAA9cbWx1YwAAAAAAAAABAAAADGVuVVMAAAAIAAAAHABHAEkATQBQbWx1YwAAAAAAAAABAAAADGVuVVMAAAAIAAAAHABzAFIARwBC/9sAQwADAgIDAgIDAwMDBAMDBAUIBQUEBAUKBwcGCAwKDAwLCgsLDQ4SEA0OEQ4LCxAWEBETFBUVFQwPFxgWFBgSFBUU/9sAQwEDBAQFBAUJBQUJFA0LDRQUFBQUFBQUFBQUFBQUFBQUFBQUFBQUFBQUFBQUFBQUFBQUFBQUFBQUFBQUFBQUFBQU//4AGkdlbmVyYXRlZCBieSBGU0kgU2VydmVyAP/CABEIAgACAAMBEQACEQEDEQH/xAAcAAACAgMBAQAAAAAAAAAAAAABAgADBAUGBwj/xAAaAQEBAQEBAQEAAAAAAAAAAAAAAQIDBAUG/9oADAMBAAIQAxAAAAH5lCKCvbvh/T2nO2ACWxcXJUrBLYtp4aWWEol11u8ZtCQBAkiDAIPQAMAgwBUAgqwSRFAAUAgTnPTwsms/Irdjcsy8a5D08vDvr+GAha+gfg/T2ErjQw49NIVJYEJIIIcorzfuzo7fi2ISJLTEJCgHpgFUqoVusKBYgUCCoBYShEFU0DC6c69BFZVrKazs+PXlfRjnfq+LzP389x8H7ep9vzPffie7Z5MpHGHGGQrYEWGjHXyP0zrebcZbPN8h9eec3noueu15Oy46zUIRyCkKq4/dozq5On5ULnb53WKAggogBIVYCiQJCgSK6yEJxHr5cZ9bw8v5vNT9jttPlfQ9k+P12splg4SIyujK8AEphF4bq819PNLLT2TydPGPZzp0aTZ5voHl6dpx1n3NlhGJXnnR1/m6ZW82azxm3WcNizYbwqhCiKoohWsgAASmQ2rASlVLE4f1cvNPr+HTcPqZVo9vxvdPzX19tlFqi2rEYiuOklkLKssWuXmOs8q9vDC0uiw2Ga9anWWXIk2/PXf+ffX8rmWE4nq6Tz7as/WOE6up83S3WdhrEpINoQCCy1CBIVD2MpRQirQkOK9XLyH6/h6X4Xu4/wDQeK7zY95+P9TcZpUJTLlWNK1jQwVkVZ0qyUjJh7nk/t5ch35vnWfi9/59+ae7jVZdGXjWJZdL3fn36L5t7iOX26XlbtThejpPP0zd4y9ZWAMKosQWEVCCihRqhABqmKjifVy8Y+v4dp6Pfufz3iw/0PL2P819Xa4rCiZtlPVkOklcgsLNLKS6y2xjkurme2OT789FuY+809M2YoppbM1s011vDfpfl31vOk4Leus43YbwaERALSyhFVRQIqoQYaxjDmsy5UqXhPVx8S+x4Nl6fLsPhfYb6nyPZ/g/b2mNERa8rS6oNDjoVAQyktssGAEWXDrzzvPKPf58frggsMRbOer8bW563hv2Dx9eMvTv+U2GsBAAAFAEVVStaRVojJscsJZWtiKQ4D1cvGPreIkFPoP4f0NvjRK5axi4YaCNTwRhgjFgwwQBEOU3fK/Xy0HbGPqJc07yBpqzNeXN53tPH6fW/Pc3WIQUKKBQAQxjGmnQGRZfUCiEEGOF9XLxL6/hMEEvv/xfobnnoiLBoYI48EYg4QjFgwQBh6AhTm8b3x5v6uej64y861tEp1JqNLdm+xeHt6BxsFFCJGPaYtsUpjFarim3baxakUIACBOK9XLw76/hMSWWe+fE+jveeoKSLArBocIRhgjkHHIEhCRyvbPkft45PHrtuW21MTThfZwSjEuWltzb833353focsSXl+jndMcNklVe/wCFtjzXvevk62ZkkSCqEUpW1OL9XLw76/iiHNh7z8b39Dy2FWQLaMAeBTjQ4RhiDhGIApmuN7Y8V+jwyca1fXEBqNLZKqbvnrs/L02vLfAevlo+3P1zw9ree9Bt1vO9XyuTcqVroZvzjvNvx3znq5e2+dYggCksVRIg1cV6uXiH1vFLDLE95+N9DoOOyAMQKvBJTwQjjDAJLbZARzbfnXr58P6+Ci2LRUxKeN5z19BfM75EGqTxb6XHGzfa/B1zpGoEKijN1+d+M+zNOp7V52wxELKACARQBri/Vy8P+t4YsInvPxfodDy2wyBa4aWyjAHGDDD1ASsOYcvDds+Ze7jrumBaYaGlhkZuNvIOw4dfb/n9ciyAjBt8w9WPXPLqyxYlKUZuga829M432cPZvF07fjaYUaoABEqAW1xPr4+IfV8cskCvd/ifQ6HltxyQAywgRwlgSSkri2zRa14x7+Gm65lhgFkGWxVRKBky+i+Pr6j5tMAayL5l6J3/AJ7npjnMbvO7a1qzN1u2r9Hn918HbNZoVbGIEBQYq5VyxxPq4+JfW8UWJD3j430N/wANke1kKiJAIONDqyECg4jrPJPdxx95lGIWSyF1Lc1bFUx33k7ZEYepg7ips8663ldvy3y/fHonm1zW7qMdNxhnJ5/6JXrPqvBk3IqorCRIIpsKQBwnr5eKfV8UqCnvPxfob7jtlYZHiQFISDAlsGAebd8+Ye3itSoNECLYtPDyvLZAIV6jS5GdV2Y2s9By1sMa9G8nTpOdrMeXzf0Wm59X87I1HsQrhaBEKoBDSxK4n18fEfreKQQV7t8X6G+4bemHhiKQwwTElyRhzzvvPMPZxQTUixFpjac9a3eXSyWSwawzUsostlA8NL6p4e3Z8NeY+rPV8ru+V8w9Uc9W8zJsalAlYSUpXBqAQErivXx8S+t4oSBXvPxfobvj0aQjDQ4wFsAEkpOT6TyD3cVVEc6bnvo+V3fHdWdeY+7hrdwWLqCwEVoFWQ0rQZe+8vX1Hy6hRL4T78aT08O88Xf1zy6ssiywCkQVBTGleyxFFBZxXs5eKfU8RJUPdvi/Q3PHbwwZYWjENdprtQyw1mnmPr5Re58nXoOWt7i4eprNOc6Z4z1c0saGVQpVqEhCrWWOg479C83TtuNCpFMvl/bXKezz9Vyej+Trham4xb7FDYSUpBSIooCuuK9fDxb63jsIIe5fF+hvOG3LRgQwVI5pNub243tnWakN9z0hrN5FVyuSAtgQCpKAQyiWWW12/C+icNZkIUxo5vyv2Yx941fflbjQrM53tfP09F43JuYCkg0AC0JFEOG9nHxr6vjKGhHunxvobrhu2rIgJSEgFeLAnJ9Z5h6c9Hx3yPfmbFGV4MFYNEF1AQg0MqCIKyj2vwdNtm4k15D6863edf25guzqxK9SRveHT1vzXYpKgBUAoooK8/8AXx4b6/iw83bGFqerfE9+249LQxIallSVi0aAXVYmHbxfR5t6eZGpRLHCpEsIINMhzqCWNAUCWbHN9e+d34v0TA1nkvb51lulszoFO+bq2NdT5unrfnt9hsARKQWFBXBerj5R9fx7CXoNZSPQPi+/ccelqTNNNFTVeaVaLBS6ywIpyvXPL9ZzPXOOrBSUgQ0EABbFLCKISqtSrWcjNxOmOi8nbC6Zp3LpoJRF1ldiLbi+o+Lv2nOW6jJBaUUEht4T18fJfq+SHu+s+EHsnxff0HDo4YYJxveatdzy1sueszFRUjIsuq0ZGAajtjlek5TrMGyVBbDDBlXUkRQi0KqTpePSTfI+zybbh1xN5FEgZa6sJBTIxru/L19D4r9ZYWlRVQKcL6uXhn2fDsTuDlz1z4n0N/w6SWxGGCvH9s+dejGDUXJzbYyM3Z5uyxc7N3/Heyzc25yLCnP9Jy3Wc30mk1BTytFG8GUi0plS9Pw31Pn6+O/T8uy56tSqaxt4SyncthVaVUslsyyc69H8nTt8y5BSAFQrw3q5eEfZ8GxOljS17D8P6G64dbi1CpCNJi6eQerOo3FK9RolAaXIze38nbrfPvZ3OZc2WEgDXaa/TXamFWVk8uRm7bFys1JfGPp+fJ5a6fl08z9vDdct4es4u84/TLQCqrpSNlfjWZjXs3j6ba4NKKQicT6ufgv2fng95Xxs9h+H9HoeHS0thtSSsjyuiV5f6Zx/WKlXTL5qaluaIWs3nvuPJ17HjrY3ORYUIRiCglBCFUvnvpx5V9Hz+yfD9/R6x4L9TzisrAVidMGUUli2WZpW3GsjF67jv1HgusAADVxXp5eB/Z8GwOzjl69b+H9DpeHSLaMkV0tDBJbx3XPmfozi0lkqWV08PKptOW+08vXsOOthcX2MMQkAlJLRL516seX/AE/Jl8entHxfb0e8eaevHnfr5GzKxa9QlNl0V1VTypqbDh1ty9k8fTdsGgQJxvp5+A/a+fknQRiV618T6HTefoaErIxYMtkhoQVxNTz7vnh+0pqEGE1HiSvGy5b7zy9OtxcxmywQ1KLLTL532ebfT8nS+P0aDvz3GHs3z+2Svi/t56DthbCBK95vzpCuyyVpXLueu38/T0rlCQVDXI+nn4D9r5xPa18tPW/i+/p/P1cIw0MOMGWECKYFec+nPIdMxUsYYrKumb8gudz10vHfb8NbnnbLGK5eC7XgPZx7ry75XtNR1502Z0vrvh67flrzr1Z4f088bebM1bk6IirZHS8N9Fw6bXlvc4uy3zvsA1kOR9PPwn7XzrV7E0R6p8T6HR8Otkkq0YkNKw4SAHzVqGq1OB9GeN6wK0JZXqLc5WdU6kIbDnrfctdBy1p9Xj/Vyz5PaPl+rxz38dH35WFVMej+Tp3fl6YWp5j7Mcn6OQGK7HJXb+Pt3ni7yHsz94yNZclgOP8ATz4f7Pg4KzYlh618X6HRefrbIbXGRokrjBIKNEUkGMSzi+05PrNDuClsTUzsVpQiqlldWHTefo+s+o+Dtxt6+Y/U8K08tdyxt+evSPJ16nlryT18+W74o3lbCRbs32n5fqfNZMzec7fOAEOM9XLivseHhLPYTzU9W+L9Dp/P1ccaGRhlkMUyouSy4VhAhCCWqzl+s5rrnQbms6ZqLCS0amx567LzddR1x3/k6YWh4d+I93n5f08TBSvcgLOj4dOj474jvijUx9yJBs69c+f6NzzoRrNhvDWEhxfq5cD9fw81qdcvOp6n8X6HUefo6sEaHQqYIkuFnevmuh3ysIYlZWTUYhAqEgFwtSizLzdB1zra0W3R8r03Dr5N68+meHpot68w+n40Qo0JqSlsQeWDSpQIvpXi7dT59sCzYb522MQ4X18uM+v4eHsyFqPZPi+/rvP1cMMGmgkiwYEvN47UV0l5a/c02rteWt2w6gdCAqL6YEShJo7rxz6HD3D5noyDyH1PQvLvZScX6cec+vi0iUViSksUlklr1LsbMex/M9OUMjVn752WEK8D6+PFfX8PIWesnBHpfxfodZ5+rFgYgDTaanTW6avU1upi6YVi1mS0slVlyDq+Ou44a3eTJBwVINY0vjnv4tL0nn6d/wALxe967U7bhZL5p7uPMduYFsilE1BCaSIFej83X0bw9rdSxJWfrF9kprPPvVx4X6/h1h0tc0vq/wAX39T5+tgSDRXL5R6c830ywA1VUSAp4dXyigWzac9dZyvV8rus17CUZvjftx2PDXA+jOr6Z9S8fTpfP08r9mPTfF1yEGp5p7ePNdMpYQksrpQpXRl6Hj03vDfX+fdlirtOnKymQ1576uU+v4eiq8KN8b35Pm7OFJKRY4Ts8+74KsLVaMiUarRy/NCwWyAFM2XpeV6XlrSauJvPqHj6eAfR5RFs7HhvGmvRPJ03LL2TU8+7zg++KrAGoV2GAIbrnr1bwegEGs2G8W2OROB9fLsPr+H0PTk5Owrhvi+7B83dwkGjEXyL1Y1WoSEEqELZVRNRNTJxpSJTqNKKkhXqeHXV9+XpHh7dVh4568c70zLAY/TPqfg9Hfco2osqRrtOB754zviBAJZ0nHXoPj77EA9mPLWZus33L0ycJ6+XTfW8Pc6cxJyp1Px/fhebtINNDAK10G2q1NHtod5pslEuzaNQIlDUfFCsCzOxd9z11HLXMdp0/Dd2XXZzp93xX2cqbHMTpncct7LF9G8+ujxYgVY1m3nPfHNdILLpfZ/F0tmtfm2VlWW3OHndms5VyR7OK9XLpPr+H0TTyeOUPS/j+7E83Z4FPBEli2IFIsYWpgabPF5frnX6mbBXke+OW9XAS7TGuv8AL16bjvaZvK9s6zePTvF24Hrr0Xni2zh+08u9XMJjdc7bh0osWzouO/SeG97goxWc/ucZ2z3Pn3tM2BKV12a+pstZiPQgVx/q49Z9jw9nXGR0Fmn+N79T5+3Rd+T06MuMZKRWh0YEui8vZgkHGKZryn2c+D+j5MHecjnvJ5aszrZ8unuPzu+QnnvbXa8Jsd4Evmfpz517OGXjV2NCwCalmddRx13vDW/ygiGseUqJYilZrlvs2mswiE4308uh+x4fQNMssOE+P7tJ5+vZeni9LBrGjMlCMEaK5eU8nosCYdYe5qdzSbnP6avphkepDzXrni69Dg5rM7ql2++QXCzrxD6XBIUIElCgPm7znrt+N6jFZHJKgaqlpIBAuRcvUOR9PLxf6/hgiLb7B8j3dFw69l6eD0IsMWMkIwwTHxrwPetFvOJooSDRZK0Eh0vLfpPm3t8mskupx0Fm23zhrMb839fPseO/NfVywNSyEsFESgl2dZGb03K9jz1vsoj0BEEuOtM0iXXORXI+nl4n9fwylQHs3yPfv+HXsPTwIxcYxfBIEcpxr5q7tbqNnTEHDBjZ5vRct9nyu/51wJQ1hY0i7HeMi5hi51y7p115JXm/fPF9sCol4gxVSnWcdVL0XK9Zy22pey9ChIi0Q1NZyvo5+IfY8AlFinsnyPdvuHbsvRxNhlvsx4sV0KsOlGdeO8+nAernZm5MbXGtnjW5563nPW4kvsIUrmqc2iaFZ+sX3JIVrqMdMmzZ75A1lcB2nLdYZHMfSSRcqGNpz12vLW8xa7Mix7JKtKKA5b0cvD/seCCgPZPke/pfP133p4trIqyGzp4sqwsSwK8T4/RjamRGzhivOmpYqzq+KKYJSWVmXFuoQoFkVS6fPXY6xna5kBr15vV5nrnR7ziWChHV89bPN1Nu483XdXOz1jIsYrJShOU9HLxL7HgghD2X4/v6nz9dn6uNdlMCXMmsxLbHLbHLTl/J6IlpYNEIsEzYVVRKq5CX3NlSGDZFKEql1mOuXrGVrEFDQhTSavP7zotO34622apirhm0ZSrasQApjlPRy8Q+v4ZYhD2f4/v6fz9rO/JbMrpgS5udTOsi5uq1GMmzlfJ6HS0YMNSQquFCQAi2kIOjVAkiFC67HTYb5sgq2DSAFK4pUS1lYAkBZlWVhHrmfRy8L+x4QikPZ/ke/pfN2Pp47XeBZj41mS3q4JbklmxrkfH3NZKMQMEhCEGCQishowSUxBRTDzqGRcsSmpIIA1XChKiEK5ZY1KLD1znfl4R9nwRQgPZ/ke/pvL1T18cqsm5TNvzrLS6pKpfZnWcp5PREsHApK5RFliEEzrI1kjD2MEamhSDVCokEIKgoBYFCBSwQFdSJSBIQ57vy8H+z4IAke1fJ9/RebsfTwrV12Os25Zw6siSuZmpzXl7VS2yWDBpZQNYAQVeyvOpS5t2sW01EYlSn3iwSV7CKFMeVByyxFplssACqWmHpIUFVy6Drz8H+x4IqpD2n5Hv6Lzdsn18GucTn0z0ytTPh6YEWF2pznk705WFtQYJCEAEsFWIwRqJZToKWzL64sshRLfYgRqICuFpgAipac2yxRaBVEXmtT5++t4AAh7R8f6HQ+frmevhdrGNjdfPefqbi5gw1Qc0Xl7UwxYMMEilJUCkgrBqIQjD2NSWZnbBMXGmsosQeXC3nT2Z1VKZEqqsI3GLsZaoculrKpWrn9Z+fPr+CAIe0/I9/QebtmerhZvBlpxts63Ws2FqQsssXnPL2rHGhqMMYPXnpPRwxumdZ25UaxmS28+m549dt5++x5dCMAI9JZn9+cKZp2RLJQQxtTGRlYpsJk5tgioCABKrWNHrPzv8AX8MSBPbPke/eebtmenjfvDlEt2dZxJbIt1HTN1OZ8varNemgjHN+3y4HTnsOXXC1nMTCXY5PpOe6evLZcO244d1DBpgamy788YwltyvqrUqsszVpoSrcXH65sxcHrm/nquzA6Zz+WlXF3nHpdSnhv58+v4CQJ7V8j377zdsj0cs/pzWxM6yZc+yFiulpacx5e1U1YjkDZwn0PFvvP233m9FGs4mpmZ1j1kZZEut68jrO04d4EhjbmTGx7c66xM0agVy+AGEltEoRDT+jm+NU6jRtOW8DUiIt2NaWz56+z86BIe2fH+h0Pn67D0cr94gVsjNphkccuOW83arNsHAQ5X2+RdTa8OuXz6NmmoYPbjEJs+fW7G6rErXdcrrOz576LWac1JbLEgKRYBCKthMaoJZiamfz0SkrGWGkPnj7XzYME9p+P9DpPP12np5ZO8SIrGQWU0llNBOc83bGzXLCBAaf0cMbeKqazH3jJ59LYzMbt4d9F6udvXFnHeRm5Ul+dZUbnpjFXUVscqd5rWzGpF5jamEtkZFlVNApYypdJvLxm5t2dQ1h85fb+aR4Fe0/G+j0PDpsvTzzN8yGW0sh6JYOjxzvn64udOEIRgEIOAJCtVjG6Zssy8V5WAW2ZnfFVayJZZLfmvLbZBJVFsJJUsYAloyUaytUjBl+bvufMIw57R8f6G98/W7vjb9eTjxesIOMOlhz/m7YmbYQIxAgIAIgyU6UVsMUjhCQNZnfmK0dmULLnYuDvKy5NlE1XDmYUDjRptTIquMnNwdyGTmzGvmv7nzCMWR7N8j6G74dbO3Pa9cWJYPLl2QkFQWHPcumjrOwy+eiElavpjIloHs125nctZWdXFwZQW2GGAKZvfArBzbKQuyZRY5XADK9jFSgBTrJAIJDTWPHzH975myyxBNPbfi/Q3fDq3XO768isK026MFYCJWk4ddSZGWRKVkhGIqFNhoRkhlBBixFlqAUzV/fC3OCoCVGylXWACtjm2gDKqKVy4u81jlRbY01Ti//xAAyEAABAwMDAwMCBgIDAQEAAAABAAIDBAURBhASEyAhFDE1IkEVIyUwMjMWNAckQhdA/9oACAEBAAEFAuIXELiEGZVJQgUopWL0zF6SNCjiXpmBNha1cV0g1CEFenCECEIC4LguC6aqCIo7ZK+qpvC4rC4riuKwuKxtxWAvtxWFhYWFhYRasLCwsItWEQsLCwgFhR32mld+NU4ayvgcmXCnkAqoivVQcWHktW/C5WVlZwKQ5gCwsLCwgNsIfsVEXWiqI6/TsVFquN6p62GqaDnux4245WNiQuo1NfvhY7PftxsNjRsQoYihQQMQpYg1ttjCltbZW00PpoNYn9Er9MUNNpziOJoYvSGMcKT/AFxsB2+43ysqVwYwX2obVQ6pp3CK/wBFIepT1sd7tBt1Q13F1Nfq2mVHquF6hqoqkZWV5X2RCCqJ46aL8cmq0Ki6ZF2ijc2Nj2eQWOz3Y7B7Y7cYT0MYbkHbWfwtVSWtlmcyHocY+l0qT0NF/rfuBOV4sInRaWk5Cp5ujOJKXUFDURGCfO1HWzULqDUkc7mVAKDwezCrW/iOo8fTCMCWJk8ds5224ub4i8H9g9ud/vhPPFA+FrL4WZ9GaA8OnmHocofT2/8A1NnBDcbDclct7rZWV4nhkpZMpkronSzPqX0dqqLg2rs1XQsC91DWz0ibqOtYabU0TWw1Mc45bXOP8Puxwo3Y2vTRHenO8w/sEbE434r23J8ojK9ttY/DOmYYJblROtWRx6jeja/NFsQsuDhuP2MKst0Nwhu2nJrcsoOVJVSUc8OrMiUxNeJguoMNnZTsP1KColpHUOsHsVBdaeva5rZWU9qqqGQQBYV2b1r/AI5KIbFfb33z3DyiM7AYG5C++sfhy/w6U+m9a8WvrSegtY/6HYO7CwiNgEGoNRap9MUMz67Rv01GnLlToh7XPhwG4C5Bclzwuo0r/wAskLTQ6nrKM2zUlLcEHZCbKKrUjGpo7j3ZRO487F/5iIWMLWXw6dV5hN4Jovxt34fbPjtigvuj2HfGw3xthVFJFUtuumYY4nt7QSDyBR8r3Vq1FUW8227U9yjtz8XaHz+2VyTvCje9D2Hk7cBy2+2sB+j7YRHi1n9N2KGwPYPHaO3O5blXOwU9wVTputilloZaZdFOj4jkFlNcWHkMgqCeSnksdR1bjAPH7JTvf7klN92e47vYax+F7LT8bsUFjO4/YH7B8oNwq7VFvp5K28UdS6mtNXVqosVXSgRtRYCnRkgeV/FNctOXxtUzsyi7CdUxtTZ2PWc7FOeI0ZmmKBzpkzwB2lNWsh+idlnP6Yj/APkzteNQ09pFTcrlf5IdOtjbHU2egUmsDyk1ZLJE95e5ckTzHni3yGSmJ1kuP4jREqSoZE2p1PSQKTVE9Qeleq1f49XvX4FcYFHe6q3TU1cypjmmDGXG8Pkdp2CWooI2tjRx3Epi1j8L2Wb47YoIdhICHeOz7OkDVfNQC3Rc+cj7hUFnvtjYDwASrfZ6i4vodGP6k2j41cbJVW1cy9ujPFvuuoHF8ViuFyNJpSkhUVLHC3isIhXChjq4bVI+3197rCrNbTdKxh6Lc9udimLWPwvZZfjdsLGw3Iz+wN8quvEFIrhql8ic50km2FxWFwQ+k2e1uu1TBAyCPZzA4ars3pquySzV7qWiipIgOwolVEga11W2S6xtnu9ZbrdFbIJHc0P2GLWfwnZZvFvyhv8AfvG+UNqipbAyXVlOG1tW6tqPvvxXFcvo20zcYqCojdkb1EDZlQQNs+pgsrKyi5Oequ5w0ra67TXYulwzSdD6Cnzt9tsI7F3k+7FrT4XstBLqDPZjfOw7h75wLldorfHcbrNcpNsLAWF7IHspaWWtmtGlcOGFlZQKK1ZD0DRTipplLM2FtRqSjp1Jqx8qfUXauUOnlc6mKBlJpyprTFFxZ9j2lStcWwRPYnNyIxha2+F3xk2kYodsr37s92eKvOom0anqJKqTbO2AFnYHdmHOg1BBRJ2rZV/lVXg6kr3IajuDXR6tq2qi1TSVAucLa+36Sr+dLyV0s8dyfDYooDHQxrpMiF3vOXWSx9dzYw1YRR7cZ3KafOuPhuyzn9O/cGxOFfNQcUTk7jsysryUGgLKznZ6HhBZC8lU9bWVCntNZZJLTd2XKDY8Y1eL3zNksvqHMaGDY9+VlFN99c/Ddlo+OHZnud1fUIbaju5jRWEVjbKY10jha6rHFy6eF4WVnfK90G4WF9uK0xbhDTyMDhcrZJbJ7Veoq+KadsQu98dUKzWN05jj4Dc9rnYTTybtnKHvrn4fstIxbhtlZ2HYT4+217vQoWOcZHrGUyJ0r6XTFbUKDR0TTHYbfTKuucFtirbhLXybZysrK5LksZWcIeUXoeFYrEaggY2ewOFxpn0lQ6rketNWyKqcyMNH7PTJEbXBvZrj4ZYWFhWo5to3Kac9lbcobev8joV/kVCv8ioVX6khED3OkexjpHwaZCp7LQwISRwh95pmKTUVK1V2oXyNcHuPAroldFdALosToGroAoQrpFcC3ahsNZWC1aajo9ynHC1K6NhmtXC3aOqgjcImEXymc5s7HjK91jHaO0rW3wiHttZvjNgNh47ai0UU6n0vGVUWyqpxhEKw0zaiur6+Y1hqpSnvdIdx75GRgojbksByC9l/JfaCQ08tJqt7DTVkdXCspxVwrG0lPTs/EKu41Xq5qeV9M/g6RFmFDVSwK3ahPOKVso/actZ/B4WDsPe0DFtHdlckX+R53uen46tTQuppbS0RUOxc3IwdjnYHfKzlEL+K90QuW9JXzUM1tuUVxpypXhoulW+611Y4RH74GYnfU5uNvBVBdZaN1HVsqov2tZ/E22B/4RRzTRingiqG1UNtZUWwh1D2BFAoHys+eXnaqpIq2O808NrtnhcdiMrgsFZevqK8rJXNqyxxAdtnI/ksBceJ45XurdWm3Vb7swNv16bwpALTRvZISxywnMGMhzU3xtaLh6ORknIdx31n8RFWPjbHJUVSs9srqymqXVBqLZn8PGxQ2d42ysrK++VlZUjWzMqNNUkqqNMVMSmppaYrCwV5XlHbk5ElcQVwRagiHIcwi7CLnZy9MrKkshl5VU8xnkJ8e7vuPdzcL3TgvKD/ABYroahjXgjKOx7dZ/Ddan6IrAIv+OqjqUddORV2L4jtvFXX0UsWqQVFfKSYsrad6yUZeK9T5bOHJrwVzXNckQ2QTaeoZ1VaUkYqmiqaLbCyvdDK917IgLlt4WWgkuxklWCkklrb905q1wbBVF3hz8nKDkCmHxni7JQ8ogKB8kM1rvT3StdlZ79Y/DKlq204sl/ntFNX1UQrrHh1qzhZ8jsuGm4alVdDNQyeyDQvUSptbOELrVtUeoqhiZqdM1LTFQVkdVGyTKa9A5RGVU2CiqVPpIhT2Oup08GNyBWUcF3LbwuWFDSz1Ro9NTyOrJIrRby9z31VCKSnttF618kBhe5iP8QUE4ZdlecoFeMWK4OqIWHt9ttYfDKkoZa40VuqaikuNM43CxjjaUDv99qmkirYrjapLbLhDKONuWNgoKh9NJRX1rlHUhwbJlB2ewtD0+2Ukqfp6gcn6WpHL/Eogv8AFKRDTNGCNPUQTKGCJvDCK1DcPV1lhtfqZNS0OaCKR0MlXIJ3lOH0p38ifCCPs1cvFJVOpKijqW1MP27dXDNl2/4zP5d1+TsB/SB4/YkjbKy5aflpU5eyLQV528r32p66WkNHf45VDUBwbJle/eVjclX3UTYmxfmS0cnpI6iP1dJLGYJRJwTXeHeQneQFgoeFnK9k0rC09WdKeNxIWOzVx/RFRzwwOsN+ksdNc5WG5WDzaQvv+xc9PR1SmgkppFxWSsIlcsIeUAqW4T0Sor7HM6KpDg2TKz2nd8gaL5qERAQvfHbniOsoYeqcZWp7YcjKDuJ5ZRQaXMBXsS3js4LplrwVktNurhV0589urBmyKGmkqDSUNRUUdxoqj8Q0+0stXaF7dtRRw1cdfpd8afG6J23LCwE5gQenSBA/TR3OakNJfIJUyVB22Vnd78K+3fpKKF9ZU3ICBOZyFpvEttkpaqOrikibKy7Wp1umxkEkLK8taE7yF7L7ZWcIeRpp7g5vkHb7rVXwayv+Mz+fe/mdOfDbDcd5VXb4K5lfpqanRBavdccEN2d7fxR9uoFDVSwKj1JJCaS801UOoEHLKc/CvN7EAkYYYNM2/oQ3Q/qHLCc3Ioq6ajdaLxHcYpomTtuemywzwyU7/vnb3GwVBY31kLNOU4ay00sajGBG/t1V8IymllZSyQxP09fvwFXOelluNhx+EjuHcN6y209cK7TE8Acwxu2IRTThfyRY0ngV9WYLhUQqm1VJGmarpnq5aiBjo5qdssX67d4mBkd2o309af4p7VHI6M2rUzZEMSCtt8VdDX6cnpFgLl5zt9gtPVp5fYIeCw57dWO/RLTAH2OOGSd0dPK+jrLdVurLA1zLVx3G478dlRSQ1barSgKqLHW045L3RC+prmv5NwVxKPlecYwqelfXy3Cjhs9uitpsdRnDLzTddj2cXDy0eQRhDi9W+6T22Sh1FT1Z/kr7a/SVJanBe2wUTnMfC8Sx42jPbq8n8GtbWOtbhh3/ABv9dffQPxvTnw/efGxkQnGf2ZYY5W1OmKOdTaSmapLJXMVRQ1FMW1C6gKLwAHc3U9tlqHU9XQ2eClqHXS/XOlFTQWiv9VRXD2vNCIkEF93sOQeQxlUl8rKRHUVLXQyhrJPdOb4+yBVuro62PC9k33G499ZfC2msijpaY04msF+i0/PcqmCpuOnS02r9jCEYzUU/imqyCxwe3aCqiqT+xxUlupZV+D0IUdFBEK/TdPXT/wCJQBXe3U1qo9PWsUtJUNyy3yelu0kfVjlo+qySJ0Ey9tuK/kvLV9/5DJX2b7EeFZrc+jHLbP1DcLWbv0ez1HStbWOkLmllLOCZ9NZFpHflA7ZVxpTmkr+mhUR4utc2iobQYrZbaa6xTu6gXMLOTvJG2ePtuVxZb4KiuN4uVO8OjeMi/RGmuFvm6sGFqC29ZoR2KIygcojz7L3RXs5NBLo29Ng2CbuPbWZ/SbNJP6CGolp3f8cyOfd7/NJ+O6bybVsOye70kCk1NSgu1SVJqKtkMt1q5S+unePdYRnklDiZHj+PFpUcskJo9SyxKjvNLWLlnYds0zYWVtU+81F6tlNaaXTd167cgrUNN1qTTtUXU4ev5K82o0sm/si3kvKxncpnhWaWGnmiJWfIKJTPIxvrP4q13GnpaW3QwS1llvcOnbxcJqeur9ONAtI7XK9UsjK7bC49zTxWQsI5RwVT3GppFTaqIVNeaSpQO2U6TiL7dnVslitP4fFc691xqQXNdaL7HVidocyh/wCjdWHICdEJWXWyvotvbYLGQEfCIHHO1qohXmjszqSuO3/pnZrP4q5aSt1vli/46tskf/za2L/5rbFDbI7SO0rU8jhGhleVyXkryjgLh9HLC5twyRvHMa5NRkC5hc2rkxRV01KqfVs8Qi1VRPF21Izhpu19RFuGlvB/3e3KtmonRi9ub6igkE0XFAItBF006SZGuif7b/YHisIewBzQSTUNbxWF7JvhzUN9ZfEXijdNdyBTw2S5SXUxzxyur/8Adys9k7pAy4GplqMLxthYXhAheOGcrJTXeeRWQj5Ra0rgFxavAR9rRBGynoaL8YqbF/ofa/0Zpa7758yDw7KsNzhdACsI7Vlvhr463TUsKc0xu+2EdrPbRcJH9SDbGFxynNwh7tCCztrL4i70YqLq8ubRabBZCyjpo9Q1sgkq0XYGexzA4S2GllM+mmqWw1calhdC7OwDinycwclFYQPnzsA5yc10ap6CpqzFpurcaTTcFKdRV7qmeOAWi02OXNCrnb23Cne0xvPupP5RMNKKK91FCbffaau3O1ZbqevbX6fno17rGFBTSVMkFOynhIU1MXqOTiAiMiRhamFDYELV/mz3WJs104lsGPVafis814oaqLo1BdxC++3JqyFkLI26YUlspp1/j9FmCghpW1mmuvP/AItNik0u1VOk4+Fxs1Vb2ddy6jlQXea3Og1Y0mHU9BIm3uierpqhoZpm2GWR0QkisUuIo3ZC1BZzVI+RnCb9TnyGU8fPIZo71VUSt95grwCseVhV1oirjLp6rjfQW+O3xbviDkWuiLapocPrAZhcUUGrVY/RrneJre+mm9TQ6Tfzo6WyNpbvdc+ukd+WKKJeiiXo4gBTRhQUsD2eipl6Smz6OnXpIEKWEJ8ETY/vuNpWNe266ejfJVUM9E8AoRyIQPTYA1UdE6tqIYxGxeKe8Ur8sCKvVo6LpPeJvFuF7L3Ay1NIcqK/1FIqK9U1Ws52xsfJxtnYqpoGTx07yx24WqvhrhTVz5aNsvpTHyfgq5/7tR4jG2dqfxF2zf0By5hF4CdX07FJfaGJS6qpmKbVkj1Ld6uZOcZCEHBO8CCCSpltNqbQQ4WFNE3NP9LlhTgcTTGorNsZQ2LQVyLVkYpLxU0apdSQSpkrJmZ2IWFxXBEFFZXLCDs76q+GErgOoVzK5laajAtdSfyc7hRfxWeyo/ovVfO24mtqSnFzzgLICxle23gbcyFQ2GpqxQ2yG3swsIqd5KpwgvOKrK02P+5X2KKtVZRzUMn8VjkhvxWcEEqKZ8LqfUc8apr3S1A5ec74RbkGNFuEHYP1bao+H7NMn9KrP9cbDZn8e2oP5F1ObttxWEAV7Ly5RWyqmVNpiZ6orLTUaxjbKMuF1eSDcqNnEDaQeKWmjpKhvkTQMnjuGm5IkWlj/dNWMrHnp5XSwj7nT0xayw1bnW211VHPkhNcUD2Fq6YB85Wp/huzTPxdb4puxn8cobDaX+u/UELafCAUVLLUJlkrXGLTUzlDp2nYIKGnp0HjfKLkXBPKa3kms49h9p4uLqeTbCrbbBXNrNNTwqWnkhUTDJLMx0D8lB21NVz0aqK+oqhS3qalbRXaCsRauWE07Z3O2pz+jdmmvFqnZ1ImvmeznKF1ZUZpEHHjlZQKGzhlk1OyZrbXSBNttKE1vEcVwXTRjXTQT5MEPXNEpseUG47cIt5CWMxKGXO+FUUsdQ1tigp559PVTFNST06xlYKCt1k9ZA/TUZBsU0MlLM+BouDCuRaQ7O3IZ31N8P2ab+L91E/EDpsLq+S8qOXIB7AV9j7jYLG52xlOhBRhK6Tk2PCCz3YTmck9vBRScgsrK45HFFiqLTTVCm00xTWGrYrVE6noc7SQMlX4bCXnys8UH57MLUw/RuzTvxYPmCTjSMjMi6Qaj5TGjhwwmu8ZQTdn/wAh3YQHaD9W3v3vGVxLXtPjGQxjWN2PvhELguGCY1xKOQuWVlFwTffYDbUQ5WbY7ab+K+9Jh1Gw5DivvD5bvy8M9mqU4cz9rP7srMqPwvdewznYnY7kjJXFcVxCLEBtne/+bP2abGLV96H/AFGScSdoPA3I8MCapfEg7XOQfsXYXLx1E1y5rks92dsYRbldNceI4riseFlZRXvt5WduWTnbPZffiOzTgxalRtzSzNUEhCx4g9wNjsExTOzLnPbhccbELC4LiF01xR92dmFhEhqDS5dErov5dJdEroFemTqUlCmeGim8emXp100YV6fCMC6ACEY5FiDMrplOjK4OV8aRaezTnxWcmk/okGQPIj9qf+wbgIJpVQPzR+6FjsCxt/75ecrKa7kQcqQ4bG76ScIexODlBwwWheER5ITfKDEY10wi0IhBoCv4/S+zTvxORmmOIinswQS1Uj+cnYEP5Tn8wL2/cHblDbP1EZefZ4TWlS0zJA6kiemwNaJniJ76yNhY9sImqo44IHwNbFVRSzGvYxklfDIKMw1FP0WNZHTRRshiZTjkd84V8+M3C04P0jHmL+ACOdqVnCUFDYIBNU39o7qmtipB+KVFQg24VTDgLlRufGYebevGxlXWwqnr4aruyv5bOcnny1yc4LO8olLnipLH9cx/ncW+rwfVJvLG3t2eyKvXxu4Wnvic/VH/AB2IyqZmJHg4Y845IOQDimjxP/aO24V8jp2xspS+hmrmNFPQhjY2KnmqJIpT0qlsMWDbXU9OI/UGjqJOad5Cysr3Q8KVwhEVZHUIVMJTZI3sfUxtD62BjfUR4bVQudJMGOiqmSLqNUUpIE2WsrDk1H5nWfJFE+YNd1sl8jRwkDm9R8pkf1bo9z7Z2ae+IwqYgrisLHmn/sQCwsIIOU/93Z7K2EzUVrpOk1dFgXqpPT9Rwl9SQocubhVIGRHiXsfPG1zPqX8RM1sjBTsCZRRRtdSRSM9PFy4NzwCIGHYyNjtzc2Seocpqjg99ygYV1HF/UJiZykha0MF3P/Q7LB8T9qOEdJzFwXTUI/NWFheyG1R/eEOyqidQPLvVCO4ksFRT1SxAi6LrMjgkj/FKaM9Wonb1WwiJpauoF1XlcnONVNBCG1zWS0TuDj5DvdErOe0+2VlBNqYXl0THENhidA0g7FFjeW12GaLssQ5WxUx/J2ATP7Ags9lR/eh2zWyJ7nU9YxMDYJJHU8igiggLJGNZFFOxejfK5sMdMqeAQ1kclXMnsTIwm0zgz0uRT0scDmkqpa6SOCOVihY9jIqPpsNNK9rYpoo6mEzxtD+Rp/qkoXud6VwUUT2P9HyTKJkbo6biIab0zWggTWmKaZ1uAZHTiJ+1zGaXZoyVYyPwxUpyzdo87jYKq8TofuOynMyn0vUcKZpLI2Qt3HhAYUzerHBQtgiFviavRRhj43Jox2cgjKxry9odhc2tcsJx4he64lHxtWDMGw9yPrsY/SyqJxLs7BN/luDvWf3D9kkjYvEaD8r1LMeuYWBHA2GwXgBOP00zHNBHGNtOSxreKdSukc6j5OdT5eaUESUjZpI6RrJem10jqZjqjpuCYHAfhERYKIYkoGyyVFO2qjda4i6ahbwp2uZHOMsWEAiSTZT+l5VD/Z7IFAoO/O7QVdH9JQ1oxDUiZud/ddSqxyk5MZM6Ti4ydSFkcRgqIn07XpsLGrCygcr32yiQj7ZR9jAwjpNwOnIDIGrlhCRhk6jQ7LeTZGytIKGxcsprsp0zWkyM4Nc3LpmNf1WvWVN7DwTJC8F/nmrI79K5qhdifkuS5oSf9zKztne4H62tjwwNYuQQcsrKysouTmMeWRRxJsUcTsrksrIQwFywuaMrQvUBeoGRXMzJPHK6WXKqOnVx84ypaeGd3KN8McccaNNC5wpISmBrByCyFyCyEXtx1AnxxPf6eHpmNrnmngdI2nha5rAxTOy3/8QAKxEAAgEBCAMBAAICAwEAAAAAAAERAgMQEiAhMDEyE0BBUSJhQlAEFCNx/9oACAEDAQE/Aci4/wBp5keVHlpFaUmJGOnmTkteuVcenO/HpYEeNGBHjR40OykpWFQWvW6dT/q2Xg8k6wYVEi49Nq6SdvVGIn2LXrcnXj/olyJWfjn6Ljfi+Tkd6cCqTIIzu5XP1rXrdU/+P4YXYxf8bwR/kayLjdi9qR6ZIkhq+WjGyczyP1rXrc66PHEXayLj0XqOnJi/RtfDESSiSYMf6c3zkfrWvW5/8yiqz8X08dUYoMVMxIuPThDpXww1I1+jpji6V+EmIlXqoTTvQ/TjJa9blYRXjk/7P/n44PAvJjkp49fD+DWVGL9P/lyqg5KeR+va9ctPHsaMdDMBhGoJJQnF8lLH69r1y08e07RIdon8MFTPE0QiCMic73Gza9ctPHsVVKk/lXwKyS7E0U8HkR5MkzchM5ugcEmph/sw/jJjkgSunatOuWnr60FTwkfWYnnVLYqEYUVUQclHBP4Q/poTkWpTo8N33bteuWjqvV0Q7T8P7exSpeWqj8KZemwif5Dq3LXrlo6r04MdKG52qHA8iOKs/HJM9TF8QluWvXLR1XpcDqb20pFTGar9yaXRUzAvo38R451ONl32vXLR19FuBudtGNGMxmNmJmIxJnJS/lyh8n8TESTv2vXLR1XoNxp6Dypvg8cfyQnN8E+ha9ctHVb7cZ+TA92BKBFS/wAqROSBiQ9+165aOu83GSDCYBUobVI6m91LJaUx/JHkf0Xo2vXLR12pJJJvwGEg0JQ6vw1IMJhMJhQ6TCYTCRcqRKMrehVRpJZ6q+N6165aOq24IvpG/SxZuStyLQi6RPdteuWjruxcuPRm+YOb250RV+Z09y163RfR1W3GRtJZ9d5aCUlVUaHCNRPOtu16kjqd9HVb8EEbM3xfrdN0sVVZTV/LUbnZTE52rTqaEjJLPqs0sxGJErPF8EehSir8Ho7mPYWgns2nXLZ9VngjJJiZjZjMaFrdF8IgjahsVBwhuR0YRU/CII2lrsWvXLZ9fRTgVU8kEZ4MKMJCIRCyWlXws6frK9Vc3Ou2nsWnXLZ9d2MyqaFUmRuoqrwi1ZFzUPdpHmtOuWz67cXxkm9VNCqTII2YKqsJhb1LNpVDf5dWvu1BGpOxadctn13YzRdNyrJTIzoqqwqDWplUL+KupqjR3tRtTes1p1y2fXegjJGWSTF+nJF8FVWEeixVFnT9K+b02Jzc6dlUSYEYVc8tp1y2fX0II2tRVHk/TFSVVqngodPNRPkruqphzkmBVTe6M9m/mR5bTrls+vpxmmcyWIqSs6dBU+OHc1iQ18ypwSndUsyyPLadctn12oI24RhIGiSbpIFCO1Uj1UFOqEWi+5IvVTFUh3PInOxadctn12pEx078K6CCqKVJSoRSU6VRc9URG6ilbFr1y2fXcpY6b0hpbvGrMWOpDEV6NMd1Sn1rXrls+uxKJJJJJum5Xqr9OSNhvEOlUUwU1Tzc9UUaq+pRxtRdRCyvJa9ctn1zvamMssxZrSr4iinCVa3KqRC0qjI1t06mH7sWvXLZ9c73NL5JRJiMZKHWqVoWa/yeWmr4yv8AScjX5tLTZteuWy6+vGSlCWOWLrdUr3dS5WXkw5kpNNq165bLrswRvQYRItH/AIo6qBLS7nIxInPF8XzleS165bLruwhDRBBhRUmtUY2YmKuBWiZiRoOqCha4ndTe1N/ORPNBAlkm5rNadctj1ulkslkskkkkm5POiqxxaodNVPJqRUQyBKb6eR3tDEs0nO3I8tp1y2XUe2uSLou0MSMZjZzkSOL0O9ES9mTTNOzadctn1HtoqqcmJmpGwqTjIh3oo+jQ9qdictp1y2fG4irtsQYcsEXN3oi+NmCBTt2nXLZ8biKlkhmEwohXRnbyoayRn4uxE7Vp1y2fW+Sd6SSSb4vnY5GssIaypGES1ITI2LTrls+t8EEEehJJJJOzJI1sQQK+TFsWnXLZ9b+Cb591XPam+Ni065bPrcx/6JD35zWnXLZdbnsvYgjJF0f6G065bPrcxDWz825uknZkxGIxGIxGIxGIxGIxEmIxEkkkkkkklfXLZ9bqhbS49b56Ukkk3SVdctn1uq5uVzX+hkiSFfJN8olEoUEEEZaury2fW6rI9c64z1V00cnlqq6o/wDV/R/3UfxJp/SavlR5K1ypKbSmrjO9nW/U1Ndqrq8tn1uq21xmtK3OCkhU8HjdXIsNBp+CmOpVzwRS/h43SopInnkoqfV7KvkxIlGJDZiVyZJJNyk1NTU1NR9ctn1uq521xlfBQppbLOjDrdBOl031karLOSLoRCIIV0ZW45J/B1GJXSScq58ZbPrdVtrNVTg1jQ1etArT9FVTVoacEo0iTzU8Imqo66FP9k3yiRfly3YOBL6874y2fW587a4zuyXKMNa/s41wjdP4fxWuooXCEqviPG32YklwYYZL4vgghK+LoNcsEEEEEECMJAr/AJls+t1XO2uPQepGxBBAvXs+t1W3TxvSTvQQQQQQRdF0EEXQQIWWz63Vba4MQnOXU1NbtDndggjLPzZkkkm5ZbPrdVt08EbMEIjYggggwmEwswGEwmAwmHYggggi/wD/xAAvEQABAwIEBgMBAAICAwEAAAABAAIRAxIQICExBBMwMkFRIjNAYUJSI1AUQ3GB/9oACAECAQE/Acjj8jknrEQf+iNBwXIcjScjScPCsPpWO2hbLh+/K7c/iFr90aR8Igjf/oOY5c1y5rlzSuaUKxCc64yuG+xTqjSaKd0r/wAipzbPCuMwndx69ghGmVY5ahMfcMCwFGmRstt+hE7ItA3Khh8rlnwtv0cN9mAc+9FlHlT5RLrk7c9dr/BxIUGmdUNROLmh26dTI2wnLsycAgnfITgPzcN9mAvuXyuUst/qd3fgY+N0IKjDZF4bug9rsS1rt1yWrlnwv/uI1ELZDBuxwH5uG+zBvC8SOJ5hPxn2rm7K110p/d+Fri3ZMqh2mEIiRqjS/wBUGu8q1WqJwIDt06h/qi0t3wJDt1GA0acB+bhvsw1t2XJH/kXXjfZcz4Wp/d+MVXjRMr/7oVKZ8rQbJr/aM+FB9qP6rVacITqIKdTc3F2jEPz8N34GtLbIQ4Ec7nXYP7vzAluybVMw5NOU67q2NsX0g5OaW7qpsEPz8N9mWp3H9Ae5qbWb5Qqzsr0HThqiJwhETuqrYCH5+G+zLU7z+oUHu1TaLm7uTqrGoV2u2VxUlB2JCey3XNPQHR4b7MtTvP6GUi9W06O6PEE6MCLaz90OG9lDh4O6jCFEbLSUUWynNtMYim4rlxuVNMLmt9LmNO4Vgdqxbb4Mb5Rbqtujw/2Zavefz0qfMOuy8QEGN3zvqNancQf8Vzj5TKrXaIaLiO5Np+XLmNb2hGo85ZtMhVPk29NbKcbRCnpcN9mWr3n8oa52yZw/ly0GgzThUfYJW+SnVDtCqsN+SOu+cq2KdqDbAnGenw32Zavefx6nZCi8prbRGWctZpeJCGV3zpTmlAF2yawU9XK3yVUfJ6nDfZlq95/E1pedEymGdMut3T609uagd2oiDGIY4rlDyV/xNRrH/EKm0n5uR4gN0RN3U4bvy1u8/hZTL900Bu2MdAo0i7crkeyuSFyWrlNXJHtGk4JptcCq7YN2AeW7IvcVrgyn5Ke/wOtw3flrd5/BTpzq7oxjOQZXNYJcUKzagsKewsOuRlPyU9/gdfhfsy1e89emydTmhaBcxntSFPTJVV92mDKgeLHp7CzBlONSqlTwPwcN35a3eesxly2xlGq0I8QfARrPPlNa6oU1gbtkhQoUZqj/AAMlF4qfBy5TR2qq4jpxm4Xvy1u89EAuVjlY5WOQpnyhAUhGv6RquKklWuPhctybS/2WgVyuVyvKvKDyr1er1OBqNCfULtstFsulNq/OAuJEGVCtPX4Xvy1u89IPIXN9oOacapgJjYGyj+fgOuhRpekRG+QC4wnfBtoVNtoThdoVI9YFoKdSjbq8L35a3eeq18brxKfq4DGDljoxiWhwTmlp1xY2xtxTRPyOJ9qcXMnZbdPhe/GcK3eesCRsmy504ThKnDRaYQoK1ylb4uFwhO00VKkTqUf+R38QIRGO2So2enw32KFAxrd568wuaUKoO6Gu2XTGMJUqcNFooUBQEWMnVPHw0QECOiQnttPS4b7FBUIBQq/eczGsdoUaPpGk4ItcNx0ZXMchUHlAg7dUQoVVwDYVEkCStXN1wA6EowU+nG3R4b7Mtf7DnbVI3QIOowlQrR6XLZ6XJauR/VyHeEWlu+UVHBCr7Qe0+ekXNG6dWH+KbNRygAJtS8lPdaJQdOqB6Txaehw32Za/2HoAluyDrlOSMSJ0KdRI26FxV7lzXLnH0uc5c1y5j/aknfGgy0SVXqf4hUDBjAC3TpQnNu0UQYz8N9mWv9h6IMbJrgd0MJWmVzA9OpFu3Xo0Lvkdk7RqLpMoGDKBkSonIMxwqDzn4b7Mtf7D02vjQ4zkjFzA5OpEajqUqN2pVwHxCrAlmitjfCi7/HDfIckwrpEKEURBjNw/2DLX+w9QEt2QqA75gUQrcHUgUabh0aVO7UqQxsqmS75lAqpTDxIRBG+DH3aZP/qOaMKmbh/sGWv9h6wcQm1Ack4DGEWjyE6jOyLS3fJKp079Sm6m1q4ipcbQqfaMAU5odunsLV/Uyr7Q11HQfVDTC55RqOOAy8P9gy1/sP4A4t2QqA9CSpUD2jTBR4f0uS9U6BJ+Se10WsUcil/UVTeHNjEHwonQp9GNW4NJbsm1gd8Iy12f5Do8P9gy1/sP4gS1Cr7Qc0+VGO6jMXWCSmPNZ8nYI1OeC3Cm60oHScf4tk5jXp1NzcKb50U5SjviMvDfZl4j7D056UlCq4IVQuY1BwKhQoUIvATg+oUW8ukR5TDa4FVRa7Ci+fijiD4OLqTSuU5pkIThOR7S09Dhvsy1/sPTIQOQgjfpSVe/2pJQqkaLmlU3OqOhVX3uRVQXMnBrrTKmROScN1GQqcKr506HDd+XiPsPXaJKebjooI3GcGNcwBcYCFPk0zG+NI3NLVEHCk+Pic85ipk9Dhvsy8R9me0lcsrlf1csKwelaMYjJonUp2Ra4b9FreWNVTe6o+7wqtOwyNsKZtcqzYdONN92hy7ZiqwJGiGQZOG+zLxHfnadOlE5S1pRpekWkZaNOPk5Val502TG2hfwp9Mt1G2D/nTnIx92/TqOsRqy2I6HDd+XiO/PT6MKIRBWqhQoUFQVYCjR9I0nqnQLjquIqf8ArbkCfRnVqojQtKLYMZG1PDujKcA4Qo6HDfZl4j7M4jx0/wCHJJUqcah2aE5/KAaqg+ZwpukYjCqwh05QS3ZCpO+ao61SfPS4bvy8R9nQvKFT2g8IdA5S4Bc0J1QqgyPm5Saj5VTvODTacgRMo0wUWFuUOITXg4l0bo69Phvsy8T39S4hXuRJO6bUjdc0I1PSFU+VTex+hVgVoTqQejw58FGi8Kx3pMok6uXEP0sCmNVV3nFj40OEI6DCVHpFgKc0tyteQrwnOJy7IZuH+zLxP2Ibq0KwK0K0KFChQowO3Qp8Tbo5NqMfstES1XhFyc60StzODtWAoYsfOhTU45N0QjTBRaR09tc3D94y8T3pu/TO2SCgxx8IUnLkj2hTYENNlOJIG6c6/EoZLrWic8TgWAosI6/D/Zlr96bv03KmwWzCtb6UAKVrndUATiXb5Dk8qtsE15agbts04kIs9ItI6nD/AGZa/em79N2yZ9YxnKXD2jUHhF5OSc5cThshU955wvHlF4TnA9Oh3jLX703fplU3mYxmEXt9o1QjVcr3HfrjEEjZCoDvhMIHzkIBQAGyNOUWkdKh3jLX70N8IUdHYq4qT+OMAcm2yLyQg8KQcjnxouYU5+milT0OH78vEd+EqVcpU/ghQoUdOEM8kK/2g8J2pyR0OH+zLxHfiBKj/t6HeMvEd+AGiHSO/wCgoflod4y8R34Dbp+enP4Y/FQ7xlr9+A2RQPRO/VjohWq1WqxWKxWKxWKxWKxWqxWKxWq1Wq1Wq1WqkIqDLX78G7I4T0Dv+YfihQoUYQqf2DLxHfg3bA4TnO/6oUkK4qShr5UH2o/qAMxK19qDG6tPtWn2jIUqSpU5Kf2DLxHfgzbE9A75203P2XJY3vcv+Fv+KE/6hQ/+KHRsEbfLEadN2xhPpuZnGJU5dFotFotFp0mfYMtfvwZt0oTt81KmAOY9SXb6LmNZo1G9+61O5To/2Q27lc4eVzQ50vU26jZVGCLm5hiQoUFBhK5bvSscixw1QaSrCEBKcyNlaiwK3zKAAOqIYfKhqhvhS2IUtA0XxjVN+wZa/fgzbpu3yjdPMOAVapcYwuKtE7qFaj6GDD4U6HKGkrzgVKkoPI2V7vakqSpU5Q2dAg0a3JrPK5TsICjWEfiUTJTe8Za/fg3bpu3zMdzNJgrt+NQI0vSLXN1Xy3UOWoMLkO3KhrN1BdqdE7+KFAUeggHH+KzRO8HA9SFJC1Kc7w1TjJxHcMtfvODdum7fO2s4aHVX0z/FvoHoB/sI3H0iCTq4Ilvl0rmAdoTnEmSjUlkq1m6OuoCn/wDFeFzPQVxdvh5UjC5SFIQ0wuVyuUq5SrlKKD4VyJnHyMtfvODNum7f8DXWq8+ESTvkGBVyuVyOuaPPUPjLW7zgzbpv36sINJVh6U+lKlSrgpVyuVyuUqVKP8VyuVymFcVd7RRy1u84M26cXPhGmZ0TmFmWGrRS3CD6RlplSpPTkqSpOMYR0IUKCoUYHLW7zgzpu7lcT56Mq4qSejKlSg6FePSDwFzFertVer1epnPcpUq4q5HVFf/EAEoQAAECAwMIBgcGBAUDBAMAAAEAAgMRIRIxQQQQEyAiUWFxIzAygZGxQlJyocHR8BQzQGJzkgVDguEkNFODsqLC0mN0k/FEUIT/2gAIAQEABj8Czu5KDNoaQ0c1d4q5XLsrshXZqNkrl2RrucbmiZTYzmgWqtA3f/ogGti/tXZfda7OG9M2rNq4OEsZKbYgInZ3VXbHZt/070XaVlkGRM8VMXKJ7TfPUKh+yPwL2HsuEkNFFEbJZ3OFyAyhhhn1m1CtQojYg4Hrr/wVXxv/AJ3/ADXajH/+iJ/5I7Jk6+04u805jJQ2mcw2Gz5Iye6ZpMNYDLuapOiOePz1TIc52aI8YjVDy9kaKY7ocN9kvbZmZTwzaSZtWZ3ongoXsjrnFaS2XwwfuzchbY9h8QpaeXtiSLQ+HGYbwDNThg6B9xOB3KYJa7AhDptIN0SqlHYYR3ioQfDe143g9Q6JEcGMGJX+DyN8Rv8AqPNkK07JGxG/kcmjKYEfJZ0tRYez4oPa6bTcQr+rv6iSlnH6zfimxIRh/a7DSZRazpOk1MSty3qfpS3q1s6Wx69ZqF7I8uvfGgbMS9zfW/uiDNpFJHNCieo4OonNHgb2lRITu0x1nOXQjfeDirMXoXcTTxVaazMmi7WTwGWrO+n91uzOhxG2mOEiFG/hzj0LhpYRJw3fW78LXP8A7rfigG2dNZHo44risLdncjdbs7sVA9hvl+AL2SZH/wCSLIrSx245g5ji128GRVuI607jeiYLQQL5uVuLC2cS0zln6KK9g3YeCBttPNqhjKhoIp9G+XNW4b2vacQc8H+IbWhcNHGlhuP1uQkZg3SUs38MiA7RdZ9/9+s39Z/ut+KsgbUty0IhHTaINnYF+YiVZblA/Tb5agps4mfW6OM20MN4RiQ+mgb5VbzziJBfYeFLKYIAl2mro3224GUjmnMLYLXxCe3Ls8vrDNagxHMPBSymHaHrMU4UQeziEWOAc03grR5NlDDkl9mM0ks5Z8gZgwaTz+XXz6n/AHWqSlYd2b8Fo/s8WWjlbls81L7PFs2O3Zosn/Tb5fg3OMKRdWhKnkkSTt0U08lXJ9I0YwzP3XosiAs3tN6m2oVRPvVGDvquwzwXZasWqd6tMcWuGIK2jp27nX+Ks2tFE9R2fKD6MGFYnx+p/hJan+6345tHYwlNfZ9F6Fi1NfZtEOxYtTWS/pM8vw1mLDbEbucJp8XJWxGuF0Nu15qerMLaHeFMdnyzSfONCnc41HJWoT64tN4X8SEtrSn/AJHruK2gt2pOVdQ/qN1ck/RZ/wAR+ILi2xF9dqLWwtKPWaV0sJ8P2myXaXa9yx8M0xVU9+YRITzDeMWp73uGkigk4TMx1tc1epPtt1ck/RZ/xH4mpToVrSkeoJhGx/DwNxDrJ9y6OC9w9bBTiwTZ9ZtfJb81DPODcU3J45lHFxPpD5616q8KjgeWpMoubVSImCpdQ7226uS/pN8vxFk9LH/0wfPci0WrH+nDo3v/ALq3lmUNhN3D5ro2CI8YytLYgTbxdJObo7JONr+ymTaJxOet63hUTXA2XAzBTYh7Y2Xc803OACIDtIfyqzk2TknxKmejad624zTzcSpw8oE9xJWjythA9ZBzTOe5Ek0WxstHihpKMM6nmrLRLqX+23Vyb9Nvl1Inj11mHJ2UOuG7mjEjTjPPrnzVgRLDB6EPZHuU89yNwzN0cM2D/MI2U05S/YxDUdDFdD4OqFaczZ9dlyvqMFGJ/wBX4BaDIWmK/wBJzROStZTEsNPrV9yBeNK78yssY1o3AahY9swomSOPJNY29V+6b23KTaMuHVO9turk36Y6mvWHSPDTuxVnJ22fzORfEdbecTr0Vi6E2r3bkGQ22WC4DPVOyjJoNiA6rms7LDPyTP4db0eTVdEs3v70GQmBjRu1zNPyhp2Rj3STYEEFz4mC0cMVxfiVy6p3tt1cn/TH4Muc4NAvJT5WyRdS9OiuvOG7XDZNHIX54rYpsiLKTsBKfz1atB5p0N0g2M06Pv8A/ojX23gcEYcEWYWLkAy7fvWnP3sQX4gdZ/ut1cncTM6MVP4Kb3VwaLypvMmDssFw6sQoLLTytJlkjuhg+etk2XNHSQngfH65qHFb2XNDhmm5waOKPS6Q7mKUDJnHmpUhNKt5REdEOMyjk8AWd8hcg4N0cM71DbKQaAL59RsmRW061nH6rfjq5P7A/AmFClEi+5qMSK4vcd/Vicw3eFZybIgxu+1UrYgNHNy7MPwX3gbyYFPTT/oCFqHCcOEwhpT9neaSdd4qIwSdbZsnjgjk73dJDMg38uYOiOfsijQ6ipDb3rBTwRgwTLe7ctNGbsYNKkB1F2qz9ZvkdXJvYH4B2T5Mdq5z93Lq9y36lM9BPlmyfJGRixswxoTcrgv0lmr6S59yDhR/pN3Z3GjcSUYUE8yhGiiUPAb1ICnXM/Xb5O1cn9jqxKzopV1Ps0J20e24eWuGtBc44BEmC5gGMTZHvVyrXUrTUvlmkMcxjPhgPedky9HN9tyKg9NgTa2X3WTvU3GQRhQDsesE2NGEmYDegAJdVPVh/rt8nauT+z12jh1juH7UXOM3GpOewxrnu9VomUC5ggt3vNfBdNlDn8GCyvuA935zNSaGBwuhMorUQ7ODBcNWau12x44lDva31uPLUiR2yb0ki3cpxHXp0SJUs9D4qnVVdM75LbdM6sP9Zv8Axdq5Ofy6t0tRmmJFu6QX3p/YV96f2FffH9jkfszjEiGnZlJFzplxqTvTWtFXGQXTRu6GPihOEYp3xDP+y2WNht8FXKIXc6ao8v4BpVnJ2OZP0nIk3nEq8BX5v7rHxVKK8q9YKua02HYYfTiUQiRyI0bd6I1adt97fihHiOsvd2GcFGh+lREWpqWkb+4Khn10L9Zvk7Vgcvj1W1AaD+XZ8l0MUt4OE0XPgusAytC7OCZ9Ht9+CjWcoihlsgBryApfaIh/rQLyXkC9xmr9XBXlfNYql2pvTYsOzNt1oTQGUQrVe0z5IRITw5p1HPcnZRGPRMqfkpjZY3ZARiQjZfvQc6I9/ElXLYiFvBWY9AfSUwZ9Yzfp2+TtSWKyfDZ+PUgTqdQxIMoUb3ORhxWGG8ei5ZbHudZsh3dmuW5YK8q4KoV+a/xV3gqZt+b45qZrcNxG9s6OQew1xbuOYlCBCuBl/dDJmdmHQ88VRSki3BblM5h6UPcg9hmD1bf1R5FZTGbNoaHCehMjd6fw+aI+zwYszO09nuUJ8WHABiZSWkNbIWdmnvKe1ukABIuUItqDOvf1e7Po4zA9vFaFjaRHSFcd/uz3lYHN2ir2rasq49zlVp8Fu5rtDvVPOaqp0ObjuKuXxVb0yMLrnDeFCIm620OHJaKC6ZN8sFpXf5qKNkeqEXTtTUvcsFcpinBUUs1lx6J3u6sfqt+KGww0lVFrdDk4N5Lg0Jn2Vpfosq6QteAJU8blFkMlcLR/ms+ahTkDXs1F/Vz1Cx7Q5pvBRsWoJ/KaLonNjDd2SpRYb4XMXq/PgrvesPFXDxWCrJXN8FiquLe9dv8A6V6J5rs/9So09y7JVGk4ohrjJguncFDL7RqJ4p0Rxv8AdmHDPaz718EWP7bcd/Vf7jUBYOksymgO0666Syun80eSji7bcsm9n46zosNjHZKAL96Gkyfva74KWk0fCJRSbHhOO4PGaqxPcqK/ULXAOabwV9zozvYZInJ4oiD1Yl/iungvYPWw8c14V+bDNVxlmpXlmvV1VdmEYTEOHefghDhsAfiW0Umm01plM5qIKuaSln4pr4b7DgtHlBFbj1J/UbmIdAZFm4GbsPr4J8TJ4cLp8qkQ4XcpLKB9jgGUR1ZxN/tLJzINBE7IuFddz4PQxDh6JViK2zuOBXyUxJVixO9xWzlET9y++nzAW0yG4cpLbgeD1tCIzmFpITrbZyu1JKsEMdvh7K6DKJj1Yg+I+SrAc4b4e1/dWXgtduIrmvV+rJShQnROQogY5ENmIBmUQwBgAstG9Od6b9yg2pmI+tUYOlsOlNsxenw3GbmuLZ6s809TRvdOIzE4jqHe23M7RNtWb5V9wWigwnRnwsr2rAuosqrD+9d/Nbv5rJh+XDn1GjjMttUnVhnsxBiplb1VUVc29WoTrDlZjDRP34IVv1pETG4quTQpnGwF9xLk8qj4reTl9++XILtxv3D5L0zwtL7nxcVJsJjRuAzmGw7DNlCM7sNu5psQN2oZ9ya9tHNMwvtLRR/a4OxCnr8FPM2K2pGG9MiMOydeJ7TfPPlnts+Kyv8AWf5rJvZ6kse0Pab2uEwrcCcaFultD556bJW9eqrvDPsOkPVNxQEXoncblMHrouT5P952CdyaDM2jJMY1kgME9hppGST4Z7TTIreHfU8xzDPx1Tk7ibL6t4FV1ovtN88zzGgacFsgLUpe5R42TQmERI7W2YkzIVWVnR/zX48VAwEru/qzEyezCi7vRd8kYcVphvHou1Lpclh5KufYfs+q65WYvQu34dYYWTmcXF3qp0dwJZOza/Mobn0AN5TYpkWXiRvzfamDg8Ae/VJlRt53Z6Ka4KeGYEGyRiEyJKU8NxVNWNzb55pQ22jQKLCgwXx4kOO202CLcqO3LKegi/eu9A71ADgQRgefWWI0MPbxwRdkrtI31HX+KLXtLHDA0V+b55qbPJVEzwVxHNUQDTNvqOUnO0Ltz7vHqTBhnbN8sE2FDEy4/RUPJGjYhNmfazBpM4U6t+SD4brTSnNcJtcJEIyrCJ2T8FVVqFvRlccwzHVjNkbBxwnq3qPzb558t5M+Ky//ANxE/wCRWT1nf59dKNDDjg7EIugdPD3ekPmiCKhYq5XlYK6ivosCvmuijOYNwVmONIPWbetiKJ7jQ6phwqv8lpo1XP7LT5o5S4dJEFPZWUVntKa4q3BeWnFuClOzGHaYi14mDRF+S7Qxhk+SsRWOYfzDPPODmbF0oZDd3lC1EiE4ykqQp+1VbtaP/T5hRHshPeyH23NbMN5omNBEYS7JJ+BCyzKYeTh4e9jdHalLtFZU8wI1p0V5Mow3+yoFkENrIEzx/AdLDBdg8UIRdk7tOz1bnf3Ra5thwvBEiNS6aop+SoLJ4KbXHwXZmtmJFYNxqEBFYInEUK2g5pRECdrfuWkykuduEr02lmE2tk7lJRYjjNr3F2aqmEHsJDhjiEIeVbLv9TDvQIMwVYiN5HEIvh9LD4X57tT7M40vZ8epjc2+ay1/blpJdGXWNjf6NOc+Csw2OiO3NE1HY2G57xEhmTRPB6jkZLGItu/lneoLHtLHNmCDzQ/A2Y0NsQccEXZNFs/kifNEmA4tGMM2vdepFXrcqVRl5q+XBXreu0pkDwWihNridy0cPbymNsg4lZJGnbDjooh5qe5XSnvTmOvBkpZpjvG9UWwbUPGG5BjuhiHB2bSMZ0L93olbtVpYSHzoRvQcCDMXhT13+01ZSI7ABZfo4hBB7JxayZrOlqV9ERatYTGKy0mpsNv5r+If+4if8ioHf59XI9UQ9jXg3hwU2AwXflu8EdFFY4YB1FXJnHlIrpYUSHxIotqq7K+akzbccAtsiCze5FsI6R57Tt6gPcOjZOQldRRoWJbTngocz0jRZfPegm5S3svo4ccxXvVoLfwxzNFoRGCga9GFlUJ7A6+VQiGP0jcHSlPVmMFaYLJ9Jm7qD+o1RoUbKWww6YbDfFigVG5gNE/7QCWSpoxOviPrBZZlMOA6PCdZYGF1g4meO7+6yqKYUQF8V7pW955KFZEhW/n1ZLL0Q9A+eeJonh+jdZdz6rayeE7mwL/JwP8A4wpMgsYPytkjFtOY43yuVYhcnPH3ho0HeobnN6W8nM9hpMke/NEgOGw4UO4706G/tNNk5gpKdxXELhnv1RFc6ekZ2d3Uc4rfiv4gNM1lprhZdlD2z2fUFD3qgmowcJG2zycolPSKhd/n1mkh96AiUbvQ2xXiokSe1KTZb0DEitD4nSbRQFtkzgCr9YsdOyb5EjWL3qFpXWIANAcEJZmRwKfFNOBGb7SwbbBtVvGpNcd6kaOzb888zWjFNaKhol1Df1R5FfxFkN40Yhuc9kwKWTWrfiFahRHwnESmx0lljnOLnGDUk1vC/iItu/zMTH8xUImt/nrydHbP8tfJUER/ILYyfvLv7KYe2Hwaz5quUxP6TZ8lJ2URSNxeVfPM1r3ktZUAol1Scc/Rvcz2TJBsdmkHrNvQDIoteq6h6gucQ0DEpujFt76QIfqDFxUOG1rnxX3RCeU1oorumbgccxIvZtIscZlpl3ZzFgtnBdeB6P8AbVqq36sk7S0JlZecM1ddv6w8ispgxnRRpabMJsQCl4m4SPFOa+y6FIyMXZ/72+ayuLoxFhvbZAg3Cs958yspym3FZpojolnRgymZ+soVk2hWUxx140QQi2FMbUqXZ7teqr71Qq5VQ0cYy9U1CAyiD3sWzGaHbnU1dDC2mXbPpIvfWM+87kX/AMttGjcg5ri17bnBCFGIh5RuwPJGgcDvToZErRsj4IZnNIm1wkUXwwXwPe3635uGYDNWnHML7WKqphOm+y1t7ReocbSWmtnhfRTzDVZ+qPIqG0jLooivDGubFhjaPdwTHGNljSROzpGGX/Svv8s/e3/xX3+Wfvb/AOKdk0EucyGaF9+/XgMB2XEk+7N/ZXe9Xe9XK5XSVqcq5uKvV4VH+Kw8Vf4q9UcF0cdzBuaaKUZjYw3jZK2i+Gdzmr/DGbt6GVxak9nhmc03gyzTFHC5aLKpvGD8VByqC5r27xvTX+sARnkRNGJkkt+i+SLHtLHjBwz8c31PMVSpTOii17UORmRy1Bqt/Vb8Vk7zk2lhl0NpdoQ4SnUHZPnj42WNsNY2QaKSWTx4oY11mM3Y5w05rIjXuZRwaZyUbn8NY6MNL8LVyLsph6Nx8O7U/uv7rBYKZN9yvWKmLlet6uarp8guyFcFvXHdJZRlOUN6GQsneo0RzbEMXBqgH8gzF4lYi7Q+OfiqjvUKC59l4aBJ+PLVsxmT3HEIugO07PV9JFpEiMDfqU7wnl/3bPemiHDBG67qv9xqhF2SHKGHRz6G1cfW0ZAH9Q7r1CbAyey1ws2CQzRtl9UWTtJLrIjNE3E+kxZTl0cPZk0Fzo32gWnAOtXTsSlU0rzURw7JkR4DNPVkRMKdgwz+Qroozm+2JqjWxfZKk+G5h4iSwzbLS7kmSbKy2SuK+ea7OABXcFJ7HNO5wkujhOI34LasQxxKtRTp3D1hTwQyKBM12pYlPc0Wixs+agD8ssxYaO9F25FrxZc0yIOpCiE7fbaN1VQ6SHOrHIAOsRPVdq9NDBdg8XhWof8AiIf5RUd2bghDhtm9NhsEmtzCRFMHXKzEMpYlcNd3ttWSTgsdLRG1Z278DYN3tBSc624Nq66fgsoZkEJwLmxW2WutlxJhT+XJQMgY4DKIbukMQPmwCYcPVpaFBv4pzJzsyE+4KZ1e0PFXhX6k3wWOPJHor8JoiEwMnuTokKLow6siJ1X+YbP2U77TELt1hDQRS13/AKlQrezEaL7IuWCvRMKxW8Obf8V0+Sgn1mFVe6H7bVTKGd5RZklXf6hFydlkQU/lk470YbuyaJ7DQwnSP1459PBb0o7QHpZ/erTjUqYoVJ9+9AB+kYPQf80ADYieo7NwzlxFiIfTbigG2HtPpA3c1ZZVxvccdX4oB1CccNaJ7TfNZONI2Dk7oIdpHQg7n6bd4wUOKHiMHstW7Nm13YKDUUMYSB7PYoo+X6Vz3RWlsnYVGO6lyecKeSxvHmrnfvK9L95VJ/uKu96JMCETaNSwb1/l4X7ApaCF+wL7iH+wL7mH+0L7pn7U8iG0UwGuZovyZ1gn0cFZjMLeOBVxXZVZBVQgt7J7R3BBoEgMBmy6EPSk8ef/AHaj8phibZ1hgXcVIL36lKtWyg1/TQ9zr/FAB1h/qvp1ZabitE+pwdv1YvNvmskjZHk8S3oGf4lggus9zxM/uAULTWnRbItFzQCTyFE11ZtBH14K5RO7yX9TfPV7z560T2TnmjOPDH9QVcob/TXyWw2JE5CQRDMna32nTVYtj2BJTcS4/mqtyuJ4zV3ihDhttvK9aI7tO35y6Qtb0RnM7lH0MPZaSZDdPU4qa3Heq+OaTYluH6r6hSigwXcahBzHhzd4PXRubfNSmZK/Ow4zK/qb56vefPWieyVEZDivY1oFGukq5Q+XF5VSSq1VNb1Vbd0LN7r/AAVmGOZxOpRCeat6oo8xMovb0UX1hjzVmK2W52BXDNdVUzbNF6q+SnCeWH8q6VoijfcV95Yd6r6a92bihXNG/p89VnNHm3z1fHz1onslZRz1rqq9bOTRP6hJdM9sMbm1KBay0/131OqdZxa2Rca5ix7Q5p3ouybbZ/pm/uRaWkEXtN+auaqvVD4Kt28BB0GPCitPpXItLWjjaoUC6MNEPQDjXNu1rs8f+nz1Wcyne03zHVv3WSnR2MAiWxNwz9HCfE9kIdBZ9pwXSRWM9mq2i6J3yQs5OwYzlXqLta0rJvzyismcHYhEwHaYeqaFdLCfD9oSmmsF7jIc05j2ycMDqHQxLE8BUKUaIXN3CgQH3jR6xQANiJ6h6qP/AE+erDRbyvQPR+BX8v8Aafmr4f7T81Us7mn565ViI203cVTJ4f7V/l4U/YCpTqqdTNqkb9Sy9ge3cQtI0Ydk1AWwWxQLsCulhOZxlTNvzaV0SyCTRbEV7TvK2pPh72CfuQsRNjcahSiDR8cFwzynXUjd3nqw+9SwTOWp3/gr/wADLBcc21BE97aFdFFczg4TCoGxORkVChvo4Xjvz7bJnerRBdwn1Efu89WH35oTvyhTNM5p6Xy1z1p3dXTMQblJokNeea/Vnq5TyHmNWHzOaDT0RqO9r4DXdz/EU6uXV5V7PxGqzmc0PhRGed/P4DXfPf8AipDNT8FlXs/HVh9+ZvN3nmkcz+evEp6X4ejgRyV/uVXCXJdv3Lte5dr3Lte5dv3Kr5nku17l2vcu17lIkT5KhXaV/uV6kr1Qq9XhXjwWVg+rh3asKuJzf1O8zm45ondru5/hm81K7VOCAmt+aSGaZ6vK/Y1Yff55u8+eeiid2u/n+GZzV3ejgqZjbbanWu+Ukdi91q83zmpSpWkzjemt0ER7WubJzayNB8fcojW5FlZnsucGkGQu7kwDJYtbTdmt0/oJrvskaIHHsw2buHcormQMoboTQEOmb6t8SmSySMzG2Wyls/Iy/wDpNf8AZsqnKdj0m4XT4YJgdkGVWQ2wNmVDLjyT2w4MSG3sFsQFpl9FSa0Ye4zVkMoPlJEQ2ynxnq5X+lqwuZ883edSL3fHXfz15xXhvDEr/C5IbPrxqBOP2uExo7TYZqw9yLj/ABHKI8NstxBmJ4lQzKMbdBOScIcWNBEg60JY96dYy+IIrauGUNu8948UbUFmUsHpQjUqTTJ/qOodcIS6hujLQMQ7FGRhg702Rh257W6XBCQhl06zJAkhP7PdhavVNB71tSnw6nLP0Dqwe/zV6PPUiT3N+OaozXKuZ/PWGSZKelPaf6gVqENO93/5Ltq0fy8cRNDSPkC2y4OZ2vzcPmAormW40RwMN7bUrpk8sShZyaG1s9sWdIRXgeXin6TIGCLe0aEgYzv+tpRXOyZjoHraLaOz/fzQa1jYYe+zsxCKjcO74p8PJolh773uvlw96sx5se2ukbe3iSnwMoHSsqH4PGaWoOalcnvlMNE6XoSmKTru+ih00Ov5gi5r2ua28g0CZtA2+zLFWjFaGzlOanbFnegBEFq6SAqZ0oFsEkb7KdtDYq4CpC2hUn0ahvzRNl47k9xhRrM6bIRGjeQOC2W6OKaVaZBOLMlIukHOF3L6xRstZ3n6+ve+bJyExI3oPFdmcrRE3LbaLR2ZTuaiYbdIA4z9rH5eKyy02wdA7yOrB7/MqtU/nqROTf8Au13c9bKYhc1kV8Yhzy+wbp3yK0xq91A6c9m/v55iQwTJtd6dE0O00yLZu/8AGfuTgQ2xZtNNq9PtSZKVTx4e5B74ejeRUXyzNM2Bv5lk2LxOobKkv/rVkXi16uPgmkcFMzKk4AgioOKFmbJNsiyaDuuTby4CVue14qGxzS5sOrQXFB2iZa32VOyJ70aCpmpSopukJY6tqJO36ENpv+vn3QxCs2ot1uYl3J7bYZuIFoiV81JzrJO+WZgs2QRaJPknuo0Ca2jJxHoINAkAJLK/0H+R1YHf55rU3Tc4+cvgryr3e75LtH3KJUmjfjrv560WJYMfJI33kMYHeocbJHkWaaNuzYGOzj/aSE4TnPt2bEOp5ywT4VpsQ1DmHwVklrnCptOm5fejSerbr4IObDY5l9GTTYbZNAldQD6mjJmjszFey7vmtE3p3H+UG0H1xRdEcDEduu7lsgv4BT0dkf8AqOl5TT2iLNzROTG1TrQ0102OdMEbwFDhgbD3Sa1jRcbj2ruMkYRcCWmYH5fqa3zUuorqANjQ3E4B4RmxpnfMJg2GEmTcJ8lbimzFf6DnXcBqA2RMXGWfKf0X+WrCwvp3nNLcT56j+Q+Ou/nrl7C+BE9aGZITMHLGtuEVsirR/h0RrpSnD2golqHlM3mdrRGYw8kHQ2ZaXSkC5nP5qxD/AIdHeGmbREAkOUypQcjg5N+Zzpu9ytRsoe78rNkLYFngFEY4y0gmwea0Rilr52XWBduPZpgb0+HEiwmOiAdFKRbyGKh9FEyhrRLpGCf/AFSTGNZCY1hm21N/ykpGLEs+q02APCqmxtcXGp8czw3ZcWkA3VVh8Tpamry4y7/rxUnOtnfL6+iobREcA0zpjKXyVYoY6c5smcEAHtebQmXA3Y481ZD7HGU0ZuBbgJJzg+Vrh5n6uUVzI5huf6s76ceCdYfZBAE6l1OM1UtIIkaG14zQc6I4PsydYoDSU/eU0iZLd8uPzUO0ZvbiKfX9ymthnZDrW1XBbRtGZrJNiOfFtB1q8X+CDWRHNE51AO+7xTnAnavzxeMN3lqwe/zzO9r5ahPAa7uupmYSS17ey5uC6R74vtOp4Xe5WWNDG7miQ1nNwIkmQ5uIY60LUj8ELzJ1vbkfgrNzbZfQAS939+KdKIamdcFfqUIlfNNaXgOd2W4lBpcA51zZ35gC4AuuBN+epsjjnuOd3snUKgcj55ou618Bqc267uqunmm6TW71Ks+Ikga7VW8fqYUNwmGvntOlTnmtHVMsxlKeFFL7S2ILc5hpbWXPjNOGlABMhLDH64IAxi5zX2p3ypLFHyTpxXtE6BrkBpolni5OdORdKcsbvl7yjN7jNlg1vpL67058QuJe2y4eie5NiW32m4TkPD6uVvHkFpbTrcrhJM6S1IkkuFTf81tOtmZM5SxT2l8Sy42pU+Sdt2SXWpwmBsq96e5zrzOgr9VVh05cE4mbi5sqypxuvonBmLLEiaeXBWS1rZerrZPy+OaNz+Go0fld5t14j9zZ1R0jmm8gw2nsi8yrxRMnCRlUardhptSwIl5/WCbsvwmBZlx4oWjZaBXid6AdFM7MrLR7yrTnxI4fIbuIFfraT4LYmlAvmfigBNgHqEt8lRoV3VNFZAzoT9dys7Q9lxCcA61I12riEJkCdBPFGdwVkOaXynKdZIMtC0bmzqgZ3inEIFjmubvaVTWIM6cFbtCxvClaruVkmXO7xQliJgyp45xiuzZO6efJvZ+OaNPhqQZeo/zbrgSmC2s0zoxsCk6yRLRK0Zul1E6g72uLfJAMaBZoOCc5jQwu7UseqKGHemu3fMH4BfeHtWhMCisvdaE51HCSaDEds1F16c4vftcR8loa2JS2TLyXbeR7fCSM4jy2Ui0v+N+O9N24hk0t2n3hdq1xMvhnvzXrgrZv32jRFoAbNtm0L5c1aJt7NmRuQcYYm0WQMJckHBsjfejUms6meb//xAAnEAEAAgIBAwQDAQEBAQAAAAABABEhMUFRYXEQgZGhscHw0eHxIP/aAAgBAQABPyHtTtx6UACs3ZXAHjKwStzesXcPaWOYua+8NY/aaEntKuKsg5Q6sTaCZYB0JkqlPaA6EpwQEwXsSuCEyW9x4vvA0hFekp0lJTpGaQqyr4iIJqVyiG4jpAV0lXUPSr6Gs3ZV9Ib9AEyiICDOb0I8AKl1dF6G6rklw0oEIwwRZqmw8y1KrG6N0e9jjs9GBkyhRD0W+T5Jqj67X/CPQQhx0Qj8yOu+X0lOsp1lOsbgc0n1B1ux4mXoIMzM2gyqjGECB2hAqO+0KHi5cHO1s7JTHw1jbW9e3h30uaYwfpdn3OuHM6eTjwwIJYQMyqe0qNIz7TeBq4gU67YnD9TTCN48xq1gvMsq5vUyj6ElFwq2zjMrMcRMysdI2gQZhvtFF/GJyId6tBhE0SHphMdYkHBHDfOY3BtjpVWGIgYG6rnVX1++WUAyMs/tfzK8ml+X9TRyyIaAy5eeIlfN1Ace1pV14mzLy3Df92IKIEyQJVNwfQe5CE16ilcBczz+iUh4l4O2gB939SvQu4flKlXA0CWcyGzjNv7f1RjEMopPeVIQ8Wfvv7g5zPm/3NUF5UDjMZbalYQzL+0V4mxuc6z02VPHX5gFT9oYnsuZYFAECYpNi0WJ1IgkWJV7+jKlRIxUxFqGsrPqJq5UIFvBcsQ32i5R78Qz6f3OkXFcxW/9lioPiV678TpX5Uz0574HS4Hs/rQMSoVOfTiHoZmvSoLgPabNo8V5tO7+rcJtKwVT0qeR4lyinVGG4/8AjVNV8Ne/jfebeQq6jPlLEw3BRhWhZS6v5mM3Hv8A0r3iX5JrXEG9RsiTMjATtCkOfcfEcnDiHsh4LIckJQsWh/8AC/ddYHlHglY8xPR6RJUSJiCVV+jLIg/8gYlTlepQgG8Ibg34hP4O0GLtaY6bV5iGFY9I4/A7rjTO93wr/qw9OdTJcUJU2hBFqD6hbIkqPBusdj/sGK811fc6neJt4hQ5qke5Lga6vd78zFI2kZ8f2oD8CjtennXeLLKPKV1JzV/4MxWfAU/ESNdvLsdlzvVBhgGEukT1N9P4v/RLBBnJYl+0M1Kzh2HSp+8K5FbDJ61UTpKuMoJ5mBh8CcROsouqgUzmHWb1Aw5lYhjMo7PSkgtoBcADNXMQtv2jwONx7ANx/AcIEqXkwEOVmR0xUy9RcufcqMqn0qHwiDkq0vUYIxC1GF2dK5+ifCI7zFj4D0TonSXvWIovjpHwvKL3CdRKCqnWc/EQBoeEHdzb0K0i3W3q8zqWO+/PWUZ/EvxH6KbTXkIUt6GIkvCr5ZyqXfdP9A9ZhjiPZb75R+Mpat3HC3E5mMe6iLSLHBGFuJLpmKu5bbZjjM6CiNo09fQiAo7RB1A9LGV1PzD/AA7wGS8OULnyiQzrzcKinprkxrd9Jkzl/rOYRYYfSQnHoEYqyjiVj0MEzQHZLHqtSz4uo9clzoc6q16gKrxH8f8ACICTQr3xbDrHJLl+HhKP2XoE/wAoT9wRruGSU2KE5Ib1ErJ7ytF12v473KHM9lfHWFimfMpDdLtsf7ICbZQS5efR9O6blYjrUdTD/kz6+JVMro8wwygsyTX/ACLXCtw9Fujodw+orM8Gc0I06eCbqogsL22ulRh/FjHPo6j6w4ECLghdQzCn0EoqVgVBOZjfPoSyN3M5afXH3CwdaaPi1/ftLHCnmtRxzMVD0BJSck7x8LKhM8P9SgTMJWfmT9QXa7d5yHthO1RwkDEfRfb0denERY49CXTXWc9togcPvM8TwgNHzKiTGq7p5lAdo0wmjH+kqUdJTpAt6WB49YRhY3qWS6h2hZD4RLhDM4ghjiDLnf1BcIJCyU46Xz11zKlDohZ+Zz06Wt8y/H0JmE1Hct/OsQnPxA1Y57+ZYsg45ejzg6qf+kpn5MLLUHzFq9pbrcPRanEPMuMqYeJaze4WACvWGtq3tBtSz4Is+YLuVR6JbMlxzCv+Mz/mz/8AG4rkAYizaaQgFPaVc0/+D0M+o6Qi4qpmBOJqYK5h5yu0LnIPS9Siz/1IwlGuNIpe7iU6fEnnh7yr9GHaTuNwYlWESXno4ZfLDNB1LIJUNM1Vy/KDZGXL9AU0jOD2ufe8gQZi+8JLqoOsIqhoiNHWqAqAVsOJRxzE95cc3xLcdIqh3Mj/AFf/AMGyVWfyYehgamoGJqcwzLuED0PTUHEP/jaMvRYYzjygUUd4Ty5/hKlFtf2wfcXXlEkvZcfEB4ZmfhhLJ0DmQiftJaxGYZGmDt10w5/gjtcu0Y8Npo8M/wAeD3+R95gjbvEzFW8ZfcS1NwIexcW+AID9pDPiVaGRywfJA+mRfnvCTDqQMwDNytrm1tA1qUbQsv3+ZUo6pU4KDpO/ouYsXEyxXOd/T/8AHM8ooPhNHT1W55ihmJ0YajgVOBfMyPQlfPqbil+q+yctUvt3bO6Bbc7bl+z8kBJvVgL3iHKzb19MoYgLLo4bzOwQquqXqb59qlB2yv4L+Y86sPguH7jjc8z/AJlZTNt8eY1NRbE1QnhE+Fb8w+p1o7P4H5liIcvHxqBgPVAgDRGkDiFrb5PEuA89PX8MpOtDZfiVUt9r718wwxBRiyZ33jLIdd36MLNJyn9zr63OYrw1h+oFymZd51S8RQz6CjausKIE16HpqDMuVWoY53MAR73gmZ1+kvsaiZNh7YyrjBhklEx9QtvB0gyYpySm3UbkcB3a/MA4WgajmD8x8ARwiWSiDvhLRxp2vXBDFhaPJp2zdQftaG/+wOIHebj2mEqJaSg6ypZzoIAaqN0Qvdpm/mpVCqeUxJdxwTjUHMZiMyWYf1Z/+DcVO90+KhhFfouJ9JyzRCDebuEPUMGMKbg+DtGAlPVEH2+JtXcDhwQsTzL7zcPNRv1m0zIU25vJ3HPidKm4dq5OTzCwalzcILI6LvsxLlimAtYEDxcpNoxRmoQWx013VmVDstmsd3jUCxDzcq8t6jGPVH3F0vWNGJ3S6mbgDBfXdzCGoRCWvE3jp/xv/wCLrmLIRFLWFiHozT0ufabihn04uXLnJDIYtJYec/3MY2plf+j3m9wGd0PLLLgPeUPcsNe7LrLzLqMUBmUYryymEB2hzCtiNvRlMcw9Jn+onUtH2QMlCHZB9EnVJQ4A85fvqB21x2/Fy28Go/1hX4AAwy/B1QcrkvUoWhuawVzKracoZ5hNR7RRGWXMUb33xGoMd41BVmP8WPVVwoHVlI6YIwxCsuCOI3XWJKxD0jL9UZP3OjQpfyd+057NfzBD0OjUC3r2huZ8Ryl9biVuMcE8hnZ7XBTQNwF3w/mUPJZv0Rz8vW3+wjH95u4cVPRo/EW6lUR+38QAVXK/R81Mk7cxYy+alaatDnSvuz0LO0FBzzXXMvbg0i095UwKt1HAgE0UtH6csqUUzzIbQDoQAEoQZj6rGy0WaZ0lxEDWNhd+l+q24eg+i36BAleg1iZTEAMrXOp+Z3d/4ZFbXl9KgTDZFuDLqZynLlgf6o9ba6sQcSs4/wDYcULXpK1F+YrKs+Ys1Z5hHXQaJhuAAo7vi4pDjrPZmK8Sx1GJdkYjABeFb1Zr+uh4/wCzD2byMBQ4IYl1HiKelQYy7m9ffqMTUXrkxzDlOj0VT0gwYQOZ3IelSrONd18fuVbcbFxLikGSNH7QYxj0DJWYRqdM0EwG19pyxPQXvSXNfK4H/JAPHmUiTUePglh0iKpSKOwiU0dCZ9WVQ2ZMo2Jg6y16qleGPm2VhL7SviGRYrbXb8eJaAvGnwisgdYzU6PJ4/2OhstYwwCFFRfmXnMXH/zgTWJUvMpDo+Zwn0LXozMm/wDuOXCCCeU4hBlSotl+iw8xk/xAef8An8toZY5YnvLDMKLOrR7EaSZf6RbfZqXE3pcvLcfE6k31cfUonKqi+tEaUw5kbWKgZjVqPfUKEHQLnf8AUNkBgx+0nS3Fv1jxzbZ5C/TnxscCJFw1UZXIAb2vipfWR9K/iNyUkZw67tMFgAIlYq/adp5zHGYs1DPo2+iybMbs6eldJcvM3/SC82jlGay/7YobgzDvFLcDpD0x20it1/7LWkfc/UOcT+eJfr+LtAXES0O7JnxLlxsOVMfUZOVhav7/ALz/ACXYT/4n+Ji5MYAS0AJwH4SwsvLfNQtzlVZ2DjzMjbWoqvePWE7H4h1L5/iZc34jrErJfwZxw95V3dKl10/KKJvDTjrAPDGCnblO9RYBZBt7dXv9QPmJ2ixf4YOUXWsK2YhQ2lh3T8wNlGbJlCMCww0QKd3CPxLUfcMq6qXBVKmotTDA8zRGb9Wa+lKAxFu4/D/tPmBx6HFcQYBx1ly30F1wzKdZNt5wv3gl9nwfiv3LfzILw5613YW6f3eY9N9bimgJtWD+34hSLoSBrFMyg2qWylAgsA95mCyNhjPtUbt+ZmW0d5Sss9p0A94CcjDiWCALq/KDNjVy1FmO0wSmzrNUqpwzMArAm73n87hRA5YWvLfzOaZ5s7PRl0RwlE4Bho6sTLVk1ZmXbAaRiusdggicy2mps3XSMc4dZVFJjkHtHjpAaINGO02ejE9GPqy1Y2RYFwlKOHpKuH4loVMgBVgAyxxJbYd7esj6FdZnCBogyA7YOUAl1UJ57QPn6Pf8zfk8OOp1O5NXxdA6faS0Vr4ZfKibCvInUWOmJlz7WyI6TziDXR7Zl7RR6H+Tbr4wy60/tLpkd+EO4fM9mIhvHvClvPSqgXbh6Nxo0/NYjW1T+Y10phimt6F3hp8aZz0n0uxoOZmEqPmmGCyad80C1g8WwCzC5TYrjf4nAfCZvZ33OhuGytuW/iDB5kOtQ9ObiRxHUdR8RmEMSrbUnQ105dqzqDJQHbUN2EseTnEASMouAYo9yP6bMsZjXIkLktCbPS79LqYO05HpxV7zfemswSEy0Cw4PU6PeURVQ25W6/8AEof+zLlJTr8EXZDxA3mjxcASQHIdz/yd5DiXx8lv5lZaDt/iddvWhU5weIuZCMMmieJgqjdjLpQvTL+4YA/InCw7RFUdaiqYbVDntYxld/3aBiDLWWo6l5fns8zBh3rLGH2iGKWbxcS1WQW4+U2Fa5dTOGnsl07RZcukGnD8Rt/drv19Kv01KiVqYDXo9vQf0cQGAw2yuuufaakWAocaW32ubp1w4Z2pTLUwc29+LUG6sbOkwniaQ8egQNx06y6q/r0nv8Qz/wBg3dMG3Er1nn7QfbUGxJbL/u/BhC/3z0+4WWLRiPB0wOPsQd4r4jVsY4fDmGeB/PEsWIPC/wAmm2iMH+mKNh8x0MkldVezUpbU5sw7q48l4jVPXX8wPVEOmkdIp52GUtW1pGK31Ri5qm78ES74FzaiJSXQ6OD0mw4MMHMs5d8sRcczBHxGtW/EFN1MG9JVTZyoiZSHZ6zGMfUNVxOyGPRWIyq9Mv5czACAp0tbjYClWJr2gvxcotwL8KKPMzV6/wAoFQl5mpcNNRZMLlyO8dNRoIPvvC/2V5ZV0/lqKHWhH4uB8Mvn4Czir3m5cGSRluCj2mTK3MKMhWPtNFZ5dfBr6ntbj+DD8E7DPR+Ky9zbhqWP8I07oXyH2iPPw/7Mi7R7SqPuEr8W9W5hodgiukA1l/U02PARI+zLCYC65ZUeO3WZPW6bj57P6paVUCAvq9+8bZFS55YekIhcR1XqKCgzgxE6Ye0TIbhas06jkrHaV03HPSM+B5I76MigejCOYWIzcYxG+3p/A7+iUOjbQXgvHJsTkJDJKF9Gr2FbjKqi1zlKAsIRcjBavzKSdKLr6ETmKrMhrm8ce3xL/m8Fn1P7zBo4o52iqHDkKqXJRuL8+G/mc0HT/BEz3wXzcrOHzfqHZXmlPpnXZSxn3h8vSGAFgpwzJ+zl7GPkj6lwUoL5Fchb2P0i0C24HtFZk4SnXTNE48x8mW3gx1ZXJvxKNFDueZJoHlZsB22e3Q82yuOB8qmTimXu6S56TXQA19zBw9iOy4LyiXNNSrpqFPfFstxNqvcwCzzBManb2inYmUv6lraOf6IPx8S0OZx6OYkPQL7f5vQ4ZUoFAu6Fr27bQayZVR4L68RYK3aPOERRSmQm3JuOWaIQfUajwG3oj1E1C2SYmPM4Y40X3IOD7pQ4U94DWXszoK7kKc89SLqEAOtA57PWJgNHN/57/MQAJkJpmN1nvusMx3N10gVPpkuF2ygvvUsXJ2v7n0gj+RgjPblkUM/nI0swL1vfGfiPDx6n8sF9JyEDoVCeAjZ06HC5tlTMuDz1TSc1Tqw/dPtFBoVeHiD6A6GP5H3lH2RLWVnUqoqSa4lEFvmZlhZyRVTMK6DM/wBoUxsrQl+U8fj9Q0l4i5qNMrMqXLp6zDXB/M65Zi5flhOphVQcSybU6QgVKqc/vwPaCvN3Q+34HtzDeeXpERnMZEAdMfUu/H0ZZeLV84l8rHWLCnHSZMX7Mu2atyyS9xrfv/sIARLEdyhLg8QxMz8elYg9D2l9YdhKOsm23sKf7ftNkQ4b3DpAVB4RTPiyEbneYjhrCyXzx+nu+jw1bjMlM7OsStrW47Kf9QIs1DPJiWNYZluKgNi6DPz+oR0ZfxGxEgVz3zLmA/inoxDFRuM7cYxTnc4OEjZmRMxAFW7LrjGhkeGUEqD0uE2S6jn0IBy9f9Hc9+s3QYDPk6ncxHOH7hTljqw+cQ6FBbzZ4vKWwOO+GIWHPSbKxmOnMzm/5grtiy/eAUYPP0XBl5jmK8/iLFqXqbCoB/MywAPRwuonjiMB2ZemhtOxjTAC+Y/seh8QU7EQqzfD/bgerMBobriCdNWDFsTPLyDHyzOIJfCC1fh2lBA03B9kWJkhI6+1vIf3aXBYM5uX3ly79LH0/F9GVAUyFW0RL8SNFF7476i33fKe0C6yOwyhqVKvxCBcEXC+X/4xOZjh9g7HxEuXL6PjR9/lmOvSNiU8fKFvHwzyUwBeKuIMFHPCVGAOVBbs9FXCfoJ8RGPaVPcBX6PxNF5vWJZm5smEPZPMZRlZZLLg/wBioKbrRyu0PKQU89XmDRdLxFPbl+YPOD47MJop1gylj457u/5mRTFwml3+SB6GFSwF1L+vTkvMHEy+XmLwz1KmJ18wqrYx09Za1AQ6D/369YTG4l7e0qt27Q/wcZzLHPaYnu/cpMzCW2yvZlCVforEMTab9ON+nPppMHww48b+tS33ale1+mXpFqB6Rwj0ekOFW8TIKGfDOh4HMfFPLFbt91XFxBD5NEwFhvRp+J11IKapz4+IM9nJ9tP1DFlSFoXtKXDzXEcIXCmpY34+5L09vXTpPncDmM34mJ5EcHi157Tq9DyvaYEhzb7p2hgQWHk6S3naBZ5f79yxgl1Q1/nea7IQmKZ8Q6moRcgxYrmJi+YpwNawcdZhRuSB+GF4X3t/ZxMOH+JYU79MXMJBMz78Rx6tQHca94wx4AH2PfNdGDQjNoNYlt4r9zBblMtd1LeGeRAvtov4izDtEHCD2YMDiePTcKjuahrUo4r3i6huVuoV8BJ+NdpQs+WE/HsrxEPor3IdIHd9pWsh5MxXIF85l+fmjXWi9GWHK8Zo1MyOwSZrPs/5i5nvJr7qD131QGCSQFabirqZODlFswPI8mKngyxxSz3WOBRjFSmAR7uoww6TVvDMHNVn2RO7WDZAVmsBl+j9eIikaxHZM/3IYTqSktWbwHk/yUGnxMsLfaZXVOIaiFeWZOaJYVcsfuP38xL7prOI1cL2Sxa5gel0wDvF9ZSURTz2+FF9lpgZFxDRF31XgjB4DkHa8kZNGEylu0FQQOky2SiqsmpqGYJqYZzx6EtllYlZlTBn4lQ3MXIopnwdntHcm7h8c17PmJ7Sqlu5/hEjoTGTJM6exJl/xDI80GoMGeUG13dplM/jEuHg97uLsVfMrbIcv6QyBpdFB6wUHAlpefzMS5q0PPsE4BaaNviVR1ByIuPMcGRyTVfEVGV1ABvbVcwZssvD4eH+pl5OANhezGhh3DwDpMdDtA0LwpzEui06sQ01xOK6z+XDIEcjoqGItBWeYoeU3kgXlCHWLiXiZ4gOEfzTHANeXS0diOCcGVACYXUPfMW09zk7TW5xr+G0pqslze5X/IMPMISgtwEut4nYzFpKhTph9TiVOZUNQnM0LTBH5hL1Kf5IkuFBXzNaPfAM+WPyI1VQ8ZplixYOtxS3rnCKZugF3/dpj0tn+jLCi5i8u8tyACWV8vvEQZ93iv7QAqkDapTL5jG5Z8t6orvww0ueYax63DcCrihHPI894lmQbWkeJs5OkFpgAWfJmEZWrPsw9OIefjlR4ck+soPFQPOOK78SjJShH3iupt9a/wC5fmZdpQ6qdcJrcG5xM4w7v7Je5rJ2mqbORq7SKaVdwcXVi8t+UxgR5L6T2s72q1Nq0HFrNqllBW7Qm5cCVDBqoJc2zLi4BNRnBdM4mMQAXSXhT8Qm3vAxTADj9vTmam/16XUrBEubTKOdf8EKmTy/6nQ4gIifHgK6FGPaFh7Glfhj3Whynu6GYfsZ2F/8jqE1J5V9kDTYkXMfuPF7JjUdRpr9RKTviK2dGmVdrM6Fji3mYx1wdI3auMY67MKoS5RW0bdhuZBKxsm18QviEDofPfvB3HOYYanWwxGqmDKiVoX7L9QXX3sL090S7l0YyxgMgtrjNRelhn23xmMNst9wAuG/zeglSpc3DEMvQv8AiUufhJx3i9iB4IpeyvaYF0t7Ma/32hntuCOQoz2Pm4PeKDcOPKUb9JUqeNy8+dW35EZ+Yd5cuosfqjg6znGEX/GiNCxLk5llmw46GCfoJ8RER/ClTbfk/HtFess8MPWGCsY14izQ7PidVVMCWP8Asd5gXRXHDEz/APUKyljW5YPziYgIKoCurCeIGfYiw4uVZiYpFBvE47ehiZtQawQwNgfFnTswsgIabqzwfELFxWV1mCwowQWMsrt8oQ0QXqYmvMuiLNExVv3REHdTr7SV0A6Lfo/aVlHhP2lkL7L4oRaz7SH7lv7scs/icg8lCjBXsEWLmLcV6OMYJgtDLMr1f8Yc2ONXx0/UrAvFmTpnb4uV0ZdwVMRfmG5dQb4WpgmRiL0rhvVrH/kuavQYrZjWaqCzACsNep+4f7ZrslXxd/UxCTV1a/cS0x2zxOQ5i0cgO+XQY/DXSDo66zE55Dzc1SXXeZVcLh/UIV7Hoy0pXw5iR0PMc5cMusKN6XmDFRgvh47yiRhrje88XcuW5HUPMmSpkOZfRUIcTiKz5iv/AFIpNQhktVl4sIlxcVtkpqoa4a73LlEPVgcvBgOilM7sKmSl7bgCttwDtwLBnMKmmDF1AkQSOAai/u5vdezNGvhln/EcLtJ1uz2mHaPmV2hnTrMF6j9S0gDxPC8Jrx66yjgnbE7M99xIFOP0kUoO/wDp/wBgoeRf73LazLmFwrU9pb5toWz/AHBS0jm7Ajux4m/7Mjom5GahAvjo2/UAEhVRncFPrbl+vedIHeCmMGQDqO5aoM2C+Xt/O/ZmG/Lt3gD7wV2DZHCeZbvdEdP3WITqDklVx+5a+j7j1M9Zft7lLql0fOolDhgo2Rn5gp/SVi+IF/JFjMElRwQ2k0/QOZsapsbZ1CZLs8BZT15s06VEi75IHXpDiBfrdvoVGAnWsPywHhPiIOz6Sxw/niX6Iy/6nRZ8M5VnQI2AZoUkquK8y/JqKS6/iL9TtKtFTyb+A/UBMe3hOuQ7JO4oN5ofpCAB1v8AD6nnQx+rlWK1lzBLgOHrTJf9xKKuIu5FD2gZ32lA5IiAuMiWPPU778zQocmKNnvmA7XYQg/uVcnMp4jukespOGzwc78eNTYzCoy/Z2jnf/k25/6jmlD9yg9vcRp3OnEB1q+YqgeAC4gdARUvw3M69JeHWeSYm55eiw/xcQip5z0LF30roqF4KIaANBxKIognAb753F1RQU+RrUdVdP4QTrcw9Lv0U6hg0t7Ss4qBxiaS18O5W7z8yxtp8w9/mPcwjrDTZ7swWkeIVVTTzst+LlRgva57T4m3bU5lh+pBMgL5hFr8ls6tdgnRA8XDiPvUtCh+pNt8tMKgk2g2dm696PeIDAoFC1g9qILqANNeIlqDtaaevD5b95VeUdPEsuGHzPPapz/2KJOcHRl+t9pdrUyYbxKxRmVSexTswrvAoP6f7EW2+k6D3JV9RNv31gzdo/Uq7wvqcy6MAx1PEoE7CeHaWL1mS5W1YZWzG0NVOaYHMPRmezV8wMb3BbRi1A2OrNGCAgIx2gJjBT8QzoowIO0L50V06SuCDAANCzUVYRmpsFbJG4Fy67Fwb2ZxiDEFjICbExHwQ21fBr6lHMchF8VVfcEv5r+6l3h0XGAeYvp+YOqRWBfiUDDKZtbtfli4KuiThj2U0ooDgI+CGX/6l97iKytFbHaVwqR7M66VjXyle6g2v1Dr9Ao/NfvB90B2VHt/alyCcuX8waQKOHbH6g46SmvdTa4obkAGKidYFu4loS320f0YL7jiVVesPw8ShTmx57PMMsoIJcpwArA8T+tTBL1fkv2PqADrc7UMzbjj37QxhKA/usCqcxxoPKT+M3y/uUQdvkgVP1MgHvHoia3DGbiIPA/NLEutuue4TZ7nvwshN9b6PaUtHqtsO6q8uF0DAUDAItglrV2OTeVcSjiXUiRKDoXLxcBcGjpOZviGaDN+6PSfMbKsvzCqxU5MToSl0lCdiyo8QkbtTcoJyHnnMC+BtUpJHRdFdWISy5wQ9glXg1tL7vEEza7VEujwEsgGYD8v9Qo8s/Qf9lAs9P8AC5zT7J+ZnScOJ4EuI68jkUGQRUdmMT+2P+xmrjTzBKlWFrj7PuYGbLu4lZhc+S9+Y1U6msHFAaO0cyPW/wBjQAOHF957yGMdDYllnM432eZYYgy930VEa/UfLxOWtnz5HP5hFJVi+Qf1conwNly5xxKuB0nhNktVh2G/MVfUhTZfpCkOKqI8xc9WfgTAyhCJRdWxoE5xfADAQGLm7Zt0Ylx8pksvYNXxiXCuM6VKOhpFYtMis6TEQFhV05EWfz/M7X9e8wQ9/wDtP9OmbMyQXLtD+u/E1l9XR/hKP5PqHTpfpsR12NsYt+ipfeU9BgiMAzn2Mn9R10D+AxLhHsTrZ5YDK7AXAL+L/wAgCJoTyPbpBdCoCgI/EvFJrOx+yVUw7wWQL3A1B1+F/mNOVNpv8p3aZnA9mOfnqfklO/GdkzmFOezLo0cmHj/UVtfBnL24fzAiJxGkxHgM9Z/LjiOEXDBZTklnxtHWJVxov+G5faHOczUwJ/G6ZYBM3u07ix9iFvd7cxVQ9hSMuIB4av8ACd58RG6+R0wn8bpmE5iPES5qf3eDNS5fo6/uxDzqZNzKGg5mkRu8Udr5790trbhtPlH6g3QNTHwBFtHoX/X3LsPymNN04Jq2PB+oWx21CSvpn6JT2sr3FfFwrqadZdtzDTMxQxDMtKllSkZcwgd+g/8AJVOd94tWpjx9xo+yZOccyOGmepELOwZeoifz2mglX8Mq6hgxnjk/EpuUfwE/wigNq0M2lFdoEy6x7Y5Qj2JfmecHtpmJmX6Zf0YyjKnFzLtFuZZzOQR795V/TWGEuXn0YV/u0PUMGZ7/APnCawXBdZ0w7L6E/uWjuH/sur4LnYvENv4hXCoD0qLYahVdoZBQ6sB5PR5/zrUwlrvz5IRT2iomAyiwEACw9mJrrfmUmwIL0yzFjouPBz+ZgOOg+z+YHXSnYz1Is00/mYZVHnvArP54l7VeHE537EEavvHXl6qvsyrP4y6fUBUOTK/x9mU8pWGZRUc4NCS1tpLN7lIBSgJ4DcNSqdc/h9Li+gPlEddr8WKpczmoaq9fyQ9LhCB/JqW1enHgmL7zL/2fNitegdtIHCLscs0w7/sRcdo/iJ/OOnj2hwSqlSFpmOFzO5b+5lKBnwjLVW5aSBXXM3IYpMguIdfKY/t+fMTE1Boe0QOGq96iprqu+sTwBlKGHGOYg0w32xfA/UDTcdc1Du3ZZt4q4AnHFT4OfmVEk5wVVqveUOsVsi+X29EuWEbnaB4JmDNxf4fVlTPRUAGOYSVUcwcxYsL7/lhKl+oYHb8EbikuZvcOmWdvM+4nT5ISCPUFfdxL44/5mVXzdX1n7mcYNAftuN4pg9My0KiSKqBFNXmZN+0XDAh+UD0rEMJgWJXiUZcINz5Sn8tOPE/rUrGv4BPw/US3ChePDrNayu4TR7RYuOhh/wCSji/fU+j6jnI5itvmAT2T/s7CkLPIfueJ6RxMm55/Z5nggnTMJ0l536LlxZ3OZ8l+H1fT5hmDhtQaYbI59i/6Y86Adxl27MCh1edeYOoP0FBlZ3ZUfBfehlL9PEL8j/hBAAAoAjOXoo4i7sUSOjLcpjjrAc5fM5ynTLL1sL1dJiMHkjtBvfMrGCMdY1EMZ/K2mJYsD2Opz1mc10Vq6TTt1W+RiU/VIh/xmZYuMTDAC1P1nzPagB+ioafNV7r/AL7TNVoP8PSJiFXK/lMQ56pQl3LsbG6vNTiajuXfP+P1fTPmLH3KMmOxqDyWufaGLvEs4WynZdRlE0i5bzLxDENTJC2kOZBUD0banMGKWeYrDRAZTwoBtuHW5hNKlQIXDOoHoIauKMHNj0hgbSX1jQvdEyBpplEQK4ZR3TyqElJcSaq4rvcjsofwsP3LGn4Pzn+wmKyvwqa+4/KZYlg9g/MxCDTdEw1Uy9odiVi5cu4wrTx+v0Yvofn/ACn3IABb+qL0xR5mSooilL8QtXcAo7gMeh0w2RV5qiIYIdpzH02lE59KlRkKwgR1KsOcTiEPES30ZTT0ZdnljshTPgN+8qie1EoUJtqBNohPpA2Y7keOEd4YP/mW2xHOodWoX7Slu/xCIWk8Y/8AhhAmQ/7+lqIr9UDVSejwYjIiJVcXLbszOQjaKzhGpGbYistKYONS5fpdEvEvM95duyHZLuBBgXAqa36ampWY6h0q4isS+2OkTIcEK2WQFa9Oy1PqFXVyq4lb4lCtsExe0RX+ekKSlriXc6Jeag7nwb1mEq+c/nmoeDu+0pCqVdZ7zjBBQWQIGJVM4HMxAEeoHaZ1CsLT0qXUoZZ3l2RvCc+5e+0Ot5lb3KOmdMG5d+hg9QEKK5j9hEG4VdE1cTA094pprvFCNPE+UN6U94tMPxLTUuMjtFheLxx3gU2MeJkxlFXDUOro/D1YQqPVfc5mM8fmzLbGK/eFsJpdn4JZBqHGJ0iThGLUCwilV85hiYQhKjaBGp+IDOBKQhXOahUOpEsWmpWp7zLfpoOLekznWNv9nV/n3nBXHn+Zcap1r/1M+K9v/cVYWJaqNa8B/wBxAL/fvMeP88x7DAyvDK/uPWC/EGMZ+P8AswdcBOV9YRHFdtwQgP8ABKNj4lDFXchZRRFcDW3l6mEQdd+SUhqOIQKfUADw3jcRjuWpf5ULmE16dJuJ85/Po3CMJfb1Qldpt5hH0ZcQh0lXcFTIKj3ib9cCBbxy+Yb4TMctx1yNTI5qCy+i71AsWerCIW35hHBvNbnmE15bmSUK6MqUY6x2R9yYVrfSHe4L13xTcFOkPUA6zzIKcThJV7v8erDcWXgfzQ4k/o+cItj7QrCYPIndNa+8KqCENQX2nXP/AAje9/MMvuh5nMPTWtTv6hma9K1L1BqWTSwrF7yjc7LSAZwzCvE0azyRNqmvadNUGBK2OKLHRoCzMWTkT5DQ/MWlX6BlfLrL8rrFjJvQZeUDE0ZykorbkmO94tgR2BRpqtXTbn14IPXa2reWeVprrjrHaC5OVgLm93fMYkrC0vBsu7OB06Kyml2WB5t/oLcTDpLazNKPt6Y5lAh2YZJ7N8nWWAGUFoaHw6gatVQq6/QTlITlyXl7sYq83FzEUzV6l2rqf/jaKWcrjymE7v6zLdwA6jHBWiNQdlYvMw1MagvUoJm3PsfzMpdQx/8AGrgx+pC8oObrz5/c6msRvJf+o78opWAVdntzzBxSsHldXV9ueuMMSMTmtQHPZf1L8EYPWysYf5IDg1gl2bq009o8LqtGv259pdxek4jBplwxuptcpUuI3ZR83LCu+ZhvEt75mEehZiohHBo3bjx/eYGW3qwW9nioSw0XLMmch4inyZ0OMOa+5R5BQaP1dfcTH4Fn3qv8dwb5juZi/RuWZOjmDOY+L+X/AOMmO3qtPtGmVJqd0CpdwFWmVRdCVOpVmbrGrpisM8IEfe+kzDM6y6gXSh4+V9v2QVQQ3CougWHvDZfM1Gvq+gHPI1wjjJN45Auh6ir9XF7gBXAofa6GgXgxRTAJmRltvj9skwhhc2G9e7T2G6jbYKMUo4a3w6G1S6GAc08Gtr3dXYqBRDDj4IdMgazG4oAMK5K6a9AMrphQ1K3mE7HdjD5gKaDFTNWLN1blqyXU1hWb1w5/DMU6CpadvO4Ly+EfeNuZC68+TtzfSeD+pf8AJ8nWc78g2HnpXPTmImp6DfP4fh6RdjOmUv8AvjmLjYALKfrzvpE03I0Aq8hnUv8AqqewX3CNXmEwEay7e9TLDgLi0FZza967Rg+MXiOLwuK/zxZUoreJbm6LKLNcEPBrRVVxViuMY7tE5wU0OHbNf18VDKFvLc8dR1x7xsy26gTr2wHa9MaahXGCpb56Z+hoNSRjRZ53xpisBeZarky7/wDgNk1pnfAXAKPt8HqidIeLX5oq5wsCwprcT0ntRxGoXKx6C5b7TGkbhUobFq66wUEMjzJLXyd2BcahuC2/B7rV+axcMeXgpxiu4mx11V1ajQ5eRWPljV5/CVoe9b0vP1KyB632L5mGsdo1N1S5X0aumnrrcO61dDyccf8AE4nmGJxQfEpUng2/GzFRNW0a/ULvORrmP6gh2DokMGiNQ9vY2cE67QHbH8OnEeSYnhWuc+8XwEUVX4v3l+l1pnGpSqrIo29Yu4PQkRpaAu8+0ou/RxuYQyUm5WFmjF58uKjiZWzQq7wvtmo6IL0wFsfQQFw5botcOj/pjMs1etxHhtgTrTFcZ+p0IAugOXX9zKjrlhV9HPz7yk0gOgTE/wDxREdD/rDMBecqYopDjoInFHt/ksmqBff9vEo4QZr8DvKLiYGVSUuFT7aYRS/S8wzCLc3daKNVw/JzoHXfPK2jTRuglwTXS5lKkcZrhouozSFDvA2sdl46Slbl0AY2rnVZ6RlQK3TRXd0zqJERXcxVhXRmqJqoJrpgwHj5KlVsWKXkacCa4vZLbca8qx0WnLrXSO7xBYBwItsP43KB3QBH0SriwY897vXSIbqxYhXJOTRz3hdKmYOCyw7Epf8Ai3Zx8IPYhQEp3cTHoEuVHaA5R8zRFol8QDQY6MSdj05MpTFSi2WVnpmW5tLA30jwvxYScp3YvHSWTY4VK529rx76uB7SsYm0amqyiw7TxLlS4Q+/qQLTmAnqfZKu8wP/AE0/uGPSrxDXXfzwu3owl6hmDBVkPbcUGX6ZNRSY6pc0IJqN63q40c73ODQPYzUKXHwYhA1ZYp7QCi34FDk8PYgTuDFuUiQVWnZ7H88yqruTo/z9yg7/AKkNQQvC4untZMJskS3wUQdTMuG2x9ggylrnbbfBvhaL2STay+hmqOWW0F10rWODRlxUuXRnjAqU94VyOyrnlW/cYthvFRp0w1pTDZqbAXNEPt0KfHGEecu0cHfrb8OI4pZ+Arxljv2I38LosVl656dpcLeQ445N7Gat6Q8K7ldJ4s68/wDgnYVVVOtt5+q7xc5bFc5e40NGqpvUHZpnRQX7P+nUtlcjc0pmna+0fIstsVfPufapx+zERbA3WOSU5BRRX347zHAdJe/GQuLx3rP7IKqWALOm+M555OY8rtDBi8HsYmPCeqsrvOXB4Ag3yFYVQ6KerOiPqudqM2t4MudtvoYe8E3Q+qgLqDk8wle6t8peJSOi/EX7+hP41tgwYxQZk4n8faXFBTlYPpqXc4hzBGXR0h6WVpL4mE6wLVFBmxTuzU2oOKl5NOP6BkA9Lmb38TRL6wl7vKnriFq7K5dj4e1Odwwrd4FVAcvZfnmDAuol0elfbSEX4mpWJgoPvOWPtf0vmLGgUU2cdYTT1R07o5qZdhJl4EVHGf1Q4W11xFgnRAuKwLwLWj5UI4LpnZlgphvaYFRAhmVfqH1663vMZVZgFf8ADmkz6YakQMVblOez6T/fQ36gwc4nzq14iqBfoMuoUXQZywZcs94I14CXZnHmWKA5NVCXm0y56+GFDsAA2bDA9/klJ8WoFGuXKlVe4pZ0VL6wS81FcCkVeZTd3EMFXaxfGOZYwt1gVkEzt6mXmoZFF9qyoAO/Hw3KPAneKZPC+/xLiszwx1z5zvsRlRJaDQZ/PZZlBBe1XG+1H3B9npUVk+HjqTON3ICLLy4svr1R9LB1kDl3LMu2YdAhRTnFAKz9IkY605MXzV8vP5bEMqASmHxfM2ipg0IAxQV2cd7iuvswKQ9ijvUvkWSXmk57vMNYK3gxJvLe36MR4vMIGE34X10l/Qm7pf3iJvqFlxQ8BuAFriwGNWqwITtDA7K66O/EvtZxKljYxXhl7bXU7Rn+UYdF2v0/yLb0RuebSMSg1D0uvRWjQ9uDlfBb7RzOLmkGSyM/zMIlUrktB0X1/jM0gy4PCBuiQQRcbvPKs+YLXYXqPddYduh3Jr/CuHpkcHbGoIMAyF3Y+Tjx5lmFN164CHh7vVcZwKmi03Xdpz2nShHnORNUO1YM3g4znHMo3Yp3id0tZ1O6qjaFYgPaCavO6iz8TMOnoLAoiCLNc6wdGDoQNivdfhHB2jKREpaxdbxXSJFR0Lbod8RJVDIq0Ev1GOPJ47zSpLsA7TDSt1HRWT5PmI3WiI+82lj1AtRtKEy2d6b0+XJ8wWape4qYcHlbJr/T5hO/S7CcvC8ON4gopdwW+FX23GjRHjzT+o7SUHUGU+f/AEhGGvMcsGJklP8A0ms98P1KPJAdZTdzCLLggZwgR59HvNQ7gIp0ZgicCoadZfG5Wza7zrCj/ZZzEvMJZrBKyQ28SrY9LsXzvq9WEVIs5HS/dlQk7GuW/lgK/wAgCYu9zJucTc6kctldIZn4mOVWZxggQeEAxyKy3X5F5P8AlAaeaM1oDWnObbldwRwGaCqTd7fiN4Ay7iAHXQ+5fyUsEHWMrGNayx1zRezR7PjXaYI1qcsb2UjRwyzDCyWZMrvfTWJslZy3Xh8XxXvKiPJcBfgH1MG4dT79B3iCSioKYfKyZQoyUuHRxox56t0h+4JfmYXMlbNSou9R1noRyxx5eJQBmlLef9ZUwisnbPMDaXZP/9oADAMBAAIAAwAAABAFQYCDFWAzGtWBTx9f82ZKe2D5KEW52A4PXQKCOACZPVDjeCLMyaoPfKHOt7LDK1DOWOTQAiCcQmj4pb5Pqy0O7umjrQBZ8vizAnQSwjQKLGnz2pZIZSO0StQgJZQzeT7htOYEgGY82WeOOf8A/wBbNV8fsqlknU2USpK/5fUPwkdvUVSYL+e39fd+kO1tky3qztK6aWpnlulnlqi44LwGcJom7nluttfGwurKDO0NnpUlmunDFXOq0Inv8vvrC5pOfMpOClBEpgkssklb2esOOots0tlV6RhyXL2vwBpAssrettka+0W0xBkAPFZwhLrWOo+dBfxNksUpltNld3LJZvSZu+joJiwKEJdqB4EFBhUotsYZqrZyif35jyVNQlrFjdbjbG4sErWpjHgv3MJcpdJxAMWyelk2prJ0dwUEtvxNMuXMMVdMBgYNBjEq0Fs+1ZfdSGEkphsv4Ib240jXqQkTCSvnMtkZb/m8mCIlj0/i3w/EcR1yOidxLEowCv0O39TAYD9toRgWwDesrB93kuWVHs8Bout5s52NrUxEthbbrLMdamVXc6z16KZH0NzkorcJOy+8jNDf/O3dgXHFGg3lX7rQptIniFhJXdtsHtrL4B0PN/zaXTWt+urygFOuqwBN273urGUV7i9bGFTgCBDuIw5GptkEslDwohsSMoyESI0vyKebwfI0bFDCsk299Q8LQ+aSWx89ykQouDAmoV1w7Rxnt24MpyxHDi4xlaRvjNykL5fptI+7ZnevHXpI1TqBC5Zs+U7SMNvFX0HnJ4PFrtBnt+sQD8iQMfInzim75Q3TxF+z7A2VlDJwx6xgVsnWg0h/iywpTUrf6BC2dTwykJ2hy8wumP8ALCI77qDUE+5zQtu3QgcVMeSSe2+GYAJD1vJwHuU/sx7Gp9mN262vcWpZt8hJ2RLZ2c74hn48zrRKpxHm4uqPy0jcp7X8rezt40Gs0raUhtkqEm3EIbguHDKcebnR6GTi3Dkm5JKcF9Rc/Vm+neZ0b1g9cozNxHSe0hgU7JKfmgvcQWMXBU4kNpAq/hhPW/kImSTfrbz/AKkNRNuZWyXqgVNIrcNoH6oeVBFgkY2K4X3P7VsDVdMHwhZN/fygKpqUSi4mwiWGV2B6tp9Dnn+xAvqaG3+NXTvwyNUg0nUSFgY1LrvqmZR0uj3zem0PLuUlbswEmS79DYocRT6JeXjYrV2jojqn/wAYTNE5hctODM3+3VasCTKAq49chBClrPMIGJGeBIteW4lnUgyp/DZeE07C0dMqlRKlGEn1HBrAQ6Zg8Lk+qh3DTrKOvMmuOYVXq1gmWW9lIaD/AG5uPkXbU1iL8a2037S2eYWbHzQoUZ/JEP4gBlCR3VlGEHZMUJqYxd/7YRngr0/3CCWOz01XedvL2Z5i3cLZ57KKy5n9vtm1pAUZc2EJ0vpl9UfLgcaoz/RQiI+st/maqQFlHJ38PrZZ33vLn6ZA5so4RiHZr7GeprlkRj4ZLSglqNTrd5UVCAemwRLOMp+ZbHS/ZJjCWLSZNYXvyG4jISIHhOZvPq+i0PZdn1W3UNtZbz+XZkX0ZRRERA6OTz+goa977epSiRuCK4YT9b5iqSUXAbZ8yTXMCTPLNvJhJZSH7gbAfKc5CaewQNBnOilwyCQq1kAwRbBh9UAKYZI4QCMw4RqAteIWdoJEsFBcAIS7RB96zFFeHnUySAPKs5olcEhTQGZSQO1EvZxDglxLSOC0VQE8vIWb5AtIw8eSBNUp3v8A9DU3K7+khAord13rSMQ2PkfBmAmTunwyFEsSkeYJkoMqN0CnpYWVwrGi7kwVFlhr1XhCdYeLogjrqz4afkkApvK05kAD5ckhpEbmDGeVkkG1Y2lNZJknmniZd1IP3ybjbVA2/wD2BLoThWVY66DJTKcKSdZE9nDWN34qHmT3msEegS8zsX4ZIpIKIMb4I9Cd/SkjvXO2VISRgTx7B2qpAp7a3sTW4jLAy+Kl+3O4GBDzPTYb0dF9wP8A9VorVPcBCfRfq7ZGa9ONynUBvg+6tjnrYerZZOqPExVtGrtH7+P/xAAmEQADAAMAAwADAAIDAQEAAAAAAREQITEgQVEwYXGBoUDB8JGx/9oACAEDAQE/ECIglsVQpjXl/gubilKJlqN52bLilxSlKLy6eylEy43ilw3NsT1pM1+zTaMcZ+00AmkqOmLhS/gNm/wqEa4JGd/FcxlEaxMb8GaxfHpd6/7P/NJ6Qkc/6PgI0bwnsNJIXAat7t67BdA4fgnjBIb2VMUfBEOCE6EjJ8xL4u4Sb4hv0H7oVE0NQ0Ig8dKP8KI/Y9Z6YrJ/6HF6E9nBw8odL4awh0tD10sFDomuDTQ3D9jODQPQ39D8S2zSz0YjfLxCfk6bz0Pg+qePj7Bwxx++wnPhw/IkQQQoI22VMrXGN3onD3BNdGxcjKsa9eiVaY9Y2LYgz4Ja5jJiYuOedxRlLDbx0w1Pb+FUhA5ZRMop+srNGIkjQ9bRYX6Jx6EiNdbRB8iRw26JuBBVwcK0PFfsbHz/ADPSHPwbw2LPTE7XEPeJ9h6pR9BYQvDfgnBOnClGxMb+oeW4+BU21wdAUXVgfyhfoi/dDXtFg33kIIN4XC8t+PMcXHCnTC3/ANhu/wBGU5PtTiczwfjvwo3vx4JlT6NejZsdKjRRmtoh8DWrwJjtGJpNCbZ0h/S/gW2NL141zHvHQ7nRx/mO/wDFTg0nZ6Q2XcU+wk5gZsi1iYmTot9H8d+SPQh8GvBDFjoPHMcZ8J4X8Po0a86IvwZxs4ATth7AlDQbPaYncJ/RCTyjIQmYJUfwNHPDRfh06eFOf8Lm/wDE/oFfOBJWQhH6kO1pDd2ylH7BWbZ+glMTiogqGXrF8Iaf4jboTIKaKOtrA9dGvUNt7xs5mvPYeOY5Zv4r+FMxa66JL0Y+CHvbeGsI2sCk97PjoZshpJV0V2h+iCd2JLxYVlE2ehiNrPRwew1enPL3npiZYH0ps7+WZS2exk9KbbpsbITEJ9ENL9LO5BiVDgs0hvxWxfZLd/BT0j1o4PxuLjoXFFgPPTqJ58ykbwk6xge9PfhMN3Qzui6P2Jj+YY7X2PuXhJkSVhva4+kJUNeO+eyDOmdY0/hhiIL8LIeiDi1nd54RGjmHljaPawsNC0JUk9HdnCFTom3xC/WEjbUWgdvRCiRHX5qLoyfBDOhopMcv4bJcTyhzGjWOif3YzZ+EpMbKIn06IaSH8Ir4UxJ/YgcNFE29EggFHEP4LY6IvZRvxuPX4HR/RA7nXnzMJSaPCeNwkyI4axoLQkhtIdY5EY23KIWrKDTiGqM7+HY8PKs/6nhMd8dQTzNEPZB6y3BJhfEjsJOkEy/c2HTgyCrQtRtm0EFezGq0exjfMTH9NeCVHjoz1g74csU2QYjuVjTwgN17JojK9ITvok9nxCA2LKPFKUpSiLBUltlwmMU1QumqhvDzfFMbWL+B5ZYjmVs50ghiQc8HWxJtyC+yTT2OesnwbxBpnWXhoQMEeiRfuNht7EvgxiRfCUMRuHUPg19NG2b48xDg/M/1BdPZczw17PkbIjZIIm6Ob6W+y3FZRM1TQ0cGITE/p3CS6j9hR+CUVO6+FUQ7eoq9ptCZexL0xqD/AAe8LBMTHL+D7n14yY3hoypdNWeKaFvGz9sTw2WlwqhMhoX4aFQs0QlSwHmuElSoa+HOlPWxr540hvw3YTE7J6JDcHhPFFifcTL2NJ9IA0Qg1CEeG2b+DbRUaZtcx6O8El7JODVINVR1oQsdE1b2x7t0Y+nWaY9o2+F9Mux1wahB6OjxzGsME6GD9vMfc/3CJ6xKRE+EIyGxI3OdP4bIOlbNouUwn7Et9wTa6OPQ23xD9CJnOIoFlHhOibo/0OPgxGwghINC0MpR49HYbklIa+ivAXLQLfgndEzjxEReiEJhBoaF+iTqzSiFjRwTxwbfpCd6ObvwVNx1kTWypqjUYWkJwTjLGMjIVwV0xqE8ITHYhw74Bogsu+D9DnT+FK+kPYiX0j6KDLkagxJhsP1GyJhYarx/DpwXAhnsc1DWi6xaL6yz2HwY9h8Ee8OsVyho2PRcaz6OuITHD8DSY9EpsbU2R+mX6U2MaoToGGGvB/siIfooJVmkn0VLiKxI3RhuoTaFIgxjHouhNnrRsQyDHtGh4ue/h/Dl5cz3o00T4f0j0bNFZbo2jinccY/Ya86aLiiCtPZp05hLUIYVouIMRxnHRYRKM+MQmLldsw4aqXxhBZfwcHGacIxL4bFAnWLA6BjLg55wVMXqtsSFig2IaHCmgkbRTjPQtMeYe2J1SYgnsiap/cvHXKIcCFxcaFs34NJ9Gyw76KX0RDTqE37GvsvtDkLENZmKJRUnRKNexUL0DWhrh1aF8Z3Lh3ozQ00tCHwWE2sExbLY+5hTtn1jmI4U4es3xQ0Y2XC4hSNobq2cwlXRP6YvUa4ZoNEEEL+yvYMiq6zrMNVUQ4IXXROdEPaGmuj/AEUaNs4PYxyWiV0SBiZuNGz00cs8IQWZ4aJhoxsiLEIO/DnDo0iP6Np6GoSBOE3syqx63EJqwcFs4NeytkL0ejQ96Z7ENr2J54XkI7nuEwkzCHXEENHPxX5WkP4Gn8Lo6Rm09EBcJ+8IZVERCVsTB/kXREGQbHoQ/qImN9xf2G0V2kSjWJRIqi5sTwmNZm8UZTl4oWYJhviefolGVehuNTEywpQnfRlxFj6ISw0PpxCLgSy/YtIJdGlGQnrCEmE5sQmsPaHwZM9sTHDmLx95sKkPWxUqN+dx6xwrHPh+gnwavZIjPsRxkmNQJwVSY2aPG0bJ8Om16KUuFsaGGLY0UfB+HTH8zz/GqXUYp7RPQ9H0ItMjIzng8bOZ0noH8xISDNCQTbaKdXsY8MapfpNjEiwXadEq4JRG8N1DRCEycGbLjz0veCfhXwbFfSn0o2fRtvYxaVieBThjjH7L4JUt1/g1RWQpdEa6JdDOPwg9HVwcyxqm/ZMcNha0UbG9kGQSPHBPJM8/JMR3Ew0U0aJSi9goT4bR7EoSPuhNPg1lKkPuQV9Go/aOV9Phm+3s0ODa4ybqw8b9jVFrEyoUuGdOD4P8DTlneZh0VKxtlozXw9Fg2mJqTCr6Nr2R9wR9FHGJPYn8PeDIr3MtY7cPfMI6UVmyTKNmyuxzw6IbFi2RfY3hvRPDpmY4Zl8HfZMaJmn7x/T3UKGiEXsSERBIkqxL+kZRBOMg7hmyHYJh7GXOtGP4Gp4NFmxL0x0omMb8OmNDVwmuJnpvEXw24Nhr9eDdgx4rsZs9YRT4JhNOPViSiIKscbGo4PGxBVmr2Jp8GoXLX0fwQgqEkhCEvBosE6IPPTxbNjEhohCMjKOPuBktCW6hfuL7H6GL+iEzA89BCb7K3sXqi7YNlB6EQaw3BbFqGvhfo1C2b8GjK4QIRo4KCp9IHCvw7eCwPS8Kv3FP2V9K+lfSvpX9GUvkz4fIs1iCXoL4C9+hKtsuk0aXD2dELMKnvK4QRDg9oVSExT0q4No2MotCZ0lGPpt0RTXi+4/DkceDwvIYjEw0htPZH6acQ2+4N+2yfCP1hjYklhS47rFNx2z0PTyjaJeFa6UQrEhDYsqaZEQmh57jeNYccfjSNCDJMUejbeyH00jpM02xnvQomisolRJ0YuNENGEMRo5in8IQThROez9xNPhCZongn9GqPHcgs8x8f4+sCi1lo2SEon9IX0JJcKXCrooG50+GW+kJVDtL6H8kmXiIkxcE3BEe2RMa8FispCaK34PqN1MXiiCGQ6QiUSmIxO4hP7F7j5IaZRCUSXsSENwYy4WzaGp8hlLej+CCTY0zeIJvgbb6JpIJGUmGvLoUpvHIfwemOMaxYQ8plqIl6NfMJkYIJPYxK4QjHHBu4YspwTHv8Lei9A26I1iTFPZP0eqYwN1wa8++EPHA+sa3hrknisd8YQ5lVkj+R7y/FQJGSJ4KlZp9Gj4N1wRpCwmXsrh7uGn47vjWeRCbG1wOmITeEJh6wueVEys7lDN+aKNCprYkZwt75UpoVCjIWIN+PQR3PLDRiCF8x/C4g8LaQ/xQX5Hg1x3zvhSleXTH8zwx2S8Ji4hRYMXFB5WFQ4HoSpN4tFEh38Wy4v4559DeJhdMasc9iOeTQxLR4pcqotxSlFEXQokN+XBrhC3D6mR/oL9CMn8F+kaZbKwo4EGGrnfDlhtmgmNH9zClw2ngvJ6yvwIfRPYkJDUGhD0dNkzYWlExudHgoplaKN3w8I55tjQqZsxshR7wuIfjfGouG/J4fGehCY0I6EqkQ2rwhcRHtDalgo9pD+B+gfuQzEMkSkRELC4nnkUXZsQmNhc3HDz2jj2tf1kS21SXwj2Mtys2RMKD9f1C2oPqFO2/Pg0IXBoSJMMe2jaNzQ16ZF+xi8NHN+abQh1hYrE0NL0xIn00U4D8Wvd9v4Jj2f39/oSSb/8Avolkq6RdLX/8H2Rf4Ik2s/h2Lr9jpouaaexp+1f78nzF0MkNov7Gq3TRaarRM0hK0JmhuKjZWP2gn6z4hW9JDL6LOkJ+xKqIz30TrSpTarx4FFD/AEJ49ZuN5prwZpmiCdbf6FpW3iVdCZaIrGwknuFEXfR6rr3juZRU0y/Bdg0Ihu0z9RC9H6BJEXmViihu0l0z1YuFUqUXsEoojv8AzwRwIbM/wJZhDRM84fha9jHF/PXwil7GkMtUx+97G3+JsVBr60VaNv8A0JN9YV/B1WsaN9FLkNKERhI14aN+iZqGjNaDP2EXzMTIezoXKH0Lcz0se/LRvod8dPo++D/Q/m/roo1P/gZrbV/oSdCYZEa/6ekr+lFoLYgkb++FWwtKN9Im7GxPxI/dm5BqC4ddJFGylwjCs/Y1rRwafUabNPZp7wenRe7wRpbHW6WhILHt4I5+Y/wV/DrKnsTgmhPuiSXF4Pg9i7CMHAk6NouN4q4UQ8f0Z6x7xoXPBHNHTvwZc6NfjOncNpFTGqJ/+jKb8kT6yTjEl9EoNnulU/oQQ7o9qNU/oSfsZX3g0Sx66K9nxmMhqh6O1h4fM3HTY0KRrfkm/jCMNP2xP6KkhERLZoSmNYeZvDQkjNL9OAmVYmWioaEPRBBNCYqK8cxoXaISkYyEJ4bQyF6OcxCEOkOsaYkidwxHDuNiyLG5b9jdplPY3b6PSGg8EmieLQ0bGgkJxSgj/8QAKREAAwACAgICAgICAwEBAAAAAAERITEQQSBRYXEwkYGhsfDB0eFA8f/aAAgBAgEBPxClpTofS9lbKysorMmtMde2ZMn2QnhK4hcuJxOIPyRM8InEITmE8YdCEq8DSVX7I4UE3IMoIqsZuwabRma8TieCfKFxrwpeU40xnxIxR1qYFBMpfw0pUJmDHL4fGvNVM93+EfR+kNjTbKuv/n/sptD2pf7+jV9mr6Ezhi6uUEzFtNDwB/YMrnH4KUuYUiZ9iGnRo6Oz0KybHlawZeT6PbB3BC+abAIS1MByrpjTaFEzJeFxBeVKzJB8Lhn+IzTBPV9CEHr77MEtH9rjH4Hx88zfQIwzA0NCxKE7J6MmDGfyRffiQnibMt1iDR1CYfLPOOc+aFw+HgvGrhNuhL6zJQxb7515vhso3w15oQ1GkGk1GKLEh0kManka6EYRDDIOz3Q6nEhbxDy02gwzSHsy4xxOM+F8ETiiIa41fRB77pK1fRg9h/Emz7Hzjh8b8GuWQZ1iC2GQcaFQQa96OJRkblehu2cIkwkJolOxh1iJtZEWGfgQ0MBLj15dfhvg+NQlkb7UhWdMss70NNBs+/BrlC8GqNEIQSIIIf8AQyxf0aGPs7s3/QluKW2LbH3DvsadZLmNRj6MZ4wZXa9mHw0PliCX4n5bNFyTnWIfV0EPmWQeob/s34ob8aMnE8ZRhWg50DD8CjI+USQXs/hieY9jRqcMYwNxNfiZgYn4wyudX0N8OlwJ+98spTZV4zj4FPwNI1LqGlWgjZT6jMYZfBCRiUWRhSRKh+Fa/EfD5Wxca4hrnV9cIo9H9lnfhs1xfz/I8kmxQkXBCWNmwDFKEJ5Q3CJ6PYPZrrmlMcKUpR8NwSkm+IaLzTR4PR/dfhPwvnXhTHObWF7Eldvkf5B6OhrBKG/6CjBEOxO3pwYPIykz4sUvoychOkj7ZDQ1hnp/A602GyiotC0KaDyI14+jV4p+wfFNk/Bl8rfF5ZUh1NA3NJFFKv8AYlMJTimywqeiqm8jyaSC3rRDWCnjWB6s9CtsQ8MuxhK8kIiCahklaItzokox+pfw6RcpCz7/AAnjnnXg+KUbGMURt/giIxCE4UbEx+o3cMR73Q22rezHCw6e1BM3Lehm7YSILiwo1whuj2FUaGM29lT435o0fXE4yf3eKLifg2XhznJNiJ6FymGpwkYMCiWbRcLOxFInCo206hpJtMVNFKNoYaRCZnfouwGxWkXlGfClydmj6FxeP7/jPLR9eHZYRAQRZYjBfQ2xs2a50LSsMwFzRvhDyUbdNDGN1gZl6R0kIay/IxrCENUz6EHZjGrOi+GOGmJPsnGspeKJ+4ni/Cm+L4NLghJB0dcLBukJxktKSxsbUVAK+WR6431wZ1ZQz5wgpplong27J2IkO1DQnsSMCO/KFFl8ePD+3468Yb8HgxtQsLBgpRviIlPkNDaQ2ZOIJR5NCT2VIkKjsmeiT05r4+K4ljiEMi88H+Dx/vk5h9H2b8Z3zZ1C4Q2LIg2mtmaKhKVH6lZCGh/Ismi02NkRzZYGj9Q2No9dGW4hGCIQL2xFK++E+OuG4J3x/wAfj/b4ZfNuc6HPXoSSSFE0NFlmtyegCiMZQ8exfP2IJEF4BogyDnYle/3xBowtoWgyjELQl4TmF4dCTW/BH+HzWPPGI+I+I+MefVCIiGhWmaKdpPofzBZyCfvAm1v4E0RaI9Eovrke2XqD+Ik7Er0UexswmC8GxnomlY7Y1CaYmaGlWDfFEuNcTzb+v4FDPhS+jRMTdDGplQnRuPvAhLgn0/QlFjiUg1gjhkXCTMrfE9GUJjNOgS8uMeJOMDY9CDS2s3yyxCrShocSIUZvESUXpnXC/EUvlqXls0XwfhqLMModgxNREEGSiSJ6HwWSehoTMNjURcGWUa2NEQyaEHnCFON3zBIz0xAhE9DTF57EbR/j0jlG0iui3yWB8XiifGxrWM/K1wq9C4KntcVOmReyHpjKL0Odk9GsEm0VtDbCbWGWaK7/AMGWtocziHcloQpQQtHQmxJtIfY1Ro2exMX4Eahq+yRjjHwpwy8Up8lvKZqmJO8mCwGWyjXGDBBgiZHZhGBmfSjae1/ZS0/Znii7mJu2Ko0yyLIYwLAh1EUwJ0VWzRhlUOohNC8ITiGj6Mg3ZDxKDNCDsPeNIqbQI0UT4pSlEyyhK7o9qbFSTZfgnwQcGX4FTLdZFTHoSbEZ5Y0TGptv/aM78IWTg2JOkMsSQ/gaTGntHQsDyL2FRGhCUp1C89XENC1yKbE+PkwAW7DY20yekv0N+0GwNumP0DRsmO4ExPjWjAUS9DQCp65j9GkJNLlpwQ1oJqZMStiRLpD4NI1m+zRcC2OcXEMIcMDRkTRaE756PrwvAfGxLweUKXAvQx9CvRV2jLRCIWuwzGaMpxiZecCc0JPYlaYlOvI2j6D6xuDzmZENnvZj0uwut2NJppj8v+oQtiFlEyRaNYINUYQgbWeFQuNPPfhHzDHLGo9KZg4xNXAsYybGZ7MMjRhm2X/ZnskZTjLzOGvCGOGMcWU10hzGHIXogdGPs2QWHxsMqZtQeBlIpdeyE7zBcaOGPDM8RmOFB+TfRFGqsicPoKdF95El0OtEaG/Zv0J9iE/ZRMfm3BzrX/kbK3evgdluJm6Q+Tv/AGhsi2Go8iFhiYEWjfQmDQjjAlQ+w35yj2Lia4pOW/F5WhjljE6sCa7PpiXor9jexD04V0dxmZHNWUWF8m4PfqQ27dFBmWQeCIMjGBNp1C1rZlCj+BpoTTfAsMY5CeyDDQq2ti8F4Dv8EnlsZq2YV4IT0Vo+SMMRp4Ys7RC3ocJGWJrg2JlGHtoRHXrZ6yX+S7E6Gpx6MIl+RrnXs7SbE6/cZLQ2skYn0ayQR9mFMjbpG/ZWxvMOjMs7n40+G2UwPssG/wAMvopgTXYo+zeGOrQvsI00VUHTpltxq6OjB+CId3t/yZZFBdoWzuHYGiA/1Boa1jE7GXoZk74VpMQ6r7NmRCYl4Z8FH+aZ8Lw0wymppOBKbE0YSMcDlKhFE7iiwrTmT6KFiZX8E6GXKInY9jcdE1sOuLMqP2JLtG9E1bQuzE1s2aGxE1nRgyXi0UZoNfgGeITlsSGC+DFzB4cMQ8naUEzsXYaf8jV6PuK2NVsW4VKprAhDhtn2wVZp6Fshra19DDyh5RhBqOCc+xndMdhokVoWMiFyZHTKuV46PohllMig/DPhCcHR4RPYxxCcXjZBL0z5n7G5W2KxMV+iLM0uCE+nEEJFIIRoUYejKyJLbA4JNETElTAQbgjGtC4QteGvnHEcjLxCeGBqZFUZJ6HRSzBtcFhb4MYXw+haXkZsAnR5ULKOhPhDfoGjQ8izsTmOhqZWhYCd+B1GGLUJDBNjzjXCYii8JnZDZ5rWQm7wL2CiJISeiJaXCXJLYsYQzKI20IyeGtF8KLhVuIV1ktv/AIQ3M4nQtm4bJvpioNMossjplf3wsC9G89ifQi2izAnD5QmJcisazgTNeDBg/wARB0yZN/j8DWBTRXPjnhMvsaQ+gyX2jBlG1Q1Zc2SEzHDcFqWOTAho2oYO0RY6KkL0LIhNp1CcMH/njZlDzoTjH7WRZ1xF0dmJFRbNzPkWeFrx1UJcQ3k8XknLMejfREJIiRF7M+xPMaMhMKiKU+hP0V2j1Ftoe4iu0EuqYLiIPoWyRFq4aYehX+AMaqFMJCR8n/eCzlPBsV41kec8Nsh7HGht3xoQuaaicUpu4vNFG8iqo5WKmSlZWT2K2IyJDUXA6JzsRN/ZXZX74e23kmGWOX3HRg++EsDwUehoVYETl5WF6IJprBo2hY2XpjEieT2DriIaEJcpmv64Yh7N3F4fOUxJIafob7GuUzPGHiiUbyKIULXWIpURd8Y742TGnWRpYwIV6iS3Y2Q6G0E01gWSixFLSFOMMdZ8dSzCvHFohaGbNsnsjWiiINQXNNBOMcbfrwo35QWkz1Me5EEQ+Ab1EtMDTUxqR1QVRigdBRp2w56BCT+UVAsT2E+Leg0xU+FOkLCPQ+zYH/oYZ1wtk5G69MY54oyXY6GpgnKNQngQiZN30JUTE/o+E+E+IarSJ9DSWEeiPRF0IqwLXE8Gksj0S6v7FNccrLE+x6Vka9YKjsbdAj6gMQfwfKhk8soymHkTjHNsEMM1GDLw+eJCEJxTZBZwJux8Z8NceG36NIuJw+NcTjcJlXCdhI0zDW8HuHS0wdDLeSp7RRZWwPb4EiDvXDPDfoSVcsvGh+0J3YnMEaDTPihpjIymGRLiEnhRPjs1cviW9NIuUPx0aMdVuEWgilhEbZodZURsjREvkxayxpW4Q2NRctYGZqI8oWlGGaJ6PvjLZLrJBD2hL2Nmi8whCDQscxHjvNInzOZzg2Cxg6YWz4CfsbRWzWRLYS0N2yMhUOBu6IJcs2L0LJnJCng7yJwfDE4ZbNqLY1OJBHKYiwhNoTKLwnK+Nm5pNF4vF8GZJmYvA3UUabOCQ6aGNDYyYmiqFqKUbNiQkvCDTG4ao9oxGBU1UxolfRRQVPhP2bxGsCGt51C/Jt40EuRUSND4x4PQm2NDbtl+x52NEZBpj5o3SEJzgnDEOjwTbViEZHlQWgxMq7NZKcBdyE5i1sSMTL5aeVwmZ2IYjopnyLfFnfE8WNXkfBCQvKXC4a4MvCEpBajE8wo38D1nEpEyOKWiPjnQTw2nZcDdhIkNQZC+L2+Z4Qk8vriE8mPAvG8Mk4hDXgheeXG07KBuijfFJxWLJg2CKZ/+KEIJ4N8Th8ziEIQn4lt4fAsKMgr4Lh7c3luCd4eC8OilL4Ti8QhCQgg14vi+C/EmZvwuAozvmTh8JwRsH5SeEREMSDtFfBIglZ9j7m+z7H2Muz7jvs+59yfZC7I9kH3I9k+yBoJPZHCfflB8+NAg0kLpxoXDRPYhc+deMNCGLmHfKXGTZCZYX0UyNOCoyTj64i9cSkEuGohCGqR5TZxmvCDQoKVITvCLkuhI0bNHzwycSkZHxvxouFtcNDQmY8BFOz5hGlQtlinoMPAawTTJbQVbCMsKy1ribsor/AMnNUbAY0ILAkJDiFkWBD5l8nMUXu3pZE2pJm/k9CiK1gVRt1/30I87vQ2zN8m0VXsx4Xhsrhvkb8E4yL2FkLLPFPuP4L5JN6J5TaPgXDyRMeNF4rEmIbTPE4h006XsaPR61+xuNH++hkpwplDanW/oRXE8fyPVjX7G23lPaEiRo7mt1/0Io/D/AKFrwRtxK4MQm6MkmRk51syYGSQT0tCSjymMidiGnQ2jaEIk185ImAyxUOKwu1sbGqNg/wD8H6ARskbESi+14xZBgt8QWiEIRE42+KVEy/ptJKKUZDhI0JkrGyMkRNiRsZrJjhisUt10a8NMhKQ+GmUJxuzoZVsiRoN3ZLsrdyUsLisfEK09sWrRFchqwTogm7kapNiMORlGYv8AleOw2hYnFZXxSlKLjf5TLA6f/BFWQ+/b+y7fWX/wiwegosL+iWsMbE2CeTanqhfsdOJcGe3CHd/35EmFS+zGYT4Q0bO5XsRNp/180Mk40XmlMsbLIsBNia3azAtC/wByfblI72USMH/K4XMcWvhknGvBLjfxPDQk1vkXSf10NNUg/sQiUF8jYm4+ywSH930GvJ/eSiBikWVsjrgyprA37a+n/g0V1tv+BRo/nI3lWBMb2HBtIqbUIe0PakNjvQyajaeRJEpRaYMklB4yHtDNaHFSWGK7UQ9IYkSRG2iFcrb8l8O14j4XEIJcb/Kfgzw6u0+iWES/g2jmsTIkNEUxt9FN2DR6F8+NNYYIZEnvnL1wuUNH4u94jEQnF4gn5KTbGywzSGydeK4WxUbHGhTeUN09bHXwJC0JYekPofFDdppoUqChQeykGTyLtPoaSCpRKFl6Et1HV+D4D8ReNKNUN2axr/I8SbtIa4w3DLKRSGYJpLC/Y25wEsKF5RZSlYi844WxPA7BK1xZOMlLJGbUaawR9GuKuU7Kb0NWWhOxv3xobIyE43Y2Cl9lXFKUb5dpGhCNt4b1xB8IQxOkU7GpG+eiEGUq4KGJYJwEhhpUiPQp6FNDdqCZCd4Q9j8qhMlBOX0fIU+xqrGxD//EACYQAQEAAgICAgIDAQEBAQAAAAERACExQVFhcYGRobHB8NHh8RD/2gAIAQEAAT8QH+nnIT+7i7P2wrWBPZC38GBVyhABNdhU84EKdWypgypeY5woV82YLlXyc1QHxwbf+Q4DXR05cFtQBfvEBRfJzk0lPMsxpv7jN4KjTWsN8A8MOa8mjNtALzMLuE5xOpqVAVfwYh601dhZ9N9cfBcarLO8Do+SY8Hyn+MB40+MbhDfky/A34wdaD1mqBH95W1XjjHaaB5wgQ+nBII9zI3EneaBJ4eMH7O5ijfh7z/lXNmjvE8Os6LPeCOj8ZCjs85sEJPv/cZZITziVQ2TrFJtrNiShhDp+sSE/cwJd6OXELOEx7JNbJlBuBHX5yaIREVbSoLBDtAU7gbuSwQhN10lGbMGxqAj2gUUSRDSrO2ohAFmgfyAy0JOqhRu8bG3zjkiBsG4TdLeMD7E0hB9l5PCc4z0oEpxu1+MJWJ84S0M+JhwPhHkUP8AOIYp2eDGsCgOHxmmi4Frg0NQ2ZJwfFxXsOsBpC+8E9YK1zmr5xHejg1MNKVrd9Y6N/Rky4mzS95D0TxcPqH2mjZ8L1nMHqoKBNmsoFOlsNYyeDKvytBw5wNCaip4ORegTFdNTUebgutPx1gCHOTnn4mL2JjZL9OMkN++8lcHlPOLR4Ozf7x1YXmr6TZkEExeR+8rcEw+SngctKTkI/jBrJrvnIkdNXjrBRt1iJd2YFPH9ZOI3xm5ec3AQVQnHziOCPxg37cFD2d5b5O24YRj6zb5/nLU4JcFHe8TIw2guaaIylybD3npRgrzCBm6E07479uAsCT9EWBAEaM3cr1LY5a8YDTZCcZc5CN9RMEgodNErjQQJKp1LJNbWaNCuO6dWK4B8J0Eyayk5WOHjxHnvAx59bAKTb93H27ceUw1F3G9a5wFuIpp+sR8x7nGEdUcmA28p3nLH/mG+bPi4AN1wRfOCW49yvrCN9O8Ddk1jQhzRWAdH11h9bojlFDkEijIc4Lkp7wIwj3gir7Yz6g/OVkEWjwxfJnSfsqKd1YBF2nlTjb3pEeQbH4xb+8EDq3Apr2OBvQBW6iTvAcSgYPJS9mLjm8ZyIK9A84QNJ2uLpfQuCA68JimB8pcvaiMeZhjFFkCsCdqoAbVwc7UQDZb13IUdhg4ytpPpCpdB2YOrYRD0Oe2zgcAAGfSKJ2JGmdbQto4ZtPhmvFhgvHjjGDWmRxlO3HXv84kXI2z85sNJgB89OIbqGqTBG+/jAn/ANzQOPTkRAKdOFGy4Oug6wZXCI8QxkJyHpcsjRVFw+smHWbvOrJj0HAKZuYw5MipA7rg3omCW4cN0lNv6xDYQHldPFxce1qotDjt6mb0EER5wMa9eXJAkxBljhv/AIwG3l8XDy2+MM4wFcna0MNAfGI1g667y75+sVK/GCBYjqX9Ygblo0ECKJ7iu6qUL9WiYpcIkTTRwbARw8/1gVBXPD0ES67H4cdF5Jtg9k4JVpXTI4KqNKCnp5PSZq7Je8KGh40mTtwPHoDTpTpHeDhQbW1vC2a8PAujCOyOI5wwTVxHF1+jiiAr/GAzSfvEOKR5mNU1QSut9/oxxbtEBITgDWjEuiWXzi2kXynOzZ8kRBEQcBVZxU9l3p9niwWE3N4yjW+KcYArhGPNfxgFa17xgeHOsJF6xo0Eksy9hvvBNLkHn8Z2nWBXweTrDqyfGDI6Dlc0Ox+WMRWZ7vHnNgA1043QKuoTCjRxXASRd3bWCld94FHi+8NF/ZjGxgfLe/eeIDO1+Zkba+xwl3Jz7wJC8pwPc895YOlRTzlDSFcPgcu6Ay6RV85spavvGjonbikP6xa49fGSdmuphsPPWJB7MU47OsFsGfzmsfO/ebP4wu0KmDBh+bAleBoAH0h4AqCcIjAozVyiZXdn7/7nP0FweoOXiIQGji8luVrwWBF/BsLwNqXcUjW8rvYIVl4ek6OwbMxTenGnOAw6XEyhIWlXlV5HkecdIeZAct05n11K0g+1aOqEGbQTRt5KM4CCIa5Pd/GE83yuLhOHxr9YO4ujsEFrWdenILOlwih4R4b6wHQB0YwITW/nJCxJFex6/kc2oWcOUWX+sHycYd0bszihs7zTtf8AdYNo0b+MIOz7cNUlxP7JkdxfgzSWI6p++st009mUNaHjnF9i9s7ffvGAXhZv9YGMfnzhrtL4cXV8gwoVjZPeIwjN4ngB4mGqDXGydv8ADhfIapNgVv5wTc1sAd2xU3l7M0PLTTVxtJv7k84RI6X+8+GPHrBKM/GEld+cAi6ECE05Lvsk76XQ+8KcusNJeMRDiMZThdY6Rgfxg2hxcOhfeW60/GaRHrhxnf2yy2tOinhPHkZETWBGlQlFoaQNmGlQl6tV5MgEl09YUwPJWL2EhrjQ8ggs/A6UbF3aa3fIlcr+6jg8cB40t51ZlQWp6xuV4gvKNDT7N9XOgoHAWPZQVUgJG52HtU5d+7g21lKaWRxydNMRmbcu2bseq0+HIp+LSVCmyxnmayv8k2ciIj94Dg+IFWDhK2DTtrjhuvnAyTQ4wdi3zCfsP/a52O+Tu+sgKrNYLy1vFRKjhC3uLZ+8AHUeH1iWDkirxrIjxXJjswFdcfnE7GL5cFmUe+sVcJlFL51MojTdPWCcS0W/nAEhcgEeASY4R94oed5NIHGFVinDOMpNIvUf49YnYh8vGYcNgbwTy1ngGj4ZnaAtyBtJHnxvK4YseNOKfLAsWw/OIaE5zRIaxle/DiacZcKnxcHO8NDt8TBnDA4nPrKcTADjX4xJJJkS7Hk5mSdjc3io3zmp4tDDEq2TnWOylJMEcyp4tqAj4k9ZFyGnw8jbODqXebsiWy/IJ1+WOmiKE+AxOGnOvnEX3p/6YCLH+XGR0Hr+45C2D6I4+ms8h+sbE3yH3Ev4xTkL178nJ9/rNrgkLzobPrNS5mswZAeWscAJixBUqcjnxoLDZ2ZCMb2GsNZVit4hglMSujFPn+7JEAkHC3jxx4yBxRGm7mQOuS+s9rXr1nCuvOPaaedZWZZ3jWwejKAxf1gGpz9ZQR65w8M/Q4Zmm6oCHzglBDmm4pW784jL+jETZfhl/wBJ1RwCHvCi95uJzkEilDxs/rHmaLj3Iknxm5PXnC6ALvYB7GuLgD3G3eC+T7xBsFM/Fv8AWRkwkyeuv3mz9FM1SdX1nA615xCBca7HrHTf3nU4MhU/vNl5fvFBTjximw3OzDWt+siicdGSiq3cyJ0ihe2f/cd3e/FzRIaP3gcB6yCaYH3igEHfOEgMB4tAFcvP0mGa8Le3/wA/tc2cNcjrKlaPnEr5MdHExAPGTEq+0wH1w5ASnY2Lw0oXyvvzhzBOx/7lNUUVNDS6hy1fFcHAQcvIa+7kooxZlSE22oV18piU6s4Nb/OI1d8ZvTXG8aEB0c5SI+3ziIt146y+WjjeKnG9dYyJUvOIePcriK6MUoujyYXKVnAdZoQnAXmejKcsWE1Pj8Y3X60W/wCNfjBFVOXprr1k356x00G+rjYTEO/OJpoRIYQQNOPWDTnHRljqFvfOA+B+sOaHKnCfGMGFnjApvX48GJSD3jp8+vGVdgHeRC694Rhwm+7hCXfnF2nPstyhnLpMipxnM4PWA5/xjNJ8GJFmgxokb1iU1vD2nWIMXWqYUpAOZgldRchUL/GaUx5HOCHxFa314jkzQnOKj2jj4lA7NTzFC42AKhUu4gv1jok/P8lwWFrtKfh3+MgMT0E/P/GGCi+BP5yaW0TgPXDAp4xwf+Yo9fHnN8JCkNMekhRo9mCGeCR18rah1fGBZxCM3gRy6TBsTresq1A5nONRpT4zmnWck4c4uTnq3Ikh6biiXbMTQbXG+MSVQAmtf/ciAVoSS63qdePvFA0tPIxQQaANYIhqOpxgyOusLiWdYmxTdmOKk3kXR37ubG/eJqCTxT+DOB+v5f8A5YTLr/mHTp6zcdmYG29Yg7056sA8Mokp5cOwfTBKecBW+ePWEuu/GarO+HJS3bzhoU6wGacbVNTznqT4MFTWIJELmhoPGaUE9YHZh4zYL50GQDznMbt8u8KJAQy7xffmpqYx4YqpFB2S73OrRMel5s6JtEpHyv1m511P40v2xGHFiG82Z6sergg3gbNP4n85xI7ix8y4EyUJpfuz+MEKhdf5R/7g0gQKEn1iClCCo3yPzvKgH0hANN80dyl2BEjRMBqFDzig3t5uCdfdxgg67zgDbbecajXkbjwUehX8ZMg+zec1RPaZzJF7mDI7yNvznZ0DObP5xIetmHex/X/uacqCNUUMSqdHZ/GAD5c13jHJ+cUVUY0pHgebgVds6wEo3aHvD8++998utYJ8YIunjFE53lSiPOyZsfY4SPZ1cOkZ9mShe+bgbzb6xZu3Phq5Lyq9YVb4+MQONHnK07veF23CB/ead2ZPGjOkd5ZQo6p5wTil2+sUATjt8Yujf7ywqzedN4yHl484+JcOAg3ZCIlK9DHNZ7AInfNKS7JbpZlwbJql4HYccFYfDhOsJqLvsZEeWB9wD+8pTCvWgh2NbE4usT9VTX5V2uCOGfGCtAcxzSx4fS4XvdyKkJ7/AN+sCAjnuPg85MnpISIXsSnxhyQ6ZoiMHQgDrAqWidXCRaqkfOKjHU0lNJGh9OKbtdoJshLN0/6ZhN/B15H/AHFNvKIJroSHN/8AM2xZPisIPfRMZUVEWgdinI448ZxWm2HPrKlFLj+8ElRRLQgNJtLxo+TCVIPawqlum3WlMEgO9FTnt76156uVguNwPf8AveUYHZ3lkEp6ylH4mSNk+DTm5vjE6vi4FTbiQlenLVybwJwfrA0Q0Jm8oKAOwAfsjg/M4mO9dfnKBm3xjKQTsZQXxmqGsoIhTSc5Jp13gIGRUrwZEHb5yybxdz5uddaO8sQ2/eDDn6yWpv4yDt3zPOELd3zvLUK/GXSpPA9ZLba7w1oRrnePA/xT0pDQiw7fQuBEhd53KE9Ehrk1hUuAQyvAtd7vLgdp+VtcmorloozCudPOJe82id+CE97TX4xounmYcnIEwLZHvgu0zRpcvKJ9zkhrW96c2lRg62OA42pPeQfC7FmrW7ersDw+GyAXQVv8n451muTfhSyfkPr1iS8WsbEIVemvfMPFTq7aF7HbBxMpigtC41MRbpHnvCwnpiPQawPgE6wNA+3rHCA1+M4hRvCdK6c6S+BpDY13SdI4KvDrGuydA94CLmrgRduxLxwdzB1TlCAd3mXSz+tHWaorNnrEdFfzgi2h57yQR6HNK9zNvbviYTv61j+uEa1hemZ16uXWbhCdc2+86cnxgb1H1AA/YD94kadYEJtwcJ/6xmjvnWTfXox9k+c3UTeRn/cggpSMA0fvCp3cE8I4c3w+cd3/ADgSyHeNS3Ux1qaepgB546MAH7eN4gtYOsBIooxn08ieyn4YGruRw18o6234NONdoU1ZNrt1r1iPzifc8YvW/uYv/RrFihD985/xmHQVCNEfN85S6cQJsHaIPQvSPmZ4D41kUHfnCiIkMLgL/ikOxO9YJrNhrqMWfxpIMJloQle5BiCjJSmDzwaNAFXlgNu2YZg0EyAdvGQWta7cCUReMSUd/wC5y/0fOOIg29MlozCSgAvzGYCtp0Fucelf/MNgtLVa7ToLYed1wOlKOXDtrmhomvjFSbPRvLAAPGsSucK1t85Ey5HPIa+cYIPvBwRZ6PbK+J7znvLim3GXqig9wmHLvjVwQ3Z/GWOXATeFK3gJsoujCBOMXnvCkAppN37yKEY6p/f8fKZbuScYPKn1m3Bx96yDvjn4xqoUwx4L38YAWjf4y+T53i2KHwQq1/jHabWByAK6Wudx4xbwfOPtIWEK7ZvAhi/PjBUeXrLcCpzMAbSPjCU6duv5wuBb61ixdLtLyt+lDRAmLY4+G/rLsQZFi0EBaOkBo+T3m7ib0JnBd5PVJ74y7qD0q9Y4SLcRBGnImn+ecm2qCIaiukFVfvLmn6echNtSbwWsA+c3Pc8GR8iuzEkD77xfp0FT4n3jLWlfBdBo1JzcsHD3QlQ1qIHXzjHkokU0DxDzpnpxKrp5wIgc1RsHUt+sFoEONmBR4nCYKpFdlst7+XXWg0BgTSX2YgYzzgAe2AC78+sPgQFXr4N/1nN8ZHzkZ+f9Z1/Gs39YxOJlOipvXXvKC9QBKq91q+blhY+se9cd6y0VwATmdeM3U2mQmDAUkwq7g5wTbj6yANX4xoaYGqYapPvKNqp8Y6o8uFUrNuBYJ0uP/cwSDoDg6qBiJrqDsYvpZp9BrGbSeMY0Iec5bB7ZlG0XQf8AmAZ8gcGakGvH9GcUOZTHlRjl1cUuSeuXFrZh2uaAALU0HzjUIdwgFRpNjB634wsdPzhKCHtxMi34c3QEAx4f4zVpLyGC8Ji2DT9DGKKrjoYfhMVh4NkwS42wQDb8YSwmglb1GjrtM1LYE/8ABD6+saoMnIR6Zs29GRz/AGk5HPK9dnHjWMGk26GMk2t4HuvVrsbUEAxTl48fjnBqatUBpU+L644xuENIPjNFcHzkDsYqzr3gC1+sZOU7wLLE/eBpBAcmuT3mwcKQYWqvxOMZWYC9uFZyJ/t/rOMm9ay60s3cke0DnHnwFR3kTQXiTFU1PnOg7zXr9YIx1jriesoAD5azlq/nNRvCAEY4O3/XNJkrzqcYgyNxdzswJ6TEYwot7ZxqhnX2mq5F2vYWgHAVgaOjEl2V/WMsiktx+NOHOA1N3tkBUeBMSXQdTGnxdDhBpBhiqPZjsqHzmhEOoMeiB+8CLwRAcXZa9rnJlKbMePB7MYxrrt351yv+VHHxwTcOlX4H6xKJpIj2XRTsj1lx4FT1aEAaeynHFcktyFoP8l8Zwe3Q7F7BfAGBWuznThWTgWlVHKhSKQ6Jr5h+Wwm/1hlScGyPvw5p4tVeAMPoALXgyjZvXXe+HLDOwXsVvvf+2TADQ6M1oYwjDyYb6XrBvhycPP3jW8nscgcawBa5Q2XmYba+TArUntwWuTGSnWuJcUYMbM/z1mxMFOMa6+8bSc4iAi7lPrCc4vh8Ztqc/WHPGsAJ5wV27neBDzrF1tuF4ROdZ28zvJIwD54xqb/WLXKvGR0wY68c4pWBve76woAKancVTn00db3hETatVXvIvgPN3kTXxXjEoWuOOY5w1QD4xemGX8e8nTa4bGoaDa/BggEPbsvwf+4LQPt/8wrcT3khr7xeKfhgbjQ2dZMgL5B9bw7tz6ORaLdHjzQPXecwlo2r0Y0T2mCvTUCpxDjBOWx5hCGkBXSWyFxIwRdsK28myOecIdcq/wC/+4RfFMT7AgEAqarA34DICwlvbiP0PzjsdildGqzimAgFgMxHzegzn0aNLgPsPTximBHzhqkDCFqx/WLOXX7xHJcaK94I1MS+HxgFkl5uIC8mdRhNeMJIs5ML7wc/y4uHjBBI3l2VXO7e9zAAjwyEVq5M9GImk+c9z5XEqwJmq73hvUIdYeSnvHxMpwdavd6HAN5MT5EyStt0YBc376wXt4sxHixWrpCecsogfjKW9TvOMKWGtGR52/OIKr9GIRq3wXHQBHPWBW+sGfSvA9uOdfLgmBD7Pj/GKWV4An95Vhj21fGK1G4p5eLMip7WYNMI8uFdDkbcGIfYf9f4w4JA8uKZUbfNPP8A8+rkEqlQkPGaZbQDq960c6+sBnp3BbPAk9k9YqDrtbp7ytIpSAq+Gpo308Kk2CIg0ULXicxnDAhg14a5D3rjIqhvctieTseh1eSaIC98Gvkf3gQIScBgFaPlmJ06eTFvYnZvNKODw4KPE1gNfjEieDpzZ/8AMTUlXZesUIAqaeYy5Fd/nOTeAWPCmybwEaNMW6lTLl3M1i11vFHRcSEoJADlxM1uyvvB13vxiPG3zxjd79YzgPxnSq9Jgmnnw4t/OJd7vvFYAT1q4aO734wKzd94ITRFwYNAE0SD0loRfLrDgR7ZRqvtVcOadOMd4kwZT7H4Gx6/OCC8QUM1oPR+Rjia3RPBSzk0D78jnYEGntnrzhkdFwC9g4t1J4F1ipLyxqlB5Xtd/BASwOP1iE1ejNQ/JXeSGCPBgpX5ckV3sxxSdL0uMBxvzcGWA11hseyzzhLNb4OjJ4bzVa3zhppR69UbscR5eGOgocGAbV/Gd5Iq9YeVu2LJAUEku5MYYSmtniwnSWesT6eruS3AeE8b5M4pqAcfWHNK2Boed8GKKVB5XkwY8B85tUy5JpvOE4PeXveTxmjrbhDUEwgCNdRPEOpjEBhhDw1DJD/TEenWcJJnC2g3eK+Z8WE/zjH1izl6yI8h+cYShVuRMuveKLLPGuZig0/wxYcXW7TFZWdJlkb+Ms2ZIbC1OOHzvxnnAb/hFZIortL9b5eCR5TR/vjLxKUrR3kRr271lacgFKqreXHewZGwBd+UxuumiQPZW/ZxBlqIvjTquO+3jWT5NobnBoDE3wa0POqf1ik3oCfRA/LMigG9W0iWuP4TSxXYckdqjtcRG55H/wAxlI3od/nBGLnKQ/WO1V4/+OMgeSqIvHRvF+3qLfy3/GPAp8h/oxwKgHLV+hwBWnIonzzkzo/OpiuAJtYhvYeqRERYNAhxa4TOsiEpIxTnQS5xg8N3biG2J2eMFGm/gcNVqHfGcp4ijlRvT9bd81xipUi7RSU2tvrly25iNAJz95WI4MxOcapWDYPg3AQd6CZAK/LGR/WUFUvWPhjFDjKBWec8hfeKtlvWQAcMGOBSusSjdTK8axLAQ2D6+MuR1+FyzaQ3ke3WXAoGC9mBU1TkQif1mon/AJiMUg6wTTNNlfy84cuv7wA3fWa2JrIFVCI8TFW4bqSm6Be65xq/KqU6BuYCBqFq3xQ+SAmObZeAAxFJAWEnP5/WQfIRKEDdzl+GUeLhMCAIhdc4vUuAk8S7yqKW/BCmG8KQoOAhv9ZHB+aD/GTU081D+/8AXBECicQznzMCRvVl/MvGCHRvXfG8EE2EUS/u/GVwRYmi+7fXQYEnXicT3LD/ALltK1zH8/6ZdUxybH/n5MQiqYJV/HPnzgJABNtmtx6cRAclA++dZXxqRuiKiJoaTSTFqcuj4DRXlnk1eTsDrlOw5DQjszfkrvjAa0fOSMkW40hPK4aA7cbvsz2SBrgHbxzg/uhZBXTpafQYKgyO06+QfkMBZRtaN7cbv25uYvlG39Z5E4MG+FQ+jOj8o3bd9nRtXn0KE72qPwmLEAJ44xKc08mfDIu9njHQRZ2mscPrrFe7m0NBeLjaDo8zWMHm5ZwPBvX5y1Qgng/7YNso1RI+MNnVLax1GD6zjUtEno7cRHREgdoj7wFju8YAbcMk694pXU8ZafPMyBv9sObIbDfnxjTAKQASodymagS93ARm/WbAadLPOOTOnRdrJKqa3umiHSiwFpFOERCwxjl7G+bkIG8/xcHAoccn3c1IazZWc9XBgqdDJ+N4nI2zf+mA1FNEH8G8ADRsa8eo/wA462FSXb3JvHXZN8h8oxCw67VW9KT1lRyDggnfE8n5zcTGk6P78OjCFsIhyHlGd8/cyxYrdbK+ffHZgVZDODPmz+OtYxwtWEk+Hf3kFXTAnY309H+uR3i7OR67j8/vA0kZw0ic/wC6MSUgJd19J5PH/wBMP2CZAEoeFTVlOkeJj7YkxeCy8mnrE0X83IEqrwgFxFnWhwiR6L+fORP+kmi+W6485qipWsn8fWRARS3G32aWI8UcPnXz4cobR1U+ev8AuUJoIK0PFU1k2AAcVnH5xm60xZ7dcn4PjAEgwJ0xH3iKU0d5cNwzg5cNSszdr9YGTj1jqeTozYbnrEcm2Ok7wsZCvPOO2OAxNhTWA6CqpVE8MctGDO1WF1cSy9UVgmJI5FOYOAtCq6IOb1hkMlijinlI4ZKcfrNhMVCGh51jDBHfPzhbynZZk9i/DWQ0asnjC8ChI8NwYLVMWCQLyLr41iicuOn11jGhgKyleYMjeS5uFL5aPQetgIZQdXgEZC31oAa+zAKC65X8YpEWwf35f4zYim+BPq5qKDrWjrrWLuh4U496/DKVHCWv1I/n/mEgid8geen6xKpttHh8m7e5muNYULqX994GJIlBjWzx13gWzTaR5kW3fnvBoDul3Dnrk66x3QeSp5iTjFq2mxYH4DOOEb5Me6S2h9t1HiaXnIavZNk71v1x+PATsxQ3J/X/ADFqAhULBmnzOPpwQitwaJHW9U3yPeeLrtHUnnXDkHP2oDRU44a5vxiA3bNzR9I47fQxGbUG627O+dt53ch4Rojm/wDePoxStexhvrTgHqDoK8/+es3YvZcL46+plMIdjd/74wVxDlkD5P8A5iiKi0Yrrh/XeaugVyCM+Dq/HrJfIps3gE84FLA8YBv156xbkh4ckzYIFd4FIHD041Aa3u+MfB445yvpZM1xiQUYnkZw8aAw2qOTulQAKhR0bDD41paDBQNO1l7MTThFBNoNMZNO8MVRkC7xmxYpEiax2HmZdhy59ZZwk77ynGkxXTXvHnBnODpCe3GIsELyuOXYnh4OHwUprAsG+JesRvQ63xhA2j5wPVJzh4VgntBMK6EELnys9CYS6OgqfS11z2yzbcyPYPZw5AQktQGP1MH+TUPzDEqdoETI0VJCj+vj/wC42hflrb/n9YKC86E9fPx8fYNQVUFs+i9PGXRBwVu+pP4wNTeTfb2GLbBpxrzd3BQuKtg+uP8AXCdPN6HWjZX7xBVgXYTvWDoeY6F3wL9mQRpuE+F2c+XngxEB0TV7Th/0xsOhpNXkA3L+8A05SqAdrxr3gqy6M2N26NrrjrE85HSHFdwABT65xpGbunQb0BCGbd4a3zjNY0Gx7P8AvGCABxfJ8etzENgRXVj84EkdlHBiekp34we7zj1kBHZQ1+8ZeAA/g6R+e3xrAr7Yb3zypN/JmzNtxFP5yYgD1ceo69Nxo/5lKV15cULh8Zpq5AoVyGpziQvXxcZTVeUAsKG7s8a8YCtAlH7RXgk6G3HWFdAp+/J5yG48QLe/Ny3CjocIBOfWVsj+JgnZPtwi8YIefrrL5LWOgickBEHs4WZm6voCdd/nEKzCp/G2xTv4oLisxo/DSs1gPwXEA2uyAHuGsiCANMDlrYTjCdBVDTO2cwnPHvHSAcD3g69dffvAtanGDDkTCv7BnelaRwBURr61WcPDhU0Z0AU4Nh7w0bwCK2wNomi2GWHQtdz94aQ5bs7/AHiAX+h/fxigcTauH1f7y66Agm+zvb+85xTdJPrT6xoCHak/BhIReXHfS9H+3gTCHRVv2nzkKhAGqfIS994iAc8WD8xfPeHModc6/s584ISitKk7kh+82RAvDn8vxeddGB6+XW7MTlsnQK7QlVKNDUTDY5fhzrFLixNGg3xbPU1j9g60njHneTGXvZhJAwX33ncOirP7waiBEpt8Y0aeivrHGBIk473/ALrCKkPIdfXjHXbzFk+TDSO/ivq/H1itNYQ6SPXEwfbXt42V51H1MPhpy3gyUF/GIKz/AMzw9d4qXjOGA+KYR4e8NDoT9jLO3C9pSjbidlozBeMMhsreQEcUcSBrWOROEYCsBudAejBFKAFUaAcFLOVwAah4DLxy8uJs6e8Hhlxop/OEx6RojscZGvMUVXvWV07pVxASrqdKrpClBE1A6zYkv/Bp4+sYoFqz+H/mNYQ7Bri7hMDAd8e/l6xwEhinfzX76yIKAYp7lh+MOCq4/qJ994HKzgL4UU+r66y9Q0SwAogESn5HhxyTTjfx/wCYWt+1mcIn3jFIkHdHn6xJerGaXbzX2n8ZeXCzBq37uP8ArEX+gD9jifI/WeO6+pdoJrfHjG7EJwzj94OwEcIg8cc48HwgE+ydZvtF7pve2/5wV2sW6/xlkCE/+k1t94oqrffX4315wUiGBhePvJgV1bvaC7FLll60JaWg2b0h47LUIBKra8rrbt7e83oyCtFUrtf1jG5hqd7Foj1p1hvOoKLQ7CJeI6+HFtSPpj1p/OI+kDzX8Yhi0E3YRwF2EXFzIFfPH+cUx7AHjWGoT2OUig0vLAIPJqUHHi0Cw7GNnVlvZ7zU5cUVlR5Nn+Lg3Jpzbjomvxmj/ueB/GBJZ1vrA0W4+V1jp4NG+3/cXeVmPj8OAXbpYLnJxkLgKIQBXyDrjL8wA5OwQnw4qqbVSCxEHhFHHEqpdYQVC+XFR8Zp/pwjtp8YbSb+MZ0voxh9SFRuNkvY7FGijVNsANApVSrp5ilDN21raifZvNhMa8fun/M2kAmgL8JrGW6BaifFxhtc2lOOdYIEjiLjjRXyR/8AfnEeElEnwdPnWT4Iiu2FvO660Awf0hWggiPY+eMEbQRwRGfJi0ffziDkV8YQdh4M8ZwoPxjKUU/kQr94LQnf6cJ+suSnjT+t794TNlwEfMS/WDwK81PtgIpIRDhKYC87B4A1gcKqgP8AYo8vJlo50vPmAb/eDgAOPR0f+ZE15Cz+sVPTwBo/fPzg1eECpIxrguCYJRNnLXjleXnBCiqdPJ8l0nZcVAZOpBs/A8lYeMliCbJxecgQ8DX2/nvGg6J+DAcbA+Rrf7uUI2ts7xPafLFuAaUqc5Rqm3yfH5cTYrsRwEk2eW8ovEW0ERnrj3HHfoNE4VCdIo+sd0U5uegPNwqCcWg4g+7ngu/OarDfMzUTs/of3neJZdnhxBU1DXLMABgQM45RAoS5GKbGxcsIV8OODWsYDp/dwTYDCqZYARcuP7wVCsw69AFCiVCMQfSCcZNeXb1apwdqCbsXEMAbqjfunOUoCnD38nDiif5Lr9pOeAu9+EFrVyNvp/7gfM40i+PD51v3kyhfwL7j/wBuBTsaUT8j3xmxpZrg/wDn5w83bRqlZZWciOucNIQKpsnHWt6Ty5scuQBNInJ8c4W1J2jxgRaPjDNkPjm442/dw4eOt1wDSo7NxBJofWIfKeHL8P3xiAXt1DvKulTW8QXTRy9Z2DWGKkiugaKE50Kr3N4OHMaYQffLhGhxTsJz7/7m7rRC74P1cMBrjyR+qU+cOyiFUC8HkFrx5MGEBE2c/OccLTwVm/6wbj9nWLZioj9ONEG6U5wBPAO8fjbkuhgRIHd4PGUql9GnCO0NCd4ziNdjiSylQYSHpv59sYzQ3glRRVmo/wC5/WAPIj1S5MK55hq0rjbs31l9gWPzk7fvG1kCVKNK2HgKQMSodShGhVHCumcGJT40hd+rgT0iKg4a7ZnQfxlA3A685Kxk94IurhDuR84CCKzcvOXoH3lKhigTsyVTcOIcYsnN2O0bAdF0bVhWN7loSKlOERCijFwAiF4NwfWINFG8mzxgGk90rTxw0w4r/lkfU/8ALkCUG39vX8GEK1PPwNdL8P1iMbTcRPk57wiDOgWi/HXxdeMIlHoFXXD5TqOIAoFFEO3FrL63gha+/nN0C9twuM574uXqwXABeG8OdUk1imiG/MySJuRGV3dnkzfb8auWBgc1ykrdp7CjPplgdhSkgrt1v8HeBOQngvI8B3eP6VRRciGNDrdygIuTjJvE5ifHJ8LzlT2CTk/+fxnizBSJ639POEAgjc2x9c8esMowtDr58YnvEaQUVCFUN+TBCgpN83F6RRjJrzhrJN6/kf3PjIQYqVOOpg1lVGsfRcAF2dgf9wghReTnDjknkOHmjrIDBQYBRJxxS9K7xWohhSXZrNEm3nrCCqcVmBiGvnKfGecG/U/7xI5PnIkW4VALyujlQxAjYUGWA0BCrUXHnNZ3X+0YJ5vYgKI8OMBDXnExcXz+R5wT36mGOU9Y2p3gseAQ1frIdw8Ezh0/jJtTjq4fR9f8xxuIHadRyLtDjTn2OCLNAaNQ+zGNLWo+Nc/G9Y3bJ0d/Gz66zsceUk/DvHRZSUJPnDFO26232YINwCKfR5PLiaUJoL7jOfAv3MnyQm/4N6cTAqb5SXgeT8fzRiz75eXfrnpnnH7kVCneuTrmtmsi2QavD+8HUEeN4Ik3m2XjkwJ4fxiqkZpbw+cJV3MOUh2rju/Iydj1CqdDQN4uS4EXGo9N/frGqQqDk+fdn4T5cxa20Eimt8O6a3Lcvf8AUdqV8CXY4oBJcEiPkl/OWdouQKqN4HHh7oRO+yu/93/5gij4va9/6Yg2Rg+ufz+8aEw3I08Owrmm4B85e7LDHnxgG+x0aM1S+TyU8n95EFNInLCIrWqN/eFAAtjr+8BCjHD/AMxHFWJUEvlBoyg6cRNYnacDfc+8UorzkRqSb0v/AH/mDpSmCDR41hBAQiGabTCqIpW+Tsxop+howhhOzBlgSd5HF+b+ck878dYbDnOV+3Aoh9XWF2Qz6hwbHr0c4NB04F9G9ZJ2X1vCUFPeeecNAqfH8ZN4I3M3Z7Ntqp5HEUgVgBtjxgDco6OMEQOjaQZQmx4wKN5wCb1NG/8AffQVDHZ8+etzFup8APqX93K2KAlgvmk7+cAhfMQ/hf8AXO2McidXrv05ITjaKfZ/vEYMOlJr4eH8n3low0kN3boXnjI5rmBN7fi8aTvOnBH8mo88dYrpr0esBwzs9YB6dDlMRHLoMl8hK1nMNsWHWWmR1LUtj0BI8s0cYOuomWQ/KK+veWQOEPGjJ6wHOIorFh/9xtI3FLt28m8ZjGk2G29yhwmjSbwVCqoK0DqrXXjh9oZWII2lHCOEEu0y3tIIE1trmgNDjbHagl5odLsfDk2Cq1f9/PDkGJo1rb+MNGkmzQf9/pjVe6gjeZxlOvXnjH5okXvWsWhIio7nrfvJMrwXXbyF8H6yA3hNvoWPy4eb6qZom0eD48PIScaAAIA+DjCrwdzX+3izXHfOClgRXu8txgB2ckn++cS7f+2QcGMrOkEL5Rk2TLWGuyF4pFKtIIvUl4EDBqFWJUlecsBjcFoVYKvtxLrMl6IAL2D4wb4mO8tOwcAQCcAmGkmvWAwYsF2mLRzrxkXWzEB0uusPgh5wO2/NxVPD3gHkA34YAiDOMitny42GfCkzlILatcrjAGXKJs+ukN7FYZVGamHGiX4MwNEB32v23HgFmotH5w/whXXzqQxkNj4Wf64KPkQKfBv+85VQISPqMyohoSZ8AX8ZswoIlEnlXvx3gYaNpa8WNrN/zowWr9C/gRHnmGUQRtW55Nn4MAqCJB8Oz+Mu+GE+xvlLz/W8OUqWi3U/EHEWDNVfnB/EfWAG80IBIB8YDtSgoURdWLr1jGo1x011mjVORZwi/wAYZEh2O/R5H2frAfiRgPetn8XbxheNJR9B7Vq6wMNgEiHI9m+cdSTfsODefTR7Mck9462p2yc/hhEUTRET/eMk4Z7Yf+OWtolMi/J1hiBa+G3EFwOtaymYLNf3+cUPYByEUPnl/wAQylDvFdjfjExEeWsMLyO8ILoIFT85N4AmJI/ziQ+MBU4r8/8AWSRGl6jnAHSBIeAZ1OJuWCw848wLrGFK1/J5xzL9wjCJwx/UvX3ibHfGVwKVBx1g/f1m4v5yBH9YMKa94NNzNqa8YstEv5wAE784gpr4CYFsvzkdJXD5B77w2pciVsrPI/OS1qzlM53uOe8e3naHec2oQYO3QwNAKa2sRMhfHoWNcpncxDZ9DUHetRplHUixoH9/7eOrYjvb+8YpLq7/ACb/AFiOWieI6hJxeMmEXYUfv5/GAIENsAPlT7/+YDBeVY+Euvw94RBBsjEnlZ+TsxK7Vur0Rb/jnvjGvVlGgKTjk17+cGnM1HUg61JPIPGAhV+Dmj5AfM94rzkTgHFIXU28zCgZWG7bNXfotTnvNBRgOxjPvf3jo3QL58OOQVlxteH+MSIIo4hjPesZPdxuA8aaeMuSNupd+oJdnnDTJAK6a4W3QxZxmoicqZrgZvWOaODpDXYcY4RjyGTvn+LjqAbp689ZxFl4GgcY0+TkQ0p3hZ3TNK3/ACnhrcAexoD4Bqbulpw7MZrS7hzh4EO8KbjTfN/x+s4mmiC85SFs2LiGDeuRx2BuvDz6wC4GnnnhatL5gYElEFI2Uot0CMEAQ8gg72HGMloVU9z9fjCGGBcZyejSA/x1nMQHJrENvyOsCBr4ZuP56xIIq+cCdL6zkFb8YlQBtWftxnRw5zdBHwyiB5XEI0Foj1ihOnnCbDzkpve+MgFGenjCPffxgGE2d4hFb4M4rzrNJavlVBHFVzhaN16PxMOrHYbzRT41jcDapvyRfOO2iInjOpF3xdccmQibREXwy+MQKNC6Hrbxb1igohEB53HXzvrHeg7pp0Bt9jr1l3OLmrxC9PUvjHimQxLiCoFYT3tVyjK6pQ4IUE3uE9AAm6ktnqRmjuxxMqe3f36yioBAnnzhj4fMXR8QfhPeLx5sE0Dv/v4wFTUCvkn9Z2BHLvpP4wHlTUF4Jw+/zkHVIQr36Z/nFKCRFKh89/kmAUODANAQ4EKplWtAgjRBBERtvzgjPv3hcwcI+KURUGCh11xz1lhwci7R7/jBKtXQf3jNtHYw0aOJwlD9O/zh31wtqWjARlDlp3ca7Beu8EADW12YSRninGeY2SVmFRbjqPvBoWuecgbPa/rA5JsXCaWaEOArhwnisoSEjgSdXpaKg2AUOg3loCKrBIkx4lweQLC4iF5yQaFAv4MWvO8E0ln+6wgnMw9Jv6yBFs+eM4xT4xz8nOBwKd67x7IOOmn28YVUCoOeMYN20Nr9YAcYCAJwrY+nZlcUTnnE0H4c4zpE5I2Ch9invKXV94NjvJS6nGM5I+WJuLvm2ZQkY8oYqXe5cDwR/GIahvz1iCocoL97YwCHtj94MHvCT4Ax99tJhyZrXSdvbjfmRFfhv/mD/ISKjtGnk5dBj3ws2prPpB9Y4jxK9azfSMwVKU5iDH2ZFRuZ0zAOxlE66TlGHMTvJUUyaJKLKuR1RwGInp8mv4xguA+F5uJQkN1v+v5xh/Svbi+zd5L8maBDFW7Xp5nv+8qHnbE/Zz8xcFmGjk3x08P9Zwj3S6T8cPvBANOhgp9GfThDk/3iYV9yCc25sqXFoQp3lCI4bSBUU171zxiELHEqPy4gq5Tf+6ziIikl6ydqfDiX/DnM473jlpFqIf8AxPvCqKqUJA2gqFQDAC5otCKfBUK+cFcJuwoDwoCJpESiOCZAZDkXhEIak2DoyBlKdOK6HjzkeDfPnBCdTzgh1+82pz8YJN/eRt09yTBks11jN23rYmRQp7syshbova/wzf6sejwbyVMnU/De8vImx2j8G16XcwkdCjOdKwPtiwRRUl4hyns7yTS1Jy3xiAWF85oR1NbzgaF43lQZx1MRhW3BN4fkEKDxEXuJSjpTFgtVYtzl+MtYIp5MghtOzWPBGGFLEacomgpVp/PWIiSjwUF9Vl9l4yQpFDX3gjHDzxiqksJ2d62JPxk+dQEYhMdE09QxSYmEQkJ3P5aNoMpEQ4YAp7+d4N706A4HDuRWg/Xn7/GQBGSvyeuzn4vkwVRBTB1/CeuOPGtcAcAaAcPHx/nQJKi2HPvNJQ8x0Pjz1/7h0Fo90n9n6xUaI4lHBKNbNSvjjGI2vJNmEBagrSdb5cIieY2AH6MGTZm5sx5yfOb5F3pcgbSZGwzjY4kk0OCcYhSjp3lCXd/jCp9Bd0BKDBDbN242fCeiUQUqTyHrFynkUKo165wFACUgag3lnExK2X9YLGzKdlmLt+xj6Re5ieFRk+z3is6KVRNIxCPmYDFcH/tD8Ze4/wCsZEUSSZ9jv/CGVvG6Rf8ABxh6wYUd0djCEX22v8/7jOEK8tGz8YBWkwdEOCfgfd2vao2Xfjy+cq384a8G5lAeVqvOxubNxtAHe1ejvIIxlIezsk79rbijDnOaaHkSL5ZZwIyZLTT8ZDF1eHhxK5r8ZbQgsQku/GJ4cnZkmdtAHKrmlliQOWJFtWBduKT8W1aANQgJOVU2ztCQRWZ2E2vNNWbUdThhHGJFsEPyfxhGWE6gK8yo+sRRF4bfLR3/APdwB4J3Yj8+ucePTW8xARCjxDobQaCDb8px9+MZ+kLodzfnPFHujj/THYXYU4Xwnv644mSdI6NPkPCYaLBoP5Hnq8JO7cot8HL+8rmB2PH/AH7yfHYX4c5WhQuv6ygNFa32/H+4xwvQFU7rdQprTUDCEohTw/131jIFU8w39Ya1+8EJKWQzmR0nrDmgS3IxRE0d4QfJeOsrGFKSCE6AiAwjNwQhYN0S7KQaWDnhpy2sJNRWwHfh72bA6ZtNLCzg4woW1Irbhcur+Md7iEMI9mdBb041EC/zhNEH+cAYdeMRI4WZDGTe7fNwOQHpP+YiR374PzgN2k7Ff2YjsPvf6MWoRHlfnjBeL8xC4yAADejN10Gt3VC8+Uz9TDf7OXAFu9L5rMXohJol+H/mdwQPIB72+vOUPKd1HuT7y8BVgaR4/jAQbDwPSocdH3iAOVuvw2+soFZFNvg06PC4RHN6P+YwGvjBntO8HsHw2/nGR3Qck3DgJD7cFJMLALUmgEHyngMoWdYlHlZyoV+jrJ82Qm1Yn4xBuYXkguxbqreBxRQVwIif3g3M4NQv3GAuGgBw5mK8IPCYy9isig1HYzWKvOpat1N1hFxodxwaHknXZiIBvuJt/wCD9fnUQYacjreJyF0JNHXPM/OEwoI2XT0id/G86GnOqnuE6114jrE3k57a7+MOgTII4tNCPa+D4EYQjbteH76w7IzsLhq2k9aaASm/KBOHFGjaFmivD5P8ZJh10OcCgodsQwceWMGJrEbN395G9u/ODprJmgGh68YD4MvCTGAUR8sYMeoqC0VLKMeTWW5QxaT8mY3cC8Iobl8DU5wVChW6f9c1tYJ0z5x0/PjrAp/zJldznDIIjhEV8fu9Z0RPLf7wIT7Nq/eNkM6quE9Jk/zjKnR646weYnkp+5iU3BHYfsn84QokuqRdlqfc18YBFY5kL8ePzjD8NemeSjv+cQBM1ex8OAut7aiceP8Aawdv+DH98/ziNMZb6jwXBiMDcDh5dn7ytriKq/XPnrBtg0ZCfh/qZCi7sl83v8OBP7hT8wfDgYQuAqlewZfbNYxjqGjOS0XnniPLgENaqu4+xx4+WBG5jfu4FKaNUUm/syVHXLvnf8YjfkC0Tr/e8j5AjLop5hV253wEzU7fgriFp8TTgeIVV0Z+v/GsRB3shzmkVE06mEuBENp4fWcnaU3bNGdAYeCEM5ZjNr9ap7Ne3CnQvbT8eP8AcZUmzyTVdOC7G3BwfEv+mGXZTXDujqf7w4wEvCV+S7p/X6ioCbhqJ1/p8XHsAmCcbP8AvxhFztRL8c41wQpyKNAvR8e8Np28iTjN1BplN6OK5EiQQv8AvWe8h5yDhS77zdZJ6d3NM/Uw1gKJ+v8AvA6N0G0EEoqI1d+IMYOhRJABAkJx1lCUmANJEsqa0OrB3ORttBSo7GJhnqU35c6cAeKw+3/d4XpRcotU3xgYapcU5JXnK4huD2Qs+MAE5wduULixKntmDEanhH5xXQ+Q/rGIx04dP+YSW49ixIbIPbN/TgLge9flx1ArZ/n+mPTeeQoXYBD8ia7w8R+lfj3ijoXl/wCp/wAx6TCCHh9YJMN8PH3cniDeWX+D9Y2otavfX/uakNOAb8/+4TQNuAXPs1+8BFh4RT6t9cYAvBBP/l+cYM9Zf3Clb1J3VhjGQA7gebfAva5lx09dlyA2z/CzOE7yoa4ZO/5yP4+tmowez4DvENdQQ61/9xRQ+9/X7c09eFOHs98fjFFZ9FG+f8/nEUEFUQdDdGxQ7G8I1f5/WO1wngxRTKfeCKLsd4qKnBY0vVzxw9jkqArEXmEmnxGyYUs1+G8ICTx/ipN4o/74/HxnGocdP6cf3goDGt7XezBlCHJo+Wj+t/wWVsYjdGjwArPXnKlMKD676BLZ4H1YUi6nj/mRMIO2OQqWOZzjQkem8YrQS3TEBSI8I3CgqpyLrGUAu67zXPfvzkkGfpB/vIa9LVSdq0o0B7SJWEz54FEU3pi5Xg7w1qYpsT6BAgp+OqOWD6etCLO0soog7kpgNne+8dhsm9fg3hox8D1kbaDy4wtVOvXrAS8HCamDV6BKPZj8HqBPlp+v2yAjr6APsufDxkfYrB0+D+lwJzYf4A8/WbgZNaNn4y7p+MJ90KYUdp5j+HLGjUFUYuqprxDrCyhQrYnjbxipA2bi/i4WRWgAnreLRksTffIb38YIxNHCknjR1iU3T3U36Dz5wOqcifAYxZtYnuH8ZK7+ql3zl2TXnB9jGpW8Q781DfPjjQJJreaA2ao1ciiyiTc09bX3jd9K1raqFN16PjRGGAcKV/tZeQ/DEnPrQM38PCdnxpbtCJwJ73m4GD8u80CESIffGdhzW93xPdv5yaQsUHdtiEfRXUsGdVF8VKvWddxwBMwUKprg2dGl8YoeOL78YoYBfHeEHLeNOIRsnmYK4up2wj0VatNRxpRdq1tcdX7eFTBPYFrdMR3bO3r5/wB8+c0wFNpm67Ab5+t5udlxm1Wu9pftz9KE5ypZNS0m09II7/vAooiP5643k5eueZ6nESj8Tn6ywftYpwF4YmCgPDlBoPHjFFLjtwC+XvAaFEkfj/eLtb4yEJwYFAIQG4L3sXRQpHPnTV0ZHN9yJKV0nK1QBV5IxyGE1YqABiYRPigKpXesfpBaL8G3IYWfecLArG8LtIPODIlTx3j9hbJGbX3Cc4Ar8MbSzgwHuj5zZaHdXH1JNtn7C40Vp+RosH3jELHkINKtXGUVVBpVDEG8RmCEnZsT5tt9T7yiRa8vITn1we7pgfgaS2AgeN17+RxJRmI1CxAV8eJvHyQnIJ+s231wfiY+K21iapkHgB6250qACnwfxzkFOaVv7l+8R1eXI/o4gsyAn5aiy7TX7x4QnH1TweCSobWcNbIttnA/rGEMVZpKs+H4YJAX/f8AcAT9MUiLKKUG1NBrV0OjDSgBDvX/ADxihdE2Pj5/3rDWraDYpNf7nFX4EAQAIAgAAAEIGXIXUbH0O/nESHN1LcnIvPI4c9IdkT4wa5N8OLyIUFIXoO+tzcMIqt4m9Yo2BfZ5t4k6yojucsRiIDgLOOzvGm9Em9xI0XpqkMj7S1L5IPS/jjUGxIAspwBdB87VcZASe8Uj8skqa9Y3qSukklHrV+TXDkSsQWh1gvyH651YHoXJeC9LqD6K5XgCd8ZdNBeuzAa7dzAkI9f/ADFr2PGXaSJCblk8ti/fEFb6tgmBpXqaoXQq0UHdw+JIFGlRKWqiI70ZjocpbqQEIXT1hUaUNI68VOKwUAJThjNbMGUA8D/GQEAJx/7Z3Jq7p/F0xc2Q5P5Bxy7FjgyrXAYMTXrWaimAg4Nn6P4cm0JODABgL1L+ME0af56waHYhEFtnOucDV5/GdGj7yCQ1ZrFOjttOcINVwQKafeASBGzxjpgV3J35a2cR03Eoa3mCsQ1GPv1kX1IRucpm3JM+NuHMK7Q741Lx1gFK2igr9N89fvEEzeCeSaTYPKYEsZoLgA1MpBRBSHf+1guNw0boDUPZrWAWGuhwSRjDVOe0cMEdDpK05kKQilYZEW3EDbZ/viY4Bb2LOHrr9ZEQ+hB06+8DlKbYlDpfP9fbhkgC13fk/wBd9ZIR7y4OQe54xi10PCD2ef8AmcFAOBH2deXBxldLJSkAXJXQPwMSbr/GCvlzjdBvvCHf4MCQR+B5yxJV87frN8mnow5qh5ylK3u4bALppbi7FlV2Cb5Ihu/nDwPrGEgqoWEfZyGQFgKM/vBEVtZeMsR3+r7ykOum4SyxP8v5xpsB0os3EdOChVYB8WOjsjmsRwLzmjkLvb/ofeQOX7YkS2lOQKfrGG3Vec9n73ghyn3gCqDy5Dq88YVlpvcaEmCaJF9ZG418ZRObgy6frLHR5/nlyUb7cG2Bv84GhNVUA7wXhFgHyrrhwGqwTk/hiZ6MP2CPyynEtNfyD7/7jBp8Np4sRgbG7S87SrMMGgA8i/1/uc3TwSBbva0v+2YFCRyK/RwcePuma+dKMA5V4D68bd47ZAOQQwC6Ag+V7wrNTrIeQDnDsQEOw4F5wvoC4+BR84AAxbpyBB0UNJ+/jCow4KKgW8bB7A4zYAgZpG+HfOv9xkAJ2g5+35/+4Ji75dMfM/PWJSkuzk8n+/qvpTwWvdnn12fFCtpXk/CPJzz4eNx0jvBh9pvpqTu4biOu26PI8p1cCYDsoQNrEDQMXjCt9NN26BV65A4rlwjo3OGIx4f3kBBv1/GaDIpYcYg11h4NnvvAB0bwYgpQ+csgvQGQ2JPeNGgMzr1IJqesMA9uduO3PrDY2fOAt1Fgc5kBggFA+MXr92Ut0cda2dY79bE4r6+sNFVSTxncb5w+rhojjGP5xqcNkCdmcWr99Zs2a+cGd/rC7yHs9ZRdhCffIIk0KpQPPPOVPcRj+cAnCWqV9tP2GXoI8kn5b78ZIAK3qAHzibWev+skpudvl/txUdHl2v8AzIIw707df7nBsienPwv41+3NMy+RcFQ20U/JQhrt0SkxtojThWVOqwIHjCLrWFAOHBhM8p6xganlTjGvJa27f9MtGsfHDgB3FKH6VT85UEGhhQ9r952q3AcoPG089eMJ0AvKd64NnbrSXL6OjCVYk+B06TjdzlaLY7D7nH++GM0HHOPid93EsxbQsfRwC0bUSC+3njf+EjdF2cv8/GHcC1lXuGx+Pw4IAWse31xr9O82KHub7SWfF+suOdIr0LvvTe8c4DJ3m9qHD0ONq4d8ag5tbX6E+sXCOhsWc74xtzvuYhI85BVJgKJvFQnq3N2GdP8A5jtxeF1geAidZo4ETJXGnp+cYdc1S78+LjjY6wfJswNLr7RLgPJwMSg51jIC8YlV/eFGucghF4sNJwGW7HnrLs/WUkO/GUHxhCeN5PfGOdeRwHf3jFh6Mr/3EvCa1/n8ZTpYcU1+MthBOjcxc0C98v4/3xgGFeSVnf7wwsrB2niTHwNUFpPdmneeSKEnp4He94uMTUiu4mpozQvdwjomchBegcaY/JzjKDTu462xz4MumhVBr+XWCiQ6NBmrD5YQut+XBrIDSLTTleWsuzXL/WMKNy5AGKcdfz7Md9ddTd6Tw409O28X8pG3woHzz6ybBREK/wA8OIpxeTT/AIfT5w9EAgzfx+384PAVAqC8F7fG+eWLjRyL5v76+sCRuGhZ4fXAc77cuWCuk9nUuuNzUplZh4AJpRKc7rkFFlA9scD0PjLjbqgoVAIrW2nzhovs47JPC5FUr5e8N2Q8vvFXdxqnJMJRnnXeRkCOXrBaTWJy3EoaTxjKAhN7zvvB3m+GgjjBdEvumUdbGqtSnrC1LrFHWOETJE2P844KGu+WwHWVOOcA7OfeA3bx05tPKecZPEB/LHnGWEpE7m1OusICL2gf3iLg+RHG3RMUW+wQ57e8RCzZL5Av0uaIL0m/I6/nLqRI2Z2Ej7WFkfJFeV1Ou24mAi0iZF1e0TjOKW8NxYWXi+ciy9uTC/C4AwK8YWAK2Fhjwyxzi/kwEE7yGDd57w+HLyTnGJ3azk9+ceTvccJrCMrv1ks4HGHQQjFLeHcraqeRzh2MfbJVSZ3v4MLACJaOaQB7Kb1jm6/OgKPJttjPHWOeBug2U5qOHhM0ZC7Ofw/f+5qMWch7e/HzgBph8U6uun49W5tEe0PzQWdgQYPfwpO0IwUdjU6TAjECUFuhrNUE1xRky7g+D7aJ2dbhUMuBVvceM3rDqYBtnY4wVLR4OsA1tJido8Yjl+8DiMHg7rqYUCcWbeecvHOLoNYGu8hHNfR1e8Wx0QlDRN8hjplOBZkeV87P65fWDgxCiHBAfy8IqFIUIO3lcauL484MC17uPyv6xzw+85k1+8SMp9/ZMURpNUGmvkMMhe1X9mAyw2JE+OmaboAAeA8ZRWN59Zar52HnIBpWSzCU5vfeN/N9lMVBFaZodBaNuBQp0DIeABIrhUewxr97CbwC6/OHBfrzmi9pxM6on6xITx5MoU0Ti44Bf+Yrvb7wev1xnXaKKXKGlGUTx4wHl57xT8RiSHTUY+wyxt7set+QRtgNl4fklAHSwNJ8vNuAMPtnPzfW4TI1dp/hP6w+gjzB/wAP6yCujiJGfDgO4rEEtXy28CE5wstRo1dRgdTu/Ux+adSDH0DnYRz0z0dR6dLnkqCb5xyoToKduifMh2mJAvQnKit+esk00/eK5TZ4lSzEThdfnNxz4k4+cMCTzc9iF46xG465xK4VvE/rIoeAdHD+sTCIQaQXybMPqW0PkOahndecElpyvGJALbWsRpANm6L/ADhRy8TDR2+ctGM5W5bY+8Sxt/OCKGnOpMJQn0ZHfL8YKSa43gkSPOJNjXjvI3s8ZdL263iFJv45cM/CP+4wq/NwQDHiazyj7mVVbdNuabFDw4Rq35woeV84Mrx4wrbr05fNHx5xzVPjvESz8Y3Ead4W5aDrCkTScHPy53hshCMJXLNABtO8RRFEqI6RuCAUIrT7l45/7k8APDiTuh+4Iv7/ALx8blUEug2HfKykLvJP0QPywfjaN/ilB9Y03tdXjGFQDwZSq+SqniIz7xOjhqI1xd/dxiIx6wTaq+5m5LT5x7lZ5mSa6wDD34wmdb3iILTfRy4P48ZXObP3gg8z5zolmxb2zwHWlPeMkY/uc2uHZoPxhzSTkcAQeUMMcQF63f3gwFXe/wCsEcLVuM2SvGLTNLgCd4Z7UJiGGgq+80hdvWSDNYAnL1cqn0feJ5i6xF2FMXFYnU6wD794z4c5woFhcJna5tvUOMS+yAxH36Tjj3lVNXq4Ao4+biOmGAoN8mEhRm+ssNwP5z0jfvPTfLngPG94C8H1giTZxMGNRBoczt/nDNqBhEoETyOOLoe3adu8QROHZcIPID/OL5AswEAq451rIdg+ZkfO+horzJ3hlCtDovjBdn0ON5bgJnDxJwsAUEnInOUFActTB5KnQ885Qj8PLgOybdMa8YLTp8zGrUTFhTcV7y5M7wVyjev4yzI003u4IBbB3jGUAcxAP8Z6GEecBt3vomaSR326xNEndxTC6354xMUB20wjJ9HFWkejG74PFxjYdmbGYAPdccPJDxmmPI6MsIOveHU0zKspp6XE6rHGDTq18Ycwn1jwBs4bhDrWAcJcFT495p95E06784gaawUOn4ctdJjLV0PeB4ae8CaFONExFTf9ZohQ1zlJwQ5MSEHh8uEeZWB/WdkAlsc0wg1zcQ6PZvFTl12YlUiQOJ1v6xW3a95MRXnGAlHeTpt2u3AaY1CXjBKxL+s4CD5Nbj5CHnTFHZfbkJLfHeAYGDveQvZxjvQ3z1gtWvrWaKtnNweZFwceM2zZ/rAS2UPW3/8AN4UVdZdBoETwz+sMwlBUdeMTqhKaYaqx09ZZpS+9X/ljIN17cTd5cOpvO0X+WCBPo3mwLa6MHo0VOqzDBk/rPEN52YCHH4dYq8UNS8YIBiscBiNrHW8HoVpgOz6c4s568Z4Se28Udq77wVXTzgFRjwtwFV375xGecKePjjHdEN9+MXSJ5yhveIbN/wAXItu/XHxhMKbO93E7IcPnOiNJPJ4w4ITAXrxkILAprBhSdPbGWy8HDvDhU0R3wZunTzi77e0r68YziF0P/jOGlTl8YtK/OG6R8sMCzWCMIl213gpCdo6xsHKdyYaPXZiEr04bNlZcTbyJnBN7N5l/Lm3FXZk6t+sCqbue6/vEV2Dda4wBBEi8dOD2B1RnjAV/hXeAEAO/WBYqU1/rrBEEpvWEreu3B3EnIYDVycTBRgdc5FSbdb6yNmWJ2RIv+MkpBOAxgAcnjGocr4xDd9zKrzJgnY/NwR0vnEOHXL1gIIfWSnIesK7MEOj8Yq9jxkIK+zbmwCTjzig5PnAXRj1rFINzLH9rvBgQc8DgA4eaV/3rEL02Knp6OeM5pgsCdyennBgm3d2wXkLuN/x8f+OzL2OphTTA9pffpioS3T05+cmAB67/ALxliBsNJ+8kYA7kftfzlKzKht+MUBoeLxyRx1wP3hPkRQPx/wCsZazx1/nFoR5LcNzJ2WD63ig3coU46LDKy15WFF03ebYF5k/9xRYTXb+82aNzUf3kSAclf7yELM2tfvjEFY0BKU4XnDXWBHz9ZFfeKXDjRBFqtQ2+DjHUtRSTv4wIR0CHDlXNeFHGPSbRMFa/rHbUcDJ+crtNu/P/AJwjwDUuDaSXBCvU4c5Zb+ss8EcIUKpDJiCBErxWaJx+MCiJ8TnNAh+MRPCdOJLq6vxn6jY4VFeeaZtZri+8AcL6esEJUQ4uD5A8GMHxMEut4qadfGX4M8Zvy4dUTFCNLzlTX/zL5Dz5/PPjFUhN3YhcFbeUobj4cSbchF8rZl+QIFy6doeeMaA9Ck/HqZqFIVB4wAEgpA7dvi/xgIBJSv8A95/GEZOkga89eT84wZaaBKcl/GCCODGm5yR8f2YMAFOl5e2fR+sWpAKghePzT8ma0vJRCe8oCOjZ11nCcqQT1mgVbJ3f84rhAUeILxkTeSFHfnnEKhAzTDXnThjvaxcnEh1hAETjeEC6dPMf/nF4j+MXNnbj0hd4YPwHKQP6yBRXYz/OMtSBiku3j7zVh3feOQh3vcwxEV4feXaAAipmDv8A9wDx8ObVNBxneZ7ZRs76Mdl45A4xLbpPlrIi1btuBhkOs3TYDICu7kAa6wBotfExqNgGIhHZ3hsv7mAIV17xtSx6Mm348ZRbtnrKJCmIFRfWCJdey5q8ONof/MRab8d4E6UK9v8Av+4O8Sal1PjFDbASX95qYCEF3YnGv5x2/Y3yGPfmDElhoq8DiRtkVZO/iiA5Ed5xSpw2d3zq+4DQAP0fntYppEDOupkdpKMAg2Uq2BUsq5nqM1AZIdLAsNnH5YsAgFKkhTqOO/774IpXSUOy0WCJEBVdKiqesCdajtaSAYJYCjYBTuQCeBAihWmz1Vc8WgpxOi14KkM0oxe5YVpZEHbiQNUr0Dh5wbAaIEmsN/RFKJtWkhHTtaq5NETSpUOzd/J6Iy1nUnGOGq83EKtfnnKpspSbfGAWtq59f8y+cX3iOCBC940A0R493vJoVvPGnGpro5I8t/vKNzWR07l5/OAp3mgOfnIZg+uPLCifz3gg/wC5z2LO9ZUiUyRSenvNsE1L5xhwVq+WsTCXAIvH95Ku24c60YMgC9S4QgMA0YnWqW2keOX3x7yzu6WG1NNa5Ec2PLMRJEQ0e02RvX5ZAA+/RBxC3kDbQRTA7qxADfDTTyYc79WQaBYK8uwVlR4IjTiGKNIL0BszaggnwdcQS7G7G4RG0XQvLWkVSF3HWOoXjOGIZbwj5mbQKPSHGLoJ3igt5gfGUayYrsqUY6wqz3YmiefxmqPAoeM5BYpd6yJTjDNTLm1WfeBeS7yvFly6UEnGENSdoTRNgLfPGlhI/kg7INhdTrm+pQ4pDCY5BE3740hOKKEF+V6d3wOzNspa1PhHN7DtOAhk+lHSqnyB8Td5pwgkSvkxK12s5949Ee9c5uNheMDg4+Md2k+ctkYc/WBb6mbMAqrQHvIgDeif7/XxlB6PfEP+P/y5uQ+OcECgczI5ok+Yd/WVqDWj7xjbs3XW4/3iKxvzxiFNxOv+4rIl27uKAJSeq1/GXCM4msIki6a/Ob09EOcOImesYCm9d4Jd675whHvn5CuLVQTB4U8c5KeJv6ziP4wkNvrAZbySOTWoStGgb4WG4LyqoNAJlygIV4YQj2zmhHmiy6YFg2qKonAjWIGMAZKpZUa21xDRwOxzXkOVRdU3xeRgWnKQMINRBZ1FY34yoOCoBWoYvWHpRgyVkAV1TaRqxF5ohVamX0IlkQrFIZGwQACtg5gwKGpqvrCIRxjP3rOaLC7xQHLYF5wKbmtD3jNVCQ6imSAAQOD/AMxSQjzSWBhYPLuZYbjvFKnerpcp4Er6OSolvOybwigOtwOKh2DoDwmaEP517ByTbgbYoTJ7tIynpPQnAWTIwzwkqjQop1RRcYCMWxChEokE6QdoAL0VKRQ+414gopi4NJbIpzoUHDaOseyHU80LgUJXq4HYwLQn3hBoKMmHXOKqMAKy86oNSZboFcdgRROEI240hIGzAUCRdqRQxcFjUlLwNt4IgVTamCWsmBIQEFKdnwCKkULrwkW8LA2clkgdBSIofCIII27cZAhCXgrC0MA2F6ERVMKw6UGCDa7jgeTna5oVaTgICgYzIwn5CWppnE+C7yW+s3Gbxgh029XOqjTd4PUeEE4/NwECkxWe7/d4V2sxYDKnMyiQDxOpkAa03zhoRLeJhbA3+MY2AnJ3lNQDjKeO/DkuRfG+Md1RX3qecckA3gB5vbg4/vHjXPGRgLNgLfWFXU5afQoQNKhGmSbMiXgGNBgEJExIZSYgk0nV+WICG5l9pXdAMd6ikxdys0ggwZS1IbYlTeuMYQd4miaGhQaYo0qi3Irc6zg9hgICDodY6LcsugUtM6vISb1TFmaePWLoQv4KILb0cuLpL+tY4K271hCGeAa/GQnp51OYVtOgbxiJoYjEqTYo+mPxleB0cl6OvjGOuDu8oom9jzk2V3TM14SKKcwgGOMlsRIKEaE0mhBDGncrXsuo2BRFJFMbhxSciRFkRPbiSOARQhNuSCh4F85GmI47xFeVFL4Zgp9IFT/aPwYK2zGppYvFh8wxQaFc/jJwEXdvOAeOQl5nWCvk6hgq+1v8MP1SW7oDPQaZIzJyRNhMU5dCO2Sc5KILSRa3YkeU1KDDRI7JZHdC5iqYdAqD6+sG7mt5ByN8i7TQUF9mL2wDszQoM/fDEG66RXM8B0GMiCYfEZ9gIB6AD6wohFC+s5ucTOP/AHCbsnxjLuc4odKNL8v7x828QuyRqaOfsLtfORRvCf8AbhiT9jeAlp8hmO8UjKAvUPL8ZdXXxiSy3u4ZeS8xy9BTuOHZNnvApqYqFScT7zkfJhHxzhx3D5zl4v7x1PD5xk/A5kNukigQkIZnnrxJ8kKlBEJvC4GakLLA3kVFowRuU+tNUo2ityzFvZFRBVUcFPQ4mN+ITbLpzH8B95CjTAgQAl2BBYzAYCA5M6VA3cSgqZVDYzhJIOXfMRNZdJFBCYvqMSoWoZSDhTAII3C18rgFIKRBvygPtyFTcbHk2PtP+SlKSGCmmaFIOHlkHL08XV1dcCqDULGnAt/CSLwng5zR2pweqtgm9V5wxIoww7Xx8c7zQBDgXWAooBiypJ5hlKBbsOsIhR6MqEIcL5x0mjLj2epkkH5GGitOFxCkRXESrldIj/pgS3ROTfGPu5wkI1rchLxCYJUgZVA0qLGzu8YB1v4oUBERPtDbYSu4XZmqQpLZmyoh2TTjjsnqGUofDjBVN8OC14zkJhDn/Lj8+sKmU31rBvAKdaxtrEn/ANGJW1r8Y4mQBgoAATxnPpmzA3D4YLXlfwOGm1iLclG7fGBRd5YEp7TEPkfvGhVr9hgYiCHnpyZFm9XNp/GNOiua9bzZUfjH9ouuQgpEZ0Q2rzvHjADDW6xHtLQc1bH6FUA2S0MJY7cUNozecgWWqY7uFAgwnAEyggoocEbHBKJFFQeS6rfrDit6QhCbk4rxE7xdiZop0eF39D3g0UvLqCF3vXnNX2ilyHO7kTSeECAkfDOYSKnEkFQyUTlAZUaMBN4jgZJmJo5bvubVrTDyJUUqirBoRA6ABPiRghKhAgC9BhBRwDWGJUu48t5E1EBLTpylGbBIDZCjTZNZpUZmTAYFmVN+BCaplGbBpWkSEDRoZKnuAICu+zUr4ADmoLeJBNUQXdE0AxBqCYWQHSlEBJBiZCihkOstDaNcWOC19bvCbjZ2Qhryyud2oW8AkxF8CMOYdSALZA2EiJdhsWGUQGgeEaO6ARKvnOm7wVO7NikOSqnBADZwbYACNlFBGnYCSYAu0DcGm3lbCVq8pFM8pbyrZusnw6UCUwlKIBCXZXEVtcu9Fdyu1zc3jbp2UVCqr1gYkXJQFggLbWbaKGMsCETsAHQ4QC+XV1CYSiVTbzMZ85b5wfjDbgsm+5cY67seu8Apa485669+svjJpdbb+8goP0c4Nd58YZc3PB8f98YWmCkfyYuY2Z5jRkWneLUN38469FSn0xKU+LcTTefJvANg84yO8FNX4mCipPgw4JXLKdYtoXfvKC7uHEyhkh6yx7HJkoNtOstY+g94+0RSujlBSRHrVMoHRFw5P8Q/OHT7ggfoMUNDPjeHnrXOLBGHYLm21TmuQRWvbiEJCkwKj8Lj+4DFoRe05IVBc3OPAiBUgo0R5cCXK3ZOBDJSeIANYNSwiwhuE0uzWyQN95qcGaWsfg4xgUmsqbI87OMAkIQCWUCaRI3iNwV1owCLZoCWGqXnAo0igjlTaHrNJGHIGrjzHRyRAFqArLAXrIl2HeLIiygFZ5w65BckAr2AO1A24Wph3Z+8IgCmyd5VXTUSOXXAFkicmJhEf6M7rdl7wXrLV6xQXIH4xBqhBeizEcNU3q4lE7YZYeCTkd9wRP6yzr+MBTliSNHQxnrvFFdTFGbvo6yDzRwWjjAdvl1hDlEL8GaQ/wA5sIcGASz8mIIUnEyY4H3h1k7AG3RXzwb9GaTjmc4iO+feFJV6GXRXXI4GpiNxCvzjOm+jkxvQAIqqDQP/ACHhMQoNAD60DrSYuwOCQndHMq4hHIizES995EUQ5XRiCHKTJvNDY8ZB5Jb4Lm2djMVASVA2zeRkQvC9ZSQHTH5giLyCL5LcPsSpChgUCmg1Wy6qc6dyJSGwAgC4ao/fDgAnSBV7IlQtIAAYIqtqvR7GnW4xyr5Rz3ERJQ7xXKOEvRSI0CJ3353AVbOLUUTgOh74Cz6cBoAqXcR1dNL0JgBQGRKQdjqFpyMaw8etwA2u0VAJA+ZHbkCTpQhiiRajFqC1dHfCGuxECyESCdQ3SktVgfRCJiQzTavOx2uOkZSHQCiE2dqFecgFNkLgVKqps0UU5LrorSsWQaBnkHHB4PnInAVy6RPVCBzhbYFvYCBXfU1kLIJsE1UiDSaGXeVtYC9qoYqpAFacwOlErX4f+ZWc4R7MT1LyDiZeySL2/lwAw05fObIHrkyrQovieGiGSLL5zhEp4y5yLdev+mGyNZuLzijQ51kI6mJdOs3b+lx2dnrEFWRDAaRtAQNpBtwG2iYEBIhEWyaJAbpawglWCG2SK8F4NznEd8e5iSKsnOWRVeBYL7cNdm00GAhDx5dhrxsUpULabLeZG4OCHq0fmuUX3HmqKB+o0dBRUDQS9o442hFBLxrGBYCUXNorMJiEEQALeStUAw8IpvSAS72PL5c4Rhoem8awKCgXZcX0aARuqv7X8uMzstxXofBMHgPIS3NkC8hiEEtdY80MQKsO8O/LXPiZa9e2MJS3i7nf8X94cUG1AA0LIVWBIA6KVUFSQgw1EJNEITN5SYC7EHScJGZCUmBUXZzCYbg4zQqeAcqvEKuDgkoKsJN7a6XGDa0HaJyQ85RB6SyJ8gch4ec3RFNazQY8PDhmQ8H+80A1cXhKmEtvrEF39mIqk9YxugwyugQ2ShWg5c43YmjG2moHeDd1abMSJyM1+nkzVBTxSpRMPTomQuFUhlySh4AXfQsm8Gu8cphjonaDvlgzdFqUHZeriie8ofZDv5JiQp4C7B89ubxqdr35wAkb1jPFV6wwqWCvOx/WbfAZBOXgcGAUPLiFYkjGpb1uuCl19uKXQ/jEHG8QTf8AbKujr5xnMqMOp1N8cPOVlAqUABRpHkwXeN1cwdsBgNrA+u4ZVOPgjgimP6VcLXH04Q6Qvxxl+zjG+Eld4lRQyQNCgCwVIHYVgGQdmBbDovb5xx1IVsUIOXsd7zvPpYY7ntxNVJpeJg0Qq86ySbVfjAbbHvvNpIOIjxhyqPHL/cYywk1VxUblFTX+/vCBGFSdHeOFPGBAgOh2mrq1h8xXYjVQE0fkOIJSCouYORvZNy6AbaTICBDqJqcu4lC4RcGnKbtlg5HK11CIAOA6NCuGKYQK7ChVs0T2MYgQjY2GyYW4mbeQqrVfjskIBF0bZ3S6ZTBUbAV4BCwAaMNRB96w6oScmEGgT05sW3ek4xcgbZv+MtjPbD93FTtw1NdAA6mrXOAduVzwCNISG1eG0EKc1YrCWJVDjWjwRBvWG0BFcwLtGWaw0XCxNFizguOzwQnYC5FKBTCrA0cABMYhDoXnf/uf/9k=;" vertex="1" parent="1">
          <mxGeometry x="80" y="150" width="512" height="512" as="geometry" />
        </mxCell>
      </root>
    </mxGraphModel>
  </diagram>
</mxfile>
